M48
;DRILL file {KiCad 4.0.5} date 07/16/18 17:30:16
;FORMAT={-:-/ absolute / metric / decimal}
FMAT,2
METRIC,TZ
T1C0.300
T2C0.500
T3C0.800
T4C0.900
T5C1.000
T6C1.300
T7C2.200
T8C3.200
%
G90
G05
M71
T1
X76.66Y-38.62
X76.66Y-43.62
X76.66Y-48.62
X76.66Y-120.62
X76.66Y-125.62
X76.835Y-104.14
X76.835Y-107.95
X78.66Y-129.62
X79.375Y-78.105
X79.375Y-82.931
X79.502Y-68.58
X80.66Y-36.62
X81.28Y-53.975
X81.66Y-120.62
X81.66Y-125.62
X82.66Y-131.62
X84.455Y-53.975
X84.455Y-63.5
X84.455Y-69.215
X84.455Y-73.025
X84.455Y-97.155
X84.455Y-100.965
X84.455Y-104.14
X84.455Y-107.95
X84.455Y-109.855
X84.455Y-113.665
X84.66Y-43.62
X84.66Y-48.62
X85.09Y-93.98
X85.103Y-81.14
X85.446Y-86.398
X85.66Y-36.62
X86.66Y-120.62
X86.66Y-125.62
X87.46Y-33.92
X87.66Y-131.62
X88.265Y-69.215
X88.265Y-73.025
X88.265Y-76.2
X88.265Y-79.375
X88.41Y-88.62
X88.66Y-95.62
X88.66Y-100.62
X89.36Y-83.82
X89.66Y-48.62
X89.66Y-53.62
X89.66Y-58.62
X89.66Y-106.62
X89.662Y-62.484
X90.297Y-66.421
X91.66Y-110.62
X91.66Y-115.62
X91.66Y-120.62
X91.66Y-125.62
X92.06Y-33.92
X92.456Y-66.929
X93.853Y-112.141
X94.16Y-104.12
X94.615Y-62.484
X94.66Y-58.62
X94.86Y-100.92
X96.52Y-74.295
X96.52Y-76.835
X96.52Y-80.645
X96.52Y-83.185
X96.52Y-87.63
X96.52Y-91.44
X96.52Y-95.25
X97.06Y-33.92
X97.96Y-97.72
X98.552Y-62.484
X98.66Y-100.92
X99.06Y-41.02
X99.06Y-95.25
X99.16Y-104.12
X99.16Y-108.12
X99.187Y-67.945
X100.26Y-54.82
X100.86Y-33.92
X100.96Y-97.72
X100.965Y-74.295
X101.76Y-117.82
X102.235Y-83.185
X102.235Y-84.455
X103.505Y-75.565
X103.86Y-119.22
X103.96Y-57.52
X103.96Y-62.52
X104.16Y-104.12
X104.16Y-108.12
X104.16Y-115.12
X105.36Y-122.92
X105.36Y-126.72
X105.66Y-50.62
X105.86Y-33.92
X106.68Y-74.93
X107.378Y-95.25
X108.66Y-110.62
X108.66Y-115.62
X108.66Y-120.62
X108.66Y-126.62
X108.66Y-131.62
X108.76Y-67.82
X108.76Y-100.02
X110.66Y-51.62
X110.66Y-56.62
X110.66Y-61.62
X110.86Y-33.92
X111.66Y-47.62
X111.66Y-107.62
X115.66Y-115.62
X115.66Y-120.62
X115.66Y-126.62
X115.66Y-131.62
X116.66Y-44.62
X117.66Y-35.62
X118.796Y-81.28
X119.66Y-130.62
X121.285Y-64.135
X121.285Y-71.755
X121.285Y-92.075
X121.285Y-98.425
X121.66Y-39.62
X121.66Y-44.62
X121.66Y-120.62
X121.66Y-125.62
T2
X95.898Y-99.72
X97.648Y-99.705
X99.56Y-99.72
X100.96Y-86.319
X100.97Y-81.326
X102.616Y-81.318
X102.616Y-86.32
X102.941Y-95.443
X102.96Y-97.104
X102.96Y-99.02
X105.51Y-92.697
X105.512Y-94.356
X105.512Y-96.022
X105.512Y-100.368
X105.96Y-61.147
X105.96Y-64.52
X105.994Y-62.56
X108.76Y-76.87
X108.763Y-75.143
X109.449Y-80.175
X109.639Y-86.881
X110.21Y-81.97
X110.21Y-85.32
T3
X84.46Y-39.92
X89.46Y-39.92
X97.36Y-51.
X100.86Y-51.
X108.66Y-39.92
X113.66Y-39.92
T4
X77.47Y-51.435
X77.47Y-53.975
X77.47Y-56.515
X77.47Y-111.25
X77.47Y-113.79
X77.47Y-116.33
X95.25Y-130.82
X96.52Y-112.22
X97.79Y-130.82
X99.06Y-112.22
X100.33Y-130.82
X101.6Y-112.22
X102.87Y-130.82
T5
X96.52Y-36.77
X99.06Y-36.77
X101.6Y-36.77
T6
X120.015Y-50.84
X120.015Y-55.84
X120.015Y-111.8
X120.015Y-116.8
T7
X121.285Y-83.82
T8
X73.66Y-33.02
X73.66Y-134.62
X78.105Y-62.865
X120.015Y-104.775
X124.46Y-33.02
X124.46Y-134.62
T0
M30
