G04 #@! TF.FileFunction,Legend,Bot*
%FSLAX46Y46*%
G04 Gerber Fmt 4.6, Leading zero omitted, Abs format (unit mm)*
G04 Created by KiCad (PCBNEW 4.0.5) date 07/16/18 17:30:08*
%MOMM*%
%LPD*%
G01*
G04 APERTURE LIST*
%ADD10C,0.100000*%
%ADD11C,0.300000*%
%ADD12C,0.010000*%
G04 APERTURE END LIST*
D10*
D11*
X114978571Y-105097856D02*
X115050000Y-105026427D01*
X115121429Y-104883570D01*
X115121429Y-104526427D01*
X115050000Y-104383570D01*
X114978571Y-104312141D01*
X114835714Y-104240713D01*
X114692857Y-104240713D01*
X114478571Y-104312141D01*
X113621429Y-105169284D01*
X113621429Y-104240713D01*
X114621429Y-102312142D02*
X113764286Y-101454999D01*
X114621429Y-101454999D02*
X113764286Y-102312142D01*
X114978571Y-99526428D02*
X115050000Y-99454999D01*
X115121429Y-99312142D01*
X115121429Y-98954999D01*
X115050000Y-98812142D01*
X114978571Y-98740713D01*
X114835714Y-98669285D01*
X114692857Y-98669285D01*
X114478571Y-98740713D01*
X113621429Y-99597856D01*
X113621429Y-98669285D01*
X113621429Y-97240714D02*
X113621429Y-98097857D01*
X113621429Y-97669285D02*
X115121429Y-97669285D01*
X114907143Y-97812142D01*
X114764286Y-97955000D01*
X114692857Y-98097857D01*
X115121429Y-96312143D02*
X115121429Y-96169286D01*
X115050000Y-96026429D01*
X114978571Y-95955000D01*
X114835714Y-95883571D01*
X114550000Y-95812143D01*
X114192857Y-95812143D01*
X113907143Y-95883571D01*
X113764286Y-95955000D01*
X113692857Y-96026429D01*
X113621429Y-96169286D01*
X113621429Y-96312143D01*
X113692857Y-96455000D01*
X113764286Y-96526429D01*
X113907143Y-96597857D01*
X114192857Y-96669286D01*
X114550000Y-96669286D01*
X114835714Y-96597857D01*
X114978571Y-96526429D01*
X115050000Y-96455000D01*
X115121429Y-96312143D01*
X115121429Y-94169286D02*
X113621429Y-93812143D01*
X114692857Y-93526429D01*
X113621429Y-93240715D01*
X115121429Y-92883572D01*
X113692857Y-90526429D02*
X113621429Y-90669286D01*
X113621429Y-90955000D01*
X113692857Y-91097858D01*
X113764286Y-91169286D01*
X113907143Y-91240715D01*
X114335714Y-91240715D01*
X114478571Y-91169286D01*
X114550000Y-91097858D01*
X114621429Y-90955000D01*
X114621429Y-90669286D01*
X114550000Y-90526429D01*
X113621429Y-89669286D02*
X113692857Y-89812144D01*
X113835714Y-89883572D01*
X115121429Y-89883572D01*
X113621429Y-88455001D02*
X114407143Y-88455001D01*
X114550000Y-88526430D01*
X114621429Y-88669287D01*
X114621429Y-88955001D01*
X114550000Y-89097858D01*
X113692857Y-88455001D02*
X113621429Y-88597858D01*
X113621429Y-88955001D01*
X113692857Y-89097858D01*
X113835714Y-89169287D01*
X113978571Y-89169287D01*
X114121429Y-89097858D01*
X114192857Y-88955001D01*
X114192857Y-88597858D01*
X114264286Y-88455001D01*
X113692857Y-87812144D02*
X113621429Y-87669287D01*
X113621429Y-87383572D01*
X113692857Y-87240715D01*
X113835714Y-87169287D01*
X113907143Y-87169287D01*
X114050000Y-87240715D01*
X114121429Y-87383572D01*
X114121429Y-87597858D01*
X114192857Y-87740715D01*
X114335714Y-87812144D01*
X114407143Y-87812144D01*
X114550000Y-87740715D01*
X114621429Y-87597858D01*
X114621429Y-87383572D01*
X114550000Y-87240715D01*
X113692857Y-86597858D02*
X113621429Y-86455001D01*
X113621429Y-86169286D01*
X113692857Y-86026429D01*
X113835714Y-85955001D01*
X113907143Y-85955001D01*
X114050000Y-86026429D01*
X114121429Y-86169286D01*
X114121429Y-86383572D01*
X114192857Y-86526429D01*
X114335714Y-86597858D01*
X114407143Y-86597858D01*
X114550000Y-86526429D01*
X114621429Y-86383572D01*
X114621429Y-86169286D01*
X114550000Y-86026429D01*
X114192857Y-85312143D02*
X114192857Y-84169286D01*
X113621429Y-83455000D02*
X115121429Y-83455000D01*
X115121429Y-83097857D01*
X115050000Y-82883572D01*
X114907143Y-82740714D01*
X114764286Y-82669286D01*
X114478571Y-82597857D01*
X114264286Y-82597857D01*
X113978571Y-82669286D01*
X113835714Y-82740714D01*
X113692857Y-82883572D01*
X113621429Y-83097857D01*
X113621429Y-83455000D01*
X114621429Y-80812143D02*
X113121429Y-80812143D01*
X114550000Y-80812143D02*
X114621429Y-80669286D01*
X114621429Y-80383572D01*
X114550000Y-80240715D01*
X114478571Y-80169286D01*
X114335714Y-80097857D01*
X113907143Y-80097857D01*
X113764286Y-80169286D01*
X113692857Y-80240715D01*
X113621429Y-80383572D01*
X113621429Y-80669286D01*
X113692857Y-80812143D01*
X113621429Y-79240714D02*
X113692857Y-79383572D01*
X113764286Y-79455000D01*
X113907143Y-79526429D01*
X114335714Y-79526429D01*
X114478571Y-79455000D01*
X114550000Y-79383572D01*
X114621429Y-79240714D01*
X114621429Y-79026429D01*
X114550000Y-78883572D01*
X114478571Y-78812143D01*
X114335714Y-78740714D01*
X113907143Y-78740714D01*
X113764286Y-78812143D01*
X113692857Y-78883572D01*
X113621429Y-79026429D01*
X113621429Y-79240714D01*
X114621429Y-78240714D02*
X113621429Y-77955000D01*
X114335714Y-77669286D01*
X113621429Y-77383571D01*
X114621429Y-77097857D01*
X113692857Y-75955000D02*
X113621429Y-76097857D01*
X113621429Y-76383571D01*
X113692857Y-76526428D01*
X113835714Y-76597857D01*
X114407143Y-76597857D01*
X114550000Y-76526428D01*
X114621429Y-76383571D01*
X114621429Y-76097857D01*
X114550000Y-75955000D01*
X114407143Y-75883571D01*
X114264286Y-75883571D01*
X114121429Y-76597857D01*
X113621429Y-75240714D02*
X114621429Y-75240714D01*
X114335714Y-75240714D02*
X114478571Y-75169286D01*
X114550000Y-75097857D01*
X114621429Y-74955000D01*
X114621429Y-74812143D01*
X113621429Y-72526429D02*
X114407143Y-72526429D01*
X114550000Y-72597858D01*
X114621429Y-72740715D01*
X114621429Y-73026429D01*
X114550000Y-73169286D01*
X113692857Y-72526429D02*
X113621429Y-72669286D01*
X113621429Y-73026429D01*
X113692857Y-73169286D01*
X113835714Y-73240715D01*
X113978571Y-73240715D01*
X114121429Y-73169286D01*
X114192857Y-73026429D01*
X114192857Y-72669286D01*
X114264286Y-72526429D01*
X113621429Y-71812143D02*
X114621429Y-71812143D01*
X114478571Y-71812143D02*
X114550000Y-71740715D01*
X114621429Y-71597857D01*
X114621429Y-71383572D01*
X114550000Y-71240715D01*
X114407143Y-71169286D01*
X113621429Y-71169286D01*
X114407143Y-71169286D02*
X114550000Y-71097857D01*
X114621429Y-70955000D01*
X114621429Y-70740715D01*
X114550000Y-70597857D01*
X114407143Y-70526429D01*
X113621429Y-70526429D01*
X114621429Y-69812143D02*
X113121429Y-69812143D01*
X114550000Y-69812143D02*
X114621429Y-69669286D01*
X114621429Y-69383572D01*
X114550000Y-69240715D01*
X114478571Y-69169286D01*
X114335714Y-69097857D01*
X113907143Y-69097857D01*
X113764286Y-69169286D01*
X113692857Y-69240715D01*
X113621429Y-69383572D01*
X113621429Y-69669286D01*
X113692857Y-69812143D01*
X113621429Y-68240714D02*
X113692857Y-68383572D01*
X113835714Y-68455000D01*
X115121429Y-68455000D01*
X113621429Y-67669286D02*
X114621429Y-67669286D01*
X115121429Y-67669286D02*
X115050000Y-67740715D01*
X114978571Y-67669286D01*
X115050000Y-67597858D01*
X115121429Y-67669286D01*
X114978571Y-67669286D01*
X114621429Y-67169286D02*
X114621429Y-66597857D01*
X113621429Y-66955000D02*
X114907143Y-66955000D01*
X115050000Y-66883572D01*
X115121429Y-66740714D01*
X115121429Y-66597857D01*
X113621429Y-66097857D02*
X114621429Y-66097857D01*
X115121429Y-66097857D02*
X115050000Y-66169286D01*
X114978571Y-66097857D01*
X115050000Y-66026429D01*
X115121429Y-66097857D01*
X114978571Y-66097857D01*
X113692857Y-64812143D02*
X113621429Y-64955000D01*
X113621429Y-65240714D01*
X113692857Y-65383571D01*
X113835714Y-65455000D01*
X114407143Y-65455000D01*
X114550000Y-65383571D01*
X114621429Y-65240714D01*
X114621429Y-64955000D01*
X114550000Y-64812143D01*
X114407143Y-64740714D01*
X114264286Y-64740714D01*
X114121429Y-65455000D01*
X113621429Y-64097857D02*
X114621429Y-64097857D01*
X114335714Y-64097857D02*
X114478571Y-64026429D01*
X114550000Y-63955000D01*
X114621429Y-63812143D01*
X114621429Y-63669286D01*
X116796429Y-89990713D02*
X117510714Y-90490713D01*
X116796429Y-90847856D02*
X118296429Y-90847856D01*
X118296429Y-90276428D01*
X118225000Y-90133570D01*
X118153571Y-90062142D01*
X118010714Y-89990713D01*
X117796429Y-89990713D01*
X117653571Y-90062142D01*
X117582143Y-90133570D01*
X117510714Y-90276428D01*
X117510714Y-90847856D01*
X116796429Y-89347856D02*
X118296429Y-89347856D01*
X118296429Y-88990713D01*
X118225000Y-88776428D01*
X118082143Y-88633570D01*
X117939286Y-88562142D01*
X117653571Y-88490713D01*
X117439286Y-88490713D01*
X117153571Y-88562142D01*
X117010714Y-88633570D01*
X116867857Y-88776428D01*
X116796429Y-88990713D01*
X116796429Y-89347856D01*
X116939286Y-86990713D02*
X116867857Y-87062142D01*
X116796429Y-87276428D01*
X116796429Y-87419285D01*
X116867857Y-87633570D01*
X117010714Y-87776428D01*
X117153571Y-87847856D01*
X117439286Y-87919285D01*
X117653571Y-87919285D01*
X117939286Y-87847856D01*
X118082143Y-87776428D01*
X118225000Y-87633570D01*
X118296429Y-87419285D01*
X118296429Y-87276428D01*
X118225000Y-87062142D01*
X118153571Y-86990713D01*
X118153571Y-86419285D02*
X118225000Y-86347856D01*
X118296429Y-86204999D01*
X118296429Y-85847856D01*
X118225000Y-85704999D01*
X118153571Y-85633570D01*
X118010714Y-85562142D01*
X117867857Y-85562142D01*
X117653571Y-85633570D01*
X116796429Y-86490713D01*
X116796429Y-85562142D01*
X117367857Y-84919285D02*
X117367857Y-83776428D01*
X118296429Y-82776428D02*
X118296429Y-82633571D01*
X118225000Y-82490714D01*
X118153571Y-82419285D01*
X118010714Y-82347856D01*
X117725000Y-82276428D01*
X117367857Y-82276428D01*
X117082143Y-82347856D01*
X116939286Y-82419285D01*
X116867857Y-82490714D01*
X116796429Y-82633571D01*
X116796429Y-82776428D01*
X116867857Y-82919285D01*
X116939286Y-82990714D01*
X117082143Y-83062142D01*
X117367857Y-83133571D01*
X117725000Y-83133571D01*
X118010714Y-83062142D01*
X118153571Y-82990714D01*
X118225000Y-82919285D01*
X118296429Y-82776428D01*
X118296429Y-81347857D02*
X118296429Y-81205000D01*
X118225000Y-81062143D01*
X118153571Y-80990714D01*
X118010714Y-80919285D01*
X117725000Y-80847857D01*
X117367857Y-80847857D01*
X117082143Y-80919285D01*
X116939286Y-80990714D01*
X116867857Y-81062143D01*
X116796429Y-81205000D01*
X116796429Y-81347857D01*
X116867857Y-81490714D01*
X116939286Y-81562143D01*
X117082143Y-81633571D01*
X117367857Y-81705000D01*
X117725000Y-81705000D01*
X118010714Y-81633571D01*
X118153571Y-81562143D01*
X118225000Y-81490714D01*
X118296429Y-81347857D01*
X118296429Y-80347857D02*
X118296429Y-79419286D01*
X117725000Y-79919286D01*
X117725000Y-79705000D01*
X117653571Y-79562143D01*
X117582143Y-79490714D01*
X117439286Y-79419286D01*
X117082143Y-79419286D01*
X116939286Y-79490714D01*
X116867857Y-79562143D01*
X116796429Y-79705000D01*
X116796429Y-80133572D01*
X116867857Y-80276429D01*
X116939286Y-80347857D01*
X118296429Y-78133572D02*
X118296429Y-78419286D01*
X118225000Y-78562143D01*
X118153571Y-78633572D01*
X117939286Y-78776429D01*
X117653571Y-78847858D01*
X117082143Y-78847858D01*
X116939286Y-78776429D01*
X116867857Y-78705001D01*
X116796429Y-78562143D01*
X116796429Y-78276429D01*
X116867857Y-78133572D01*
X116939286Y-78062143D01*
X117082143Y-77990715D01*
X117439286Y-77990715D01*
X117582143Y-78062143D01*
X117653571Y-78133572D01*
X117725000Y-78276429D01*
X117725000Y-78562143D01*
X117653571Y-78705001D01*
X117582143Y-78776429D01*
X117439286Y-78847858D01*
D12*
G36*
X109698573Y-65293464D02*
X109101382Y-65180882D01*
X108930135Y-64765469D01*
X108758888Y-64350055D01*
X109097767Y-63851698D01*
X109192123Y-63712131D01*
X109276370Y-63585971D01*
X109346662Y-63479104D01*
X109399153Y-63397417D01*
X109429996Y-63346798D01*
X109436647Y-63333013D01*
X109419542Y-63308179D01*
X109372256Y-63255111D01*
X109300828Y-63179759D01*
X109211300Y-63088070D01*
X109109711Y-62985992D01*
X109002102Y-62879473D01*
X108894513Y-62774463D01*
X108792985Y-62676908D01*
X108703559Y-62592757D01*
X108632274Y-62527959D01*
X108585172Y-62488462D01*
X108569408Y-62479019D01*
X108540347Y-62492608D01*
X108476679Y-62530706D01*
X108384633Y-62589306D01*
X108270436Y-62664402D01*
X108140316Y-62751991D01*
X108066099Y-62802745D01*
X107930578Y-62895254D01*
X107808284Y-62977459D01*
X107705305Y-63045369D01*
X107627727Y-63094999D01*
X107581639Y-63122359D01*
X107571953Y-63126470D01*
X107544426Y-63117150D01*
X107480272Y-63091745D01*
X107388510Y-63054088D01*
X107278161Y-63008013D01*
X107158245Y-62957353D01*
X107037781Y-62905940D01*
X106925791Y-62857610D01*
X106831293Y-62816193D01*
X106763308Y-62785525D01*
X106730857Y-62769438D01*
X106729580Y-62768488D01*
X106723383Y-62743227D01*
X106709560Y-62675954D01*
X106689468Y-62573639D01*
X106664466Y-62443258D01*
X106635914Y-62291783D01*
X106619449Y-62203406D01*
X106588631Y-62041547D01*
X106559306Y-61895350D01*
X106533079Y-61772212D01*
X106511554Y-61679530D01*
X106496335Y-61624698D01*
X106491507Y-61613676D01*
X106458826Y-61602881D01*
X106385015Y-61594170D01*
X106278708Y-61587539D01*
X106148533Y-61582981D01*
X106003124Y-61580490D01*
X105851110Y-61580061D01*
X105701123Y-61581688D01*
X105561794Y-61585364D01*
X105441755Y-61591084D01*
X105349635Y-61598842D01*
X105294068Y-61608631D01*
X105282500Y-61614503D01*
X105268635Y-61649600D01*
X105248812Y-61723971D01*
X105225361Y-61827776D01*
X105200609Y-61951180D01*
X105192602Y-61994258D01*
X105154559Y-62201952D01*
X105123921Y-62366015D01*
X105099471Y-62491869D01*
X105079991Y-62584934D01*
X105064264Y-62650632D01*
X105051072Y-62694382D01*
X105039196Y-62721607D01*
X105027420Y-62737727D01*
X105025092Y-62739982D01*
X104987600Y-62762496D01*
X104914635Y-62796841D01*
X104815133Y-62839588D01*
X104698027Y-62887307D01*
X104572252Y-62936569D01*
X104446743Y-62983944D01*
X104330435Y-63026004D01*
X104232261Y-63059319D01*
X104161157Y-63080458D01*
X104126058Y-63085994D01*
X104124828Y-63085533D01*
X104096139Y-63066776D01*
X104033015Y-63024223D01*
X103942027Y-62962346D01*
X103829745Y-62885617D01*
X103702740Y-62798508D01*
X103666647Y-62773701D01*
X103535797Y-62685247D01*
X103416409Y-62607411D01*
X103315338Y-62544433D01*
X103239441Y-62500554D01*
X103195573Y-62480014D01*
X103190183Y-62479019D01*
X103161856Y-62496277D01*
X103105739Y-62543964D01*
X103027863Y-62615949D01*
X102934260Y-62706102D01*
X102830959Y-62808294D01*
X102723994Y-62916394D01*
X102619394Y-63024271D01*
X102523191Y-63125795D01*
X102441416Y-63214837D01*
X102380100Y-63285266D01*
X102345274Y-63330952D01*
X102339588Y-63343590D01*
X102352980Y-63373008D01*
X102389101Y-63433238D01*
X102441864Y-63514470D01*
X102484333Y-63576969D01*
X102562260Y-63690214D01*
X102654016Y-63824325D01*
X102745625Y-63958844D01*
X102794654Y-64031166D01*
X102960230Y-64275961D01*
X102849125Y-64481449D01*
X102800452Y-64575063D01*
X102762619Y-64654669D01*
X102741042Y-64708532D01*
X102738039Y-64722242D01*
X102760207Y-64738729D01*
X102822851Y-64771254D01*
X102920191Y-64817391D01*
X103046451Y-64874709D01*
X103195850Y-64940783D01*
X103362612Y-65013184D01*
X103540958Y-65089483D01*
X103725109Y-65167253D01*
X103909288Y-65244065D01*
X104087715Y-65317493D01*
X104254613Y-65385107D01*
X104404203Y-65444479D01*
X104530707Y-65493183D01*
X104628346Y-65528789D01*
X104691343Y-65548869D01*
X104712979Y-65552099D01*
X104740576Y-65526503D01*
X104785375Y-65470461D01*
X104838066Y-65395688D01*
X104842235Y-65389412D01*
X104996931Y-65196154D01*
X105177409Y-65040325D01*
X105377898Y-64923275D01*
X105592626Y-64846354D01*
X105815823Y-64810913D01*
X106041719Y-64818302D01*
X106264541Y-64869872D01*
X106478521Y-64966973D01*
X106525336Y-64995541D01*
X106714382Y-65144131D01*
X106866188Y-65319672D01*
X106979966Y-65516089D01*
X107054925Y-65727306D01*
X107090278Y-65947246D01*
X107085233Y-66169836D01*
X107039001Y-66388998D01*
X106950794Y-66598657D01*
X106819821Y-66792738D01*
X106766663Y-66852773D01*
X106600261Y-67005564D01*
X106425088Y-67116902D01*
X106228734Y-67193276D01*
X106034283Y-67235812D01*
X105815658Y-67246313D01*
X105595948Y-67211299D01*
X105382580Y-67134326D01*
X105182978Y-67018952D01*
X105004571Y-66868734D01*
X104854783Y-66687226D01*
X104838994Y-66663372D01*
X104787288Y-66587798D01*
X104742488Y-66530348D01*
X104713883Y-66502882D01*
X104712979Y-66502482D01*
X104682036Y-66508379D01*
X104611809Y-66531754D01*
X104508075Y-66570178D01*
X104376610Y-66621222D01*
X104223193Y-66682457D01*
X104053599Y-66751455D01*
X103873607Y-66825786D01*
X103688992Y-66903021D01*
X103505532Y-66980731D01*
X103329004Y-67056488D01*
X103165186Y-67127862D01*
X103019853Y-67192425D01*
X102898783Y-67247747D01*
X102807753Y-67291399D01*
X102752540Y-67320953D01*
X102738039Y-67332855D01*
X102749331Y-67369222D01*
X102779615Y-67437269D01*
X102823480Y-67525263D01*
X102849125Y-67573649D01*
X102960230Y-67779136D01*
X102794654Y-68023931D01*
X102709830Y-68148893D01*
X102616484Y-68285704D01*
X102528592Y-68413911D01*
X102484333Y-68478128D01*
X102423682Y-68568448D01*
X102375619Y-68644928D01*
X102346230Y-68697592D01*
X102340018Y-68714697D01*
X102356777Y-68739594D01*
X102403564Y-68794694D01*
X102475520Y-68874656D01*
X102567788Y-68974139D01*
X102675510Y-69087799D01*
X102744674Y-69159684D01*
X102868243Y-69285448D01*
X102978766Y-69394136D01*
X103071515Y-69481354D01*
X103141763Y-69542710D01*
X103184780Y-69573808D01*
X103193510Y-69576791D01*
X103226716Y-69562946D01*
X103293858Y-69524687D01*
X103388137Y-69466258D01*
X103502755Y-69391902D01*
X103630917Y-69305864D01*
X103666647Y-69281397D01*
X103796511Y-69192245D01*
X103913431Y-69112261D01*
X104010838Y-69045919D01*
X104082161Y-68997688D01*
X104120830Y-68972042D01*
X104124828Y-68969564D01*
X104155645Y-68973270D01*
X104223401Y-68992938D01*
X104319161Y-69025139D01*
X104433991Y-69066444D01*
X104558956Y-69113424D01*
X104685121Y-69162650D01*
X104803552Y-69210691D01*
X104905315Y-69254118D01*
X104981474Y-69289503D01*
X105023096Y-69313415D01*
X105025092Y-69315115D01*
X105036987Y-69329737D01*
X105048750Y-69354434D01*
X105061599Y-69394627D01*
X105076751Y-69455736D01*
X105095424Y-69543182D01*
X105118835Y-69662387D01*
X105148203Y-69818772D01*
X105184745Y-70017756D01*
X105192602Y-70060839D01*
X105217273Y-70188529D01*
X105241407Y-70299846D01*
X105262676Y-70384954D01*
X105278752Y-70434016D01*
X105282500Y-70440594D01*
X105315727Y-70451435D01*
X105389979Y-70460246D01*
X105496624Y-70467023D01*
X105627033Y-70471759D01*
X105772573Y-70474449D01*
X105924614Y-70475086D01*
X106074524Y-70473665D01*
X106213672Y-70470179D01*
X106333428Y-70464623D01*
X106425159Y-70456991D01*
X106480234Y-70447277D01*
X106491507Y-70441421D01*
X106502877Y-70408819D01*
X106521376Y-70334581D01*
X106545398Y-70226103D01*
X106573338Y-70090782D01*
X106603592Y-69936014D01*
X106619449Y-69851692D01*
X106649356Y-69691703D01*
X106676450Y-69549032D01*
X106699369Y-69430651D01*
X106716757Y-69343534D01*
X106727253Y-69294654D01*
X106729580Y-69286609D01*
X106755814Y-69273012D01*
X106819005Y-69244270D01*
X106910123Y-69204214D01*
X107020143Y-69156675D01*
X107140035Y-69105484D01*
X107260773Y-69054473D01*
X107373329Y-69007473D01*
X107468674Y-68968315D01*
X107537783Y-68940830D01*
X107571626Y-68928850D01*
X107573105Y-68928627D01*
X107599803Y-68942208D01*
X107661240Y-68980284D01*
X107751311Y-69038852D01*
X107863910Y-69113911D01*
X107992930Y-69201459D01*
X108067039Y-69252352D01*
X108202923Y-69345090D01*
X108326291Y-69427458D01*
X108430903Y-69495438D01*
X108510517Y-69545011D01*
X108558893Y-69572157D01*
X108569738Y-69576078D01*
X108594980Y-69559224D01*
X108648876Y-69512631D01*
X108725387Y-69442251D01*
X108818477Y-69354034D01*
X108922105Y-69253934D01*
X109030236Y-69147901D01*
X109136830Y-69041888D01*
X109235850Y-68941847D01*
X109321258Y-68853729D01*
X109387015Y-68783486D01*
X109427084Y-68737071D01*
X109436647Y-68721543D01*
X109423200Y-68696260D01*
X109385425Y-68635788D01*
X109327165Y-68546007D01*
X109252266Y-68432796D01*
X109164575Y-68302036D01*
X109097767Y-68203400D01*
X108758888Y-67705042D01*
X108930135Y-67289629D01*
X109101382Y-66874215D01*
X109698573Y-66761633D01*
X110295765Y-66649050D01*
X110295765Y-65406047D01*
X109698573Y-65293464D01*
X109698573Y-65293464D01*
G37*
X109698573Y-65293464D02*
X109101382Y-65180882D01*
X108930135Y-64765469D01*
X108758888Y-64350055D01*
X109097767Y-63851698D01*
X109192123Y-63712131D01*
X109276370Y-63585971D01*
X109346662Y-63479104D01*
X109399153Y-63397417D01*
X109429996Y-63346798D01*
X109436647Y-63333013D01*
X109419542Y-63308179D01*
X109372256Y-63255111D01*
X109300828Y-63179759D01*
X109211300Y-63088070D01*
X109109711Y-62985992D01*
X109002102Y-62879473D01*
X108894513Y-62774463D01*
X108792985Y-62676908D01*
X108703559Y-62592757D01*
X108632274Y-62527959D01*
X108585172Y-62488462D01*
X108569408Y-62479019D01*
X108540347Y-62492608D01*
X108476679Y-62530706D01*
X108384633Y-62589306D01*
X108270436Y-62664402D01*
X108140316Y-62751991D01*
X108066099Y-62802745D01*
X107930578Y-62895254D01*
X107808284Y-62977459D01*
X107705305Y-63045369D01*
X107627727Y-63094999D01*
X107581639Y-63122359D01*
X107571953Y-63126470D01*
X107544426Y-63117150D01*
X107480272Y-63091745D01*
X107388510Y-63054088D01*
X107278161Y-63008013D01*
X107158245Y-62957353D01*
X107037781Y-62905940D01*
X106925791Y-62857610D01*
X106831293Y-62816193D01*
X106763308Y-62785525D01*
X106730857Y-62769438D01*
X106729580Y-62768488D01*
X106723383Y-62743227D01*
X106709560Y-62675954D01*
X106689468Y-62573639D01*
X106664466Y-62443258D01*
X106635914Y-62291783D01*
X106619449Y-62203406D01*
X106588631Y-62041547D01*
X106559306Y-61895350D01*
X106533079Y-61772212D01*
X106511554Y-61679530D01*
X106496335Y-61624698D01*
X106491507Y-61613676D01*
X106458826Y-61602881D01*
X106385015Y-61594170D01*
X106278708Y-61587539D01*
X106148533Y-61582981D01*
X106003124Y-61580490D01*
X105851110Y-61580061D01*
X105701123Y-61581688D01*
X105561794Y-61585364D01*
X105441755Y-61591084D01*
X105349635Y-61598842D01*
X105294068Y-61608631D01*
X105282500Y-61614503D01*
X105268635Y-61649600D01*
X105248812Y-61723971D01*
X105225361Y-61827776D01*
X105200609Y-61951180D01*
X105192602Y-61994258D01*
X105154559Y-62201952D01*
X105123921Y-62366015D01*
X105099471Y-62491869D01*
X105079991Y-62584934D01*
X105064264Y-62650632D01*
X105051072Y-62694382D01*
X105039196Y-62721607D01*
X105027420Y-62737727D01*
X105025092Y-62739982D01*
X104987600Y-62762496D01*
X104914635Y-62796841D01*
X104815133Y-62839588D01*
X104698027Y-62887307D01*
X104572252Y-62936569D01*
X104446743Y-62983944D01*
X104330435Y-63026004D01*
X104232261Y-63059319D01*
X104161157Y-63080458D01*
X104126058Y-63085994D01*
X104124828Y-63085533D01*
X104096139Y-63066776D01*
X104033015Y-63024223D01*
X103942027Y-62962346D01*
X103829745Y-62885617D01*
X103702740Y-62798508D01*
X103666647Y-62773701D01*
X103535797Y-62685247D01*
X103416409Y-62607411D01*
X103315338Y-62544433D01*
X103239441Y-62500554D01*
X103195573Y-62480014D01*
X103190183Y-62479019D01*
X103161856Y-62496277D01*
X103105739Y-62543964D01*
X103027863Y-62615949D01*
X102934260Y-62706102D01*
X102830959Y-62808294D01*
X102723994Y-62916394D01*
X102619394Y-63024271D01*
X102523191Y-63125795D01*
X102441416Y-63214837D01*
X102380100Y-63285266D01*
X102345274Y-63330952D01*
X102339588Y-63343590D01*
X102352980Y-63373008D01*
X102389101Y-63433238D01*
X102441864Y-63514470D01*
X102484333Y-63576969D01*
X102562260Y-63690214D01*
X102654016Y-63824325D01*
X102745625Y-63958844D01*
X102794654Y-64031166D01*
X102960230Y-64275961D01*
X102849125Y-64481449D01*
X102800452Y-64575063D01*
X102762619Y-64654669D01*
X102741042Y-64708532D01*
X102738039Y-64722242D01*
X102760207Y-64738729D01*
X102822851Y-64771254D01*
X102920191Y-64817391D01*
X103046451Y-64874709D01*
X103195850Y-64940783D01*
X103362612Y-65013184D01*
X103540958Y-65089483D01*
X103725109Y-65167253D01*
X103909288Y-65244065D01*
X104087715Y-65317493D01*
X104254613Y-65385107D01*
X104404203Y-65444479D01*
X104530707Y-65493183D01*
X104628346Y-65528789D01*
X104691343Y-65548869D01*
X104712979Y-65552099D01*
X104740576Y-65526503D01*
X104785375Y-65470461D01*
X104838066Y-65395688D01*
X104842235Y-65389412D01*
X104996931Y-65196154D01*
X105177409Y-65040325D01*
X105377898Y-64923275D01*
X105592626Y-64846354D01*
X105815823Y-64810913D01*
X106041719Y-64818302D01*
X106264541Y-64869872D01*
X106478521Y-64966973D01*
X106525336Y-64995541D01*
X106714382Y-65144131D01*
X106866188Y-65319672D01*
X106979966Y-65516089D01*
X107054925Y-65727306D01*
X107090278Y-65947246D01*
X107085233Y-66169836D01*
X107039001Y-66388998D01*
X106950794Y-66598657D01*
X106819821Y-66792738D01*
X106766663Y-66852773D01*
X106600261Y-67005564D01*
X106425088Y-67116902D01*
X106228734Y-67193276D01*
X106034283Y-67235812D01*
X105815658Y-67246313D01*
X105595948Y-67211299D01*
X105382580Y-67134326D01*
X105182978Y-67018952D01*
X105004571Y-66868734D01*
X104854783Y-66687226D01*
X104838994Y-66663372D01*
X104787288Y-66587798D01*
X104742488Y-66530348D01*
X104713883Y-66502882D01*
X104712979Y-66502482D01*
X104682036Y-66508379D01*
X104611809Y-66531754D01*
X104508075Y-66570178D01*
X104376610Y-66621222D01*
X104223193Y-66682457D01*
X104053599Y-66751455D01*
X103873607Y-66825786D01*
X103688992Y-66903021D01*
X103505532Y-66980731D01*
X103329004Y-67056488D01*
X103165186Y-67127862D01*
X103019853Y-67192425D01*
X102898783Y-67247747D01*
X102807753Y-67291399D01*
X102752540Y-67320953D01*
X102738039Y-67332855D01*
X102749331Y-67369222D01*
X102779615Y-67437269D01*
X102823480Y-67525263D01*
X102849125Y-67573649D01*
X102960230Y-67779136D01*
X102794654Y-68023931D01*
X102709830Y-68148893D01*
X102616484Y-68285704D01*
X102528592Y-68413911D01*
X102484333Y-68478128D01*
X102423682Y-68568448D01*
X102375619Y-68644928D01*
X102346230Y-68697592D01*
X102340018Y-68714697D01*
X102356777Y-68739594D01*
X102403564Y-68794694D01*
X102475520Y-68874656D01*
X102567788Y-68974139D01*
X102675510Y-69087799D01*
X102744674Y-69159684D01*
X102868243Y-69285448D01*
X102978766Y-69394136D01*
X103071515Y-69481354D01*
X103141763Y-69542710D01*
X103184780Y-69573808D01*
X103193510Y-69576791D01*
X103226716Y-69562946D01*
X103293858Y-69524687D01*
X103388137Y-69466258D01*
X103502755Y-69391902D01*
X103630917Y-69305864D01*
X103666647Y-69281397D01*
X103796511Y-69192245D01*
X103913431Y-69112261D01*
X104010838Y-69045919D01*
X104082161Y-68997688D01*
X104120830Y-68972042D01*
X104124828Y-68969564D01*
X104155645Y-68973270D01*
X104223401Y-68992938D01*
X104319161Y-69025139D01*
X104433991Y-69066444D01*
X104558956Y-69113424D01*
X104685121Y-69162650D01*
X104803552Y-69210691D01*
X104905315Y-69254118D01*
X104981474Y-69289503D01*
X105023096Y-69313415D01*
X105025092Y-69315115D01*
X105036987Y-69329737D01*
X105048750Y-69354434D01*
X105061599Y-69394627D01*
X105076751Y-69455736D01*
X105095424Y-69543182D01*
X105118835Y-69662387D01*
X105148203Y-69818772D01*
X105184745Y-70017756D01*
X105192602Y-70060839D01*
X105217273Y-70188529D01*
X105241407Y-70299846D01*
X105262676Y-70384954D01*
X105278752Y-70434016D01*
X105282500Y-70440594D01*
X105315727Y-70451435D01*
X105389979Y-70460246D01*
X105496624Y-70467023D01*
X105627033Y-70471759D01*
X105772573Y-70474449D01*
X105924614Y-70475086D01*
X106074524Y-70473665D01*
X106213672Y-70470179D01*
X106333428Y-70464623D01*
X106425159Y-70456991D01*
X106480234Y-70447277D01*
X106491507Y-70441421D01*
X106502877Y-70408819D01*
X106521376Y-70334581D01*
X106545398Y-70226103D01*
X106573338Y-70090782D01*
X106603592Y-69936014D01*
X106619449Y-69851692D01*
X106649356Y-69691703D01*
X106676450Y-69549032D01*
X106699369Y-69430651D01*
X106716757Y-69343534D01*
X106727253Y-69294654D01*
X106729580Y-69286609D01*
X106755814Y-69273012D01*
X106819005Y-69244270D01*
X106910123Y-69204214D01*
X107020143Y-69156675D01*
X107140035Y-69105484D01*
X107260773Y-69054473D01*
X107373329Y-69007473D01*
X107468674Y-68968315D01*
X107537783Y-68940830D01*
X107571626Y-68928850D01*
X107573105Y-68928627D01*
X107599803Y-68942208D01*
X107661240Y-68980284D01*
X107751311Y-69038852D01*
X107863910Y-69113911D01*
X107992930Y-69201459D01*
X108067039Y-69252352D01*
X108202923Y-69345090D01*
X108326291Y-69427458D01*
X108430903Y-69495438D01*
X108510517Y-69545011D01*
X108558893Y-69572157D01*
X108569738Y-69576078D01*
X108594980Y-69559224D01*
X108648876Y-69512631D01*
X108725387Y-69442251D01*
X108818477Y-69354034D01*
X108922105Y-69253934D01*
X109030236Y-69147901D01*
X109136830Y-69041888D01*
X109235850Y-68941847D01*
X109321258Y-68853729D01*
X109387015Y-68783486D01*
X109427084Y-68737071D01*
X109436647Y-68721543D01*
X109423200Y-68696260D01*
X109385425Y-68635788D01*
X109327165Y-68546007D01*
X109252266Y-68432796D01*
X109164575Y-68302036D01*
X109097767Y-68203400D01*
X108758888Y-67705042D01*
X108930135Y-67289629D01*
X109101382Y-66874215D01*
X109698573Y-66761633D01*
X110295765Y-66649050D01*
X110295765Y-65406047D01*
X109698573Y-65293464D01*
G36*
X103712434Y-110769371D02*
X103712033Y-110729889D01*
X103709241Y-110614200D01*
X103700950Y-110517311D01*
X103686268Y-110435919D01*
X103664307Y-110366723D01*
X103634178Y-110306420D01*
X103594990Y-110251708D01*
X103577968Y-110232167D01*
X103538137Y-110199750D01*
X103484087Y-110170520D01*
X103424177Y-110147991D01*
X103366761Y-110135679D01*
X103345544Y-110134400D01*
X103286731Y-110142417D01*
X103222487Y-110163899D01*
X103161679Y-110194999D01*
X103113170Y-110231866D01*
X103107318Y-110237854D01*
X103066179Y-110288579D01*
X103034065Y-110344125D01*
X103010135Y-110407696D01*
X102993547Y-110482494D01*
X102983459Y-110571722D01*
X102979031Y-110678582D01*
X102978655Y-110727528D01*
X102978955Y-110789762D01*
X102980208Y-110833528D01*
X102982946Y-110862931D01*
X102987699Y-110882079D01*
X102994999Y-110895077D01*
X103001233Y-110902045D01*
X103008806Y-110908626D01*
X103018576Y-110913788D01*
X103033160Y-110917703D01*
X103055174Y-110920543D01*
X103087236Y-110922480D01*
X103131964Y-110923684D01*
X103191974Y-110924328D01*
X103269883Y-110924583D01*
X103345544Y-110924622D01*
X103446459Y-110924870D01*
X103527073Y-110924817D01*
X103565678Y-110923857D01*
X103565678Y-110777867D01*
X103125411Y-110777867D01*
X103125496Y-110684734D01*
X103127104Y-110628693D01*
X103131244Y-110569999D01*
X103137036Y-110521028D01*
X103137274Y-110519538D01*
X103156410Y-110440392D01*
X103186213Y-110379002D01*
X103228622Y-110332305D01*
X103274539Y-110302635D01*
X103325474Y-110284353D01*
X103373300Y-110285771D01*
X103424567Y-110306988D01*
X103477601Y-110348489D01*
X103516900Y-110405998D01*
X103543169Y-110480750D01*
X103552465Y-110530708D01*
X103558993Y-110587416D01*
X103563718Y-110647519D01*
X103565683Y-110698639D01*
X103565692Y-110701667D01*
X103565678Y-110777867D01*
X103565678Y-110923857D01*
X103589649Y-110923260D01*
X103636445Y-110918998D01*
X103669722Y-110910830D01*
X103691741Y-110897556D01*
X103704761Y-110877974D01*
X103711043Y-110850883D01*
X103712847Y-110815082D01*
X103712434Y-110769371D01*
X103712434Y-110769371D01*
G37*
X103712434Y-110769371D02*
X103712033Y-110729889D01*
X103709241Y-110614200D01*
X103700950Y-110517311D01*
X103686268Y-110435919D01*
X103664307Y-110366723D01*
X103634178Y-110306420D01*
X103594990Y-110251708D01*
X103577968Y-110232167D01*
X103538137Y-110199750D01*
X103484087Y-110170520D01*
X103424177Y-110147991D01*
X103366761Y-110135679D01*
X103345544Y-110134400D01*
X103286731Y-110142417D01*
X103222487Y-110163899D01*
X103161679Y-110194999D01*
X103113170Y-110231866D01*
X103107318Y-110237854D01*
X103066179Y-110288579D01*
X103034065Y-110344125D01*
X103010135Y-110407696D01*
X102993547Y-110482494D01*
X102983459Y-110571722D01*
X102979031Y-110678582D01*
X102978655Y-110727528D01*
X102978955Y-110789762D01*
X102980208Y-110833528D01*
X102982946Y-110862931D01*
X102987699Y-110882079D01*
X102994999Y-110895077D01*
X103001233Y-110902045D01*
X103008806Y-110908626D01*
X103018576Y-110913788D01*
X103033160Y-110917703D01*
X103055174Y-110920543D01*
X103087236Y-110922480D01*
X103131964Y-110923684D01*
X103191974Y-110924328D01*
X103269883Y-110924583D01*
X103345544Y-110924622D01*
X103446459Y-110924870D01*
X103527073Y-110924817D01*
X103565678Y-110923857D01*
X103565678Y-110777867D01*
X103125411Y-110777867D01*
X103125496Y-110684734D01*
X103127104Y-110628693D01*
X103131244Y-110569999D01*
X103137036Y-110521028D01*
X103137274Y-110519538D01*
X103156410Y-110440392D01*
X103186213Y-110379002D01*
X103228622Y-110332305D01*
X103274539Y-110302635D01*
X103325474Y-110284353D01*
X103373300Y-110285771D01*
X103424567Y-110306988D01*
X103477601Y-110348489D01*
X103516900Y-110405998D01*
X103543169Y-110480750D01*
X103552465Y-110530708D01*
X103558993Y-110587416D01*
X103563718Y-110647519D01*
X103565683Y-110698639D01*
X103565692Y-110701667D01*
X103565678Y-110777867D01*
X103565678Y-110923857D01*
X103589649Y-110923260D01*
X103636445Y-110918998D01*
X103669722Y-110910830D01*
X103691741Y-110897556D01*
X103704761Y-110877974D01*
X103711043Y-110850883D01*
X103712847Y-110815082D01*
X103712434Y-110769371D01*
G36*
X103712354Y-109360794D02*
X103711982Y-109291386D01*
X103711115Y-109238997D01*
X103709554Y-109200847D01*
X103707097Y-109174159D01*
X103703543Y-109156153D01*
X103698690Y-109144049D01*
X103692339Y-109135069D01*
X103689416Y-109131818D01*
X103658358Y-109112043D01*
X103622672Y-109108482D01*
X103590990Y-109121491D01*
X103584587Y-109127506D01*
X103578379Y-109137235D01*
X103573590Y-109152901D01*
X103569986Y-109177408D01*
X103567336Y-109213661D01*
X103565405Y-109264565D01*
X103563961Y-109333026D01*
X103563082Y-109395617D01*
X103560033Y-109643334D01*
X103495122Y-109646719D01*
X103430211Y-109650105D01*
X103430211Y-109481958D01*
X103429581Y-109408959D01*
X103426947Y-109355517D01*
X103421191Y-109318628D01*
X103411196Y-109295288D01*
X103395844Y-109282494D01*
X103374018Y-109277242D01*
X103353762Y-109276445D01*
X103328908Y-109278923D01*
X103310594Y-109288277D01*
X103297863Y-109307383D01*
X103289759Y-109339118D01*
X103285324Y-109386359D01*
X103283601Y-109451983D01*
X103283455Y-109487801D01*
X103283455Y-109648978D01*
X103125411Y-109648978D01*
X103125411Y-109400622D01*
X103125298Y-109319213D01*
X103124788Y-109257342D01*
X103123630Y-109211968D01*
X103121570Y-109180054D01*
X103118354Y-109158559D01*
X103113728Y-109144443D01*
X103107441Y-109134668D01*
X103102833Y-109129689D01*
X103075940Y-109112610D01*
X103052033Y-109107111D01*
X103022833Y-109114963D01*
X103001233Y-109129689D01*
X102994434Y-109137546D01*
X102989154Y-109147688D01*
X102985202Y-109162844D01*
X102982387Y-109185741D01*
X102980518Y-109219109D01*
X102979402Y-109265675D01*
X102978849Y-109328167D01*
X102978667Y-109409314D01*
X102978655Y-109451422D01*
X102978735Y-109541598D01*
X102979102Y-109611924D01*
X102979948Y-109665129D01*
X102981464Y-109703940D01*
X102983841Y-109731087D01*
X102987271Y-109749298D01*
X102991946Y-109761300D01*
X102998056Y-109769822D01*
X103001233Y-109773156D01*
X103008830Y-109779755D01*
X103018630Y-109784927D01*
X103033261Y-109788846D01*
X103055348Y-109791684D01*
X103087518Y-109793615D01*
X103132397Y-109794812D01*
X103192611Y-109795448D01*
X103270787Y-109795697D01*
X103343577Y-109795734D01*
X103436793Y-109795700D01*
X103510069Y-109795465D01*
X103566042Y-109794830D01*
X103607349Y-109793594D01*
X103636628Y-109791556D01*
X103656516Y-109788517D01*
X103669650Y-109784277D01*
X103678668Y-109778635D01*
X103686207Y-109771391D01*
X103687888Y-109769606D01*
X103695328Y-109760945D01*
X103701091Y-109750882D01*
X103705388Y-109736625D01*
X103708436Y-109715383D01*
X103710449Y-109684364D01*
X103711640Y-109640777D01*
X103712225Y-109581831D01*
X103712417Y-109504734D01*
X103712433Y-109450001D01*
X103712354Y-109360794D01*
X103712354Y-109360794D01*
G37*
X103712354Y-109360794D02*
X103711982Y-109291386D01*
X103711115Y-109238997D01*
X103709554Y-109200847D01*
X103707097Y-109174159D01*
X103703543Y-109156153D01*
X103698690Y-109144049D01*
X103692339Y-109135069D01*
X103689416Y-109131818D01*
X103658358Y-109112043D01*
X103622672Y-109108482D01*
X103590990Y-109121491D01*
X103584587Y-109127506D01*
X103578379Y-109137235D01*
X103573590Y-109152901D01*
X103569986Y-109177408D01*
X103567336Y-109213661D01*
X103565405Y-109264565D01*
X103563961Y-109333026D01*
X103563082Y-109395617D01*
X103560033Y-109643334D01*
X103495122Y-109646719D01*
X103430211Y-109650105D01*
X103430211Y-109481958D01*
X103429581Y-109408959D01*
X103426947Y-109355517D01*
X103421191Y-109318628D01*
X103411196Y-109295288D01*
X103395844Y-109282494D01*
X103374018Y-109277242D01*
X103353762Y-109276445D01*
X103328908Y-109278923D01*
X103310594Y-109288277D01*
X103297863Y-109307383D01*
X103289759Y-109339118D01*
X103285324Y-109386359D01*
X103283601Y-109451983D01*
X103283455Y-109487801D01*
X103283455Y-109648978D01*
X103125411Y-109648978D01*
X103125411Y-109400622D01*
X103125298Y-109319213D01*
X103124788Y-109257342D01*
X103123630Y-109211968D01*
X103121570Y-109180054D01*
X103118354Y-109158559D01*
X103113728Y-109144443D01*
X103107441Y-109134668D01*
X103102833Y-109129689D01*
X103075940Y-109112610D01*
X103052033Y-109107111D01*
X103022833Y-109114963D01*
X103001233Y-109129689D01*
X102994434Y-109137546D01*
X102989154Y-109147688D01*
X102985202Y-109162844D01*
X102982387Y-109185741D01*
X102980518Y-109219109D01*
X102979402Y-109265675D01*
X102978849Y-109328167D01*
X102978667Y-109409314D01*
X102978655Y-109451422D01*
X102978735Y-109541598D01*
X102979102Y-109611924D01*
X102979948Y-109665129D01*
X102981464Y-109703940D01*
X102983841Y-109731087D01*
X102987271Y-109749298D01*
X102991946Y-109761300D01*
X102998056Y-109769822D01*
X103001233Y-109773156D01*
X103008830Y-109779755D01*
X103018630Y-109784927D01*
X103033261Y-109788846D01*
X103055348Y-109791684D01*
X103087518Y-109793615D01*
X103132397Y-109794812D01*
X103192611Y-109795448D01*
X103270787Y-109795697D01*
X103343577Y-109795734D01*
X103436793Y-109795700D01*
X103510069Y-109795465D01*
X103566042Y-109794830D01*
X103607349Y-109793594D01*
X103636628Y-109791556D01*
X103656516Y-109788517D01*
X103669650Y-109784277D01*
X103678668Y-109778635D01*
X103686207Y-109771391D01*
X103687888Y-109769606D01*
X103695328Y-109760945D01*
X103701091Y-109750882D01*
X103705388Y-109736625D01*
X103708436Y-109715383D01*
X103710449Y-109684364D01*
X103711640Y-109640777D01*
X103712225Y-109581831D01*
X103712417Y-109504734D01*
X103712433Y-109450001D01*
X103712354Y-109360794D01*
G36*
X103711149Y-108339703D02*
X103705919Y-108264888D01*
X103697750Y-108195306D01*
X103686950Y-108135002D01*
X103673827Y-108088020D01*
X103658687Y-108058406D01*
X103654231Y-108053860D01*
X103619650Y-108038054D01*
X103584149Y-108042847D01*
X103553775Y-108067364D01*
X103552904Y-108068534D01*
X103543546Y-108082954D01*
X103538624Y-108098008D01*
X103538027Y-108119005D01*
X103541639Y-108151257D01*
X103549346Y-108200073D01*
X103549995Y-108204000D01*
X103558931Y-108276739D01*
X103563339Y-108355217D01*
X103563381Y-108433927D01*
X103559221Y-108507361D01*
X103551021Y-108570011D01*
X103538943Y-108616370D01*
X103537729Y-108619416D01*
X103518885Y-108653048D01*
X103499815Y-108664864D01*
X103481061Y-108655614D01*
X103463163Y-108626047D01*
X103446663Y-108576911D01*
X103432104Y-108508957D01*
X103425094Y-108463645D01*
X103411611Y-108369456D01*
X103399286Y-108294544D01*
X103387051Y-108235717D01*
X103373839Y-108189785D01*
X103358583Y-108153555D01*
X103340215Y-108123838D01*
X103317669Y-108097442D01*
X103295529Y-108076230D01*
X103264681Y-108051065D01*
X103238155Y-108038681D01*
X103205474Y-108034808D01*
X103193505Y-108034667D01*
X103153788Y-108037576D01*
X103124241Y-108049202D01*
X103098014Y-108069323D01*
X103057924Y-108110216D01*
X103027351Y-108155817D01*
X103005297Y-108209513D01*
X102990765Y-108274692D01*
X102982759Y-108354744D01*
X102980282Y-108453057D01*
X102980323Y-108469289D01*
X102981682Y-108534849D01*
X102984770Y-108599866D01*
X102989144Y-108657252D01*
X102994360Y-108699922D01*
X102994959Y-108703372D01*
X103005009Y-108745796D01*
X103017704Y-108781780D01*
X103029310Y-108802150D01*
X103059928Y-108821107D01*
X103095582Y-108822427D01*
X103127356Y-108806085D01*
X103130949Y-108802429D01*
X103141624Y-108787315D01*
X103146224Y-108768415D01*
X103145441Y-108739162D01*
X103141373Y-108703651D01*
X103137738Y-108663970D01*
X103134672Y-108608345D01*
X103132447Y-108543406D01*
X103131336Y-108475785D01*
X103131263Y-108458000D01*
X103131536Y-108390128D01*
X103132854Y-108340454D01*
X103135673Y-108304610D01*
X103140450Y-108278224D01*
X103147643Y-108256926D01*
X103153633Y-108244126D01*
X103170267Y-108216000D01*
X103185332Y-108198068D01*
X103189603Y-108195447D01*
X103207237Y-108200976D01*
X103224308Y-108227260D01*
X103240042Y-108272478D01*
X103253662Y-108334808D01*
X103256696Y-108353171D01*
X103271762Y-108449090D01*
X103284354Y-108525641D01*
X103295389Y-108585780D01*
X103305780Y-108632460D01*
X103316444Y-108668637D01*
X103328295Y-108697265D01*
X103342249Y-108721298D01*
X103359219Y-108743692D01*
X103380122Y-108767402D01*
X103387451Y-108775380D01*
X103414801Y-108803353D01*
X103436471Y-108818160D01*
X103461268Y-108823952D01*
X103492517Y-108824889D01*
X103553795Y-108814575D01*
X103605860Y-108783752D01*
X103648542Y-108732595D01*
X103681675Y-108661283D01*
X103696536Y-108610400D01*
X103706134Y-108555100D01*
X103711564Y-108488853D01*
X103713133Y-108415706D01*
X103711149Y-108339703D01*
X103711149Y-108339703D01*
G37*
X103711149Y-108339703D02*
X103705919Y-108264888D01*
X103697750Y-108195306D01*
X103686950Y-108135002D01*
X103673827Y-108088020D01*
X103658687Y-108058406D01*
X103654231Y-108053860D01*
X103619650Y-108038054D01*
X103584149Y-108042847D01*
X103553775Y-108067364D01*
X103552904Y-108068534D01*
X103543546Y-108082954D01*
X103538624Y-108098008D01*
X103538027Y-108119005D01*
X103541639Y-108151257D01*
X103549346Y-108200073D01*
X103549995Y-108204000D01*
X103558931Y-108276739D01*
X103563339Y-108355217D01*
X103563381Y-108433927D01*
X103559221Y-108507361D01*
X103551021Y-108570011D01*
X103538943Y-108616370D01*
X103537729Y-108619416D01*
X103518885Y-108653048D01*
X103499815Y-108664864D01*
X103481061Y-108655614D01*
X103463163Y-108626047D01*
X103446663Y-108576911D01*
X103432104Y-108508957D01*
X103425094Y-108463645D01*
X103411611Y-108369456D01*
X103399286Y-108294544D01*
X103387051Y-108235717D01*
X103373839Y-108189785D01*
X103358583Y-108153555D01*
X103340215Y-108123838D01*
X103317669Y-108097442D01*
X103295529Y-108076230D01*
X103264681Y-108051065D01*
X103238155Y-108038681D01*
X103205474Y-108034808D01*
X103193505Y-108034667D01*
X103153788Y-108037576D01*
X103124241Y-108049202D01*
X103098014Y-108069323D01*
X103057924Y-108110216D01*
X103027351Y-108155817D01*
X103005297Y-108209513D01*
X102990765Y-108274692D01*
X102982759Y-108354744D01*
X102980282Y-108453057D01*
X102980323Y-108469289D01*
X102981682Y-108534849D01*
X102984770Y-108599866D01*
X102989144Y-108657252D01*
X102994360Y-108699922D01*
X102994959Y-108703372D01*
X103005009Y-108745796D01*
X103017704Y-108781780D01*
X103029310Y-108802150D01*
X103059928Y-108821107D01*
X103095582Y-108822427D01*
X103127356Y-108806085D01*
X103130949Y-108802429D01*
X103141624Y-108787315D01*
X103146224Y-108768415D01*
X103145441Y-108739162D01*
X103141373Y-108703651D01*
X103137738Y-108663970D01*
X103134672Y-108608345D01*
X103132447Y-108543406D01*
X103131336Y-108475785D01*
X103131263Y-108458000D01*
X103131536Y-108390128D01*
X103132854Y-108340454D01*
X103135673Y-108304610D01*
X103140450Y-108278224D01*
X103147643Y-108256926D01*
X103153633Y-108244126D01*
X103170267Y-108216000D01*
X103185332Y-108198068D01*
X103189603Y-108195447D01*
X103207237Y-108200976D01*
X103224308Y-108227260D01*
X103240042Y-108272478D01*
X103253662Y-108334808D01*
X103256696Y-108353171D01*
X103271762Y-108449090D01*
X103284354Y-108525641D01*
X103295389Y-108585780D01*
X103305780Y-108632460D01*
X103316444Y-108668637D01*
X103328295Y-108697265D01*
X103342249Y-108721298D01*
X103359219Y-108743692D01*
X103380122Y-108767402D01*
X103387451Y-108775380D01*
X103414801Y-108803353D01*
X103436471Y-108818160D01*
X103461268Y-108823952D01*
X103492517Y-108824889D01*
X103553795Y-108814575D01*
X103605860Y-108783752D01*
X103648542Y-108732595D01*
X103681675Y-108661283D01*
X103696536Y-108610400D01*
X103706134Y-108555100D01*
X103711564Y-108488853D01*
X103713133Y-108415706D01*
X103711149Y-108339703D01*
G36*
X103689855Y-107571822D02*
X103682282Y-107565242D01*
X103672513Y-107560079D01*
X103657929Y-107556164D01*
X103635915Y-107553324D01*
X103603852Y-107551387D01*
X103559125Y-107550183D01*
X103499115Y-107549539D01*
X103421206Y-107549284D01*
X103345544Y-107549245D01*
X103251698Y-107549314D01*
X103177811Y-107549638D01*
X103121268Y-107550386D01*
X103079451Y-107551732D01*
X103049743Y-107553846D01*
X103029527Y-107556900D01*
X103016186Y-107561066D01*
X103007102Y-107566516D01*
X103001233Y-107571822D01*
X102981553Y-107604826D01*
X102983319Y-107639991D01*
X103004783Y-107671455D01*
X103013163Y-107678684D01*
X103022886Y-107684334D01*
X103036639Y-107688599D01*
X103057111Y-107691673D01*
X103086988Y-107693752D01*
X103128959Y-107695030D01*
X103185711Y-107695701D01*
X103259933Y-107695959D01*
X103343963Y-107696000D01*
X103657015Y-107696000D01*
X103684724Y-107668291D01*
X103708037Y-107634137D01*
X103708877Y-107601006D01*
X103689855Y-107571822D01*
X103689855Y-107571822D01*
G37*
X103689855Y-107571822D02*
X103682282Y-107565242D01*
X103672513Y-107560079D01*
X103657929Y-107556164D01*
X103635915Y-107553324D01*
X103603852Y-107551387D01*
X103559125Y-107550183D01*
X103499115Y-107549539D01*
X103421206Y-107549284D01*
X103345544Y-107549245D01*
X103251698Y-107549314D01*
X103177811Y-107549638D01*
X103121268Y-107550386D01*
X103079451Y-107551732D01*
X103049743Y-107553846D01*
X103029527Y-107556900D01*
X103016186Y-107561066D01*
X103007102Y-107566516D01*
X103001233Y-107571822D01*
X102981553Y-107604826D01*
X102983319Y-107639991D01*
X103004783Y-107671455D01*
X103013163Y-107678684D01*
X103022886Y-107684334D01*
X103036639Y-107688599D01*
X103057111Y-107691673D01*
X103086988Y-107693752D01*
X103128959Y-107695030D01*
X103185711Y-107695701D01*
X103259933Y-107695959D01*
X103343963Y-107696000D01*
X103657015Y-107696000D01*
X103684724Y-107668291D01*
X103708037Y-107634137D01*
X103708877Y-107601006D01*
X103689855Y-107571822D01*
G36*
X103706901Y-106598081D02*
X103695405Y-106529565D01*
X103677533Y-106476943D01*
X103654001Y-106442708D01*
X103640576Y-106433379D01*
X103609352Y-106423893D01*
X103581105Y-106430277D01*
X103554318Y-106450430D01*
X103541787Y-106481745D01*
X103542804Y-106527183D01*
X103549594Y-106562326D01*
X103562529Y-106640419D01*
X103563758Y-106720226D01*
X103553259Y-106809555D01*
X103548810Y-106834229D01*
X103525392Y-106917291D01*
X103490555Y-106982273D01*
X103444896Y-107028461D01*
X103389006Y-107055145D01*
X103360112Y-107060663D01*
X103301488Y-107057051D01*
X103249621Y-107033729D01*
X103205522Y-106992824D01*
X103170201Y-106936459D01*
X103144671Y-106866760D01*
X103129941Y-106785852D01*
X103127022Y-106695860D01*
X103136925Y-106598910D01*
X103137859Y-106593436D01*
X103145041Y-106554875D01*
X103151979Y-106533494D01*
X103162273Y-106524227D01*
X103179524Y-106522006D01*
X103188659Y-106521956D01*
X103227011Y-106521956D01*
X103227011Y-106590431D01*
X103231153Y-106650900D01*
X103244353Y-106692165D01*
X103267770Y-106716175D01*
X103302564Y-106724877D01*
X103307106Y-106724983D01*
X103336846Y-106719892D01*
X103358081Y-106702433D01*
X103372134Y-106669939D01*
X103380327Y-106619743D01*
X103383339Y-106571123D01*
X103385067Y-106500456D01*
X103382430Y-106449198D01*
X103372700Y-106414239D01*
X103353147Y-106392470D01*
X103321044Y-106380780D01*
X103273662Y-106376060D01*
X103211429Y-106375200D01*
X103141965Y-106376609D01*
X103094714Y-106380848D01*
X103069488Y-106387936D01*
X103067512Y-106389311D01*
X103035992Y-106428228D01*
X103011030Y-106485286D01*
X102993160Y-106556869D01*
X102982914Y-106639358D01*
X102980827Y-106729139D01*
X102987432Y-106822592D01*
X102995544Y-106877556D01*
X103019946Y-106963766D01*
X103059838Y-107043892D01*
X103111613Y-107110977D01*
X103121961Y-107121173D01*
X103165465Y-107154302D01*
X103219382Y-107184194D01*
X103275908Y-107207357D01*
X103327241Y-107220298D01*
X103346956Y-107221858D01*
X103388081Y-107215218D01*
X103439248Y-107197568D01*
X103493106Y-107172297D01*
X103542305Y-107142789D01*
X103575166Y-107116719D01*
X103624048Y-107055765D01*
X103662955Y-106976969D01*
X103691006Y-106883157D01*
X103707321Y-106777150D01*
X103711308Y-106680000D01*
X103706901Y-106598081D01*
X103706901Y-106598081D01*
G37*
X103706901Y-106598081D02*
X103695405Y-106529565D01*
X103677533Y-106476943D01*
X103654001Y-106442708D01*
X103640576Y-106433379D01*
X103609352Y-106423893D01*
X103581105Y-106430277D01*
X103554318Y-106450430D01*
X103541787Y-106481745D01*
X103542804Y-106527183D01*
X103549594Y-106562326D01*
X103562529Y-106640419D01*
X103563758Y-106720226D01*
X103553259Y-106809555D01*
X103548810Y-106834229D01*
X103525392Y-106917291D01*
X103490555Y-106982273D01*
X103444896Y-107028461D01*
X103389006Y-107055145D01*
X103360112Y-107060663D01*
X103301488Y-107057051D01*
X103249621Y-107033729D01*
X103205522Y-106992824D01*
X103170201Y-106936459D01*
X103144671Y-106866760D01*
X103129941Y-106785852D01*
X103127022Y-106695860D01*
X103136925Y-106598910D01*
X103137859Y-106593436D01*
X103145041Y-106554875D01*
X103151979Y-106533494D01*
X103162273Y-106524227D01*
X103179524Y-106522006D01*
X103188659Y-106521956D01*
X103227011Y-106521956D01*
X103227011Y-106590431D01*
X103231153Y-106650900D01*
X103244353Y-106692165D01*
X103267770Y-106716175D01*
X103302564Y-106724877D01*
X103307106Y-106724983D01*
X103336846Y-106719892D01*
X103358081Y-106702433D01*
X103372134Y-106669939D01*
X103380327Y-106619743D01*
X103383339Y-106571123D01*
X103385067Y-106500456D01*
X103382430Y-106449198D01*
X103372700Y-106414239D01*
X103353147Y-106392470D01*
X103321044Y-106380780D01*
X103273662Y-106376060D01*
X103211429Y-106375200D01*
X103141965Y-106376609D01*
X103094714Y-106380848D01*
X103069488Y-106387936D01*
X103067512Y-106389311D01*
X103035992Y-106428228D01*
X103011030Y-106485286D01*
X102993160Y-106556869D01*
X102982914Y-106639358D01*
X102980827Y-106729139D01*
X102987432Y-106822592D01*
X102995544Y-106877556D01*
X103019946Y-106963766D01*
X103059838Y-107043892D01*
X103111613Y-107110977D01*
X103121961Y-107121173D01*
X103165465Y-107154302D01*
X103219382Y-107184194D01*
X103275908Y-107207357D01*
X103327241Y-107220298D01*
X103346956Y-107221858D01*
X103388081Y-107215218D01*
X103439248Y-107197568D01*
X103493106Y-107172297D01*
X103542305Y-107142789D01*
X103575166Y-107116719D01*
X103624048Y-107055765D01*
X103662955Y-106976969D01*
X103691006Y-106883157D01*
X103707321Y-106777150D01*
X103711308Y-106680000D01*
X103706901Y-106598081D01*
G36*
X103708052Y-105948114D02*
X103694227Y-105924548D01*
X103671619Y-105893735D01*
X103639162Y-105854078D01*
X103595792Y-105803980D01*
X103540442Y-105741843D01*
X103472049Y-105666072D01*
X103393416Y-105579334D01*
X103229622Y-105398711D01*
X103449471Y-105393067D01*
X103525149Y-105391029D01*
X103581506Y-105389063D01*
X103621794Y-105386734D01*
X103649265Y-105383606D01*
X103667171Y-105379245D01*
X103678763Y-105373216D01*
X103687292Y-105365084D01*
X103690877Y-105360772D01*
X103709830Y-105326241D01*
X103707059Y-105293383D01*
X103690867Y-105267318D01*
X103669301Y-105240667D01*
X103354349Y-105237352D01*
X103261721Y-105236435D01*
X103188956Y-105235968D01*
X103133339Y-105236113D01*
X103092158Y-105237032D01*
X103062697Y-105238887D01*
X103042245Y-105241839D01*
X103028087Y-105246050D01*
X103017509Y-105251682D01*
X103009026Y-105257927D01*
X102993293Y-105271439D01*
X102982864Y-105284883D01*
X102978861Y-105300124D01*
X102982406Y-105319026D01*
X102994621Y-105343455D01*
X103016629Y-105375273D01*
X103049551Y-105416348D01*
X103094509Y-105468542D01*
X103152625Y-105533722D01*
X103219401Y-105607556D01*
X103460042Y-105872845D01*
X103240911Y-105878489D01*
X103165372Y-105880531D01*
X103109146Y-105882502D01*
X103068976Y-105884839D01*
X103041604Y-105887981D01*
X103023772Y-105892364D01*
X103012221Y-105898424D01*
X103003693Y-105906600D01*
X103000218Y-105910784D01*
X102981128Y-105947765D01*
X102984007Y-105982708D01*
X103008400Y-106013136D01*
X103018214Y-106020097D01*
X103029674Y-106025523D01*
X103045532Y-106029603D01*
X103068537Y-106032529D01*
X103101438Y-106034492D01*
X103146984Y-106035683D01*
X103207927Y-106036292D01*
X103287014Y-106036511D01*
X103345544Y-106036534D01*
X103437093Y-106036460D01*
X103508813Y-106036113D01*
X103563455Y-106035301D01*
X103603768Y-106033833D01*
X103632502Y-106031519D01*
X103652407Y-106028167D01*
X103666232Y-106023588D01*
X103676728Y-106017589D01*
X103682689Y-106013136D01*
X103696809Y-106001850D01*
X103707471Y-105991301D01*
X103713608Y-105979893D01*
X103714157Y-105966030D01*
X103708052Y-105948114D01*
X103708052Y-105948114D01*
G37*
X103708052Y-105948114D02*
X103694227Y-105924548D01*
X103671619Y-105893735D01*
X103639162Y-105854078D01*
X103595792Y-105803980D01*
X103540442Y-105741843D01*
X103472049Y-105666072D01*
X103393416Y-105579334D01*
X103229622Y-105398711D01*
X103449471Y-105393067D01*
X103525149Y-105391029D01*
X103581506Y-105389063D01*
X103621794Y-105386734D01*
X103649265Y-105383606D01*
X103667171Y-105379245D01*
X103678763Y-105373216D01*
X103687292Y-105365084D01*
X103690877Y-105360772D01*
X103709830Y-105326241D01*
X103707059Y-105293383D01*
X103690867Y-105267318D01*
X103669301Y-105240667D01*
X103354349Y-105237352D01*
X103261721Y-105236435D01*
X103188956Y-105235968D01*
X103133339Y-105236113D01*
X103092158Y-105237032D01*
X103062697Y-105238887D01*
X103042245Y-105241839D01*
X103028087Y-105246050D01*
X103017509Y-105251682D01*
X103009026Y-105257927D01*
X102993293Y-105271439D01*
X102982864Y-105284883D01*
X102978861Y-105300124D01*
X102982406Y-105319026D01*
X102994621Y-105343455D01*
X103016629Y-105375273D01*
X103049551Y-105416348D01*
X103094509Y-105468542D01*
X103152625Y-105533722D01*
X103219401Y-105607556D01*
X103460042Y-105872845D01*
X103240911Y-105878489D01*
X103165372Y-105880531D01*
X103109146Y-105882502D01*
X103068976Y-105884839D01*
X103041604Y-105887981D01*
X103023772Y-105892364D01*
X103012221Y-105898424D01*
X103003693Y-105906600D01*
X103000218Y-105910784D01*
X102981128Y-105947765D01*
X102984007Y-105982708D01*
X103008400Y-106013136D01*
X103018214Y-106020097D01*
X103029674Y-106025523D01*
X103045532Y-106029603D01*
X103068537Y-106032529D01*
X103101438Y-106034492D01*
X103146984Y-106035683D01*
X103207927Y-106036292D01*
X103287014Y-106036511D01*
X103345544Y-106036534D01*
X103437093Y-106036460D01*
X103508813Y-106036113D01*
X103563455Y-106035301D01*
X103603768Y-106033833D01*
X103632502Y-106031519D01*
X103652407Y-106028167D01*
X103666232Y-106023588D01*
X103676728Y-106017589D01*
X103682689Y-106013136D01*
X103696809Y-106001850D01*
X103707471Y-105991301D01*
X103713608Y-105979893D01*
X103714157Y-105966030D01*
X103708052Y-105948114D01*
G36*
X103712240Y-104417657D02*
X103711326Y-104341299D01*
X103709189Y-104282783D01*
X103705325Y-104239745D01*
X103699233Y-104209817D01*
X103690410Y-104190632D01*
X103678354Y-104179824D01*
X103662561Y-104175027D01*
X103642530Y-104173873D01*
X103640165Y-104173867D01*
X103617508Y-104174869D01*
X103599997Y-104179604D01*
X103586926Y-104190667D01*
X103577587Y-104210652D01*
X103571273Y-104242154D01*
X103567278Y-104287768D01*
X103564894Y-104350087D01*
X103563414Y-104431707D01*
X103563086Y-104456723D01*
X103560033Y-104698800D01*
X103495122Y-104702186D01*
X103430211Y-104705571D01*
X103430211Y-104537424D01*
X103429969Y-104471734D01*
X103428944Y-104424828D01*
X103426689Y-104392917D01*
X103422758Y-104372209D01*
X103416702Y-104358916D01*
X103408076Y-104349245D01*
X103408007Y-104349183D01*
X103374388Y-104331644D01*
X103338052Y-104332278D01*
X103307077Y-104350686D01*
X103303893Y-104354329D01*
X103295688Y-104367259D01*
X103289979Y-104384976D01*
X103286338Y-104411430D01*
X103284333Y-104450568D01*
X103283536Y-104506338D01*
X103283455Y-104542006D01*
X103283455Y-104704445D01*
X103125411Y-104704445D01*
X103125411Y-104457839D01*
X103125269Y-104376420D01*
X103124686Y-104314590D01*
X103123432Y-104269363D01*
X103121273Y-104237752D01*
X103117977Y-104216769D01*
X103113311Y-104203427D01*
X103107043Y-104194739D01*
X103104767Y-104192550D01*
X103073220Y-104176386D01*
X103037332Y-104175203D01*
X103006215Y-104188464D01*
X102996229Y-104198957D01*
X102990731Y-104209871D01*
X102986478Y-104226783D01*
X102983320Y-104252367D01*
X102981108Y-104289299D01*
X102979694Y-104340254D01*
X102978928Y-104407906D01*
X102978662Y-104494931D01*
X102978655Y-104514606D01*
X102978713Y-104603089D01*
X102979033Y-104671773D01*
X102979833Y-104723436D01*
X102981333Y-104760855D01*
X102983751Y-104786810D01*
X102987306Y-104804078D01*
X102992218Y-104815438D01*
X102998705Y-104823668D01*
X103003362Y-104828183D01*
X103011611Y-104834979D01*
X103021831Y-104840288D01*
X103036700Y-104844294D01*
X103058898Y-104847179D01*
X103091107Y-104849126D01*
X103136004Y-104850319D01*
X103196272Y-104850939D01*
X103274589Y-104851171D01*
X103340506Y-104851200D01*
X103432872Y-104851129D01*
X103505383Y-104850792D01*
X103560763Y-104850002D01*
X103601735Y-104848574D01*
X103631022Y-104846321D01*
X103651347Y-104843057D01*
X103665434Y-104838596D01*
X103676005Y-104832752D01*
X103682689Y-104827803D01*
X103712433Y-104804406D01*
X103712433Y-104514226D01*
X103712240Y-104417657D01*
X103712240Y-104417657D01*
G37*
X103712240Y-104417657D02*
X103711326Y-104341299D01*
X103709189Y-104282783D01*
X103705325Y-104239745D01*
X103699233Y-104209817D01*
X103690410Y-104190632D01*
X103678354Y-104179824D01*
X103662561Y-104175027D01*
X103642530Y-104173873D01*
X103640165Y-104173867D01*
X103617508Y-104174869D01*
X103599997Y-104179604D01*
X103586926Y-104190667D01*
X103577587Y-104210652D01*
X103571273Y-104242154D01*
X103567278Y-104287768D01*
X103564894Y-104350087D01*
X103563414Y-104431707D01*
X103563086Y-104456723D01*
X103560033Y-104698800D01*
X103495122Y-104702186D01*
X103430211Y-104705571D01*
X103430211Y-104537424D01*
X103429969Y-104471734D01*
X103428944Y-104424828D01*
X103426689Y-104392917D01*
X103422758Y-104372209D01*
X103416702Y-104358916D01*
X103408076Y-104349245D01*
X103408007Y-104349183D01*
X103374388Y-104331644D01*
X103338052Y-104332278D01*
X103307077Y-104350686D01*
X103303893Y-104354329D01*
X103295688Y-104367259D01*
X103289979Y-104384976D01*
X103286338Y-104411430D01*
X103284333Y-104450568D01*
X103283536Y-104506338D01*
X103283455Y-104542006D01*
X103283455Y-104704445D01*
X103125411Y-104704445D01*
X103125411Y-104457839D01*
X103125269Y-104376420D01*
X103124686Y-104314590D01*
X103123432Y-104269363D01*
X103121273Y-104237752D01*
X103117977Y-104216769D01*
X103113311Y-104203427D01*
X103107043Y-104194739D01*
X103104767Y-104192550D01*
X103073220Y-104176386D01*
X103037332Y-104175203D01*
X103006215Y-104188464D01*
X102996229Y-104198957D01*
X102990731Y-104209871D01*
X102986478Y-104226783D01*
X102983320Y-104252367D01*
X102981108Y-104289299D01*
X102979694Y-104340254D01*
X102978928Y-104407906D01*
X102978662Y-104494931D01*
X102978655Y-104514606D01*
X102978713Y-104603089D01*
X102979033Y-104671773D01*
X102979833Y-104723436D01*
X102981333Y-104760855D01*
X102983751Y-104786810D01*
X102987306Y-104804078D01*
X102992218Y-104815438D01*
X102998705Y-104823668D01*
X103003362Y-104828183D01*
X103011611Y-104834979D01*
X103021831Y-104840288D01*
X103036700Y-104844294D01*
X103058898Y-104847179D01*
X103091107Y-104849126D01*
X103136004Y-104850319D01*
X103196272Y-104850939D01*
X103274589Y-104851171D01*
X103340506Y-104851200D01*
X103432872Y-104851129D01*
X103505383Y-104850792D01*
X103560763Y-104850002D01*
X103601735Y-104848574D01*
X103631022Y-104846321D01*
X103651347Y-104843057D01*
X103665434Y-104838596D01*
X103676005Y-104832752D01*
X103682689Y-104827803D01*
X103712433Y-104804406D01*
X103712433Y-104514226D01*
X103712240Y-104417657D01*
G36*
X103712225Y-103629691D02*
X103707864Y-103500712D01*
X103694639Y-103391009D01*
X103671759Y-103298774D01*
X103638430Y-103222198D01*
X103593862Y-103159473D01*
X103537264Y-103108788D01*
X103467842Y-103068337D01*
X103466149Y-103067541D01*
X103404017Y-103043399D01*
X103348991Y-103034797D01*
X103293613Y-103041769D01*
X103230427Y-103064346D01*
X103220811Y-103068628D01*
X103164534Y-103097828D01*
X103121049Y-103130644D01*
X103084083Y-103172998D01*
X103047365Y-103230810D01*
X103045448Y-103234169D01*
X103021273Y-103284496D01*
X103003218Y-103341379D01*
X102990661Y-103408473D01*
X102982978Y-103489435D01*
X102979547Y-103587918D01*
X102979249Y-103622714D01*
X102978655Y-103788406D01*
X103008400Y-103811803D01*
X103018181Y-103818743D01*
X103029603Y-103824158D01*
X103045405Y-103828235D01*
X103068325Y-103831163D01*
X103101104Y-103833133D01*
X103125411Y-103833775D01*
X103125411Y-103677156D01*
X103125411Y-103583274D01*
X103127017Y-103528336D01*
X103131245Y-103471940D01*
X103137208Y-103425655D01*
X103137710Y-103422861D01*
X103159764Y-103340652D01*
X103192900Y-103276886D01*
X103238653Y-103229548D01*
X103298561Y-103196618D01*
X103314439Y-103190892D01*
X103339167Y-103185279D01*
X103363598Y-103187709D01*
X103396100Y-103199533D01*
X103412066Y-103206660D01*
X103454494Y-103230000D01*
X103484260Y-103258120D01*
X103504989Y-103289060D01*
X103531963Y-103351034D01*
X103551502Y-103430349D01*
X103562754Y-103522747D01*
X103565230Y-103589667D01*
X103565678Y-103677156D01*
X103125411Y-103677156D01*
X103125411Y-103833775D01*
X103146479Y-103834332D01*
X103207189Y-103834950D01*
X103285974Y-103835175D01*
X103347580Y-103835200D01*
X103657015Y-103835200D01*
X103684724Y-103807491D01*
X103695956Y-103795194D01*
X103703647Y-103781897D01*
X103708460Y-103763328D01*
X103711054Y-103735214D01*
X103712090Y-103693283D01*
X103712230Y-103633263D01*
X103712225Y-103629691D01*
X103712225Y-103629691D01*
G37*
X103712225Y-103629691D02*
X103707864Y-103500712D01*
X103694639Y-103391009D01*
X103671759Y-103298774D01*
X103638430Y-103222198D01*
X103593862Y-103159473D01*
X103537264Y-103108788D01*
X103467842Y-103068337D01*
X103466149Y-103067541D01*
X103404017Y-103043399D01*
X103348991Y-103034797D01*
X103293613Y-103041769D01*
X103230427Y-103064346D01*
X103220811Y-103068628D01*
X103164534Y-103097828D01*
X103121049Y-103130644D01*
X103084083Y-103172998D01*
X103047365Y-103230810D01*
X103045448Y-103234169D01*
X103021273Y-103284496D01*
X103003218Y-103341379D01*
X102990661Y-103408473D01*
X102982978Y-103489435D01*
X102979547Y-103587918D01*
X102979249Y-103622714D01*
X102978655Y-103788406D01*
X103008400Y-103811803D01*
X103018181Y-103818743D01*
X103029603Y-103824158D01*
X103045405Y-103828235D01*
X103068325Y-103831163D01*
X103101104Y-103833133D01*
X103125411Y-103833775D01*
X103125411Y-103677156D01*
X103125411Y-103583274D01*
X103127017Y-103528336D01*
X103131245Y-103471940D01*
X103137208Y-103425655D01*
X103137710Y-103422861D01*
X103159764Y-103340652D01*
X103192900Y-103276886D01*
X103238653Y-103229548D01*
X103298561Y-103196618D01*
X103314439Y-103190892D01*
X103339167Y-103185279D01*
X103363598Y-103187709D01*
X103396100Y-103199533D01*
X103412066Y-103206660D01*
X103454494Y-103230000D01*
X103484260Y-103258120D01*
X103504989Y-103289060D01*
X103531963Y-103351034D01*
X103551502Y-103430349D01*
X103562754Y-103522747D01*
X103565230Y-103589667D01*
X103565678Y-103677156D01*
X103125411Y-103677156D01*
X103125411Y-103833775D01*
X103146479Y-103834332D01*
X103207189Y-103834950D01*
X103285974Y-103835175D01*
X103347580Y-103835200D01*
X103657015Y-103835200D01*
X103684724Y-103807491D01*
X103695956Y-103795194D01*
X103703647Y-103781897D01*
X103708460Y-103763328D01*
X103711054Y-103735214D01*
X103712090Y-103693283D01*
X103712230Y-103633263D01*
X103712225Y-103629691D01*
G36*
X103710466Y-100903335D02*
X103703465Y-100883745D01*
X103703123Y-100882990D01*
X103682822Y-100856387D01*
X103661939Y-100841730D01*
X103652148Y-100838862D01*
X103639139Y-100839004D01*
X103620605Y-100843039D01*
X103594243Y-100851854D01*
X103557748Y-100866331D01*
X103508813Y-100887355D01*
X103445135Y-100915812D01*
X103364407Y-100952585D01*
X103320284Y-100972825D01*
X103241515Y-101009375D01*
X103169077Y-101043685D01*
X103105620Y-101074448D01*
X103053792Y-101100352D01*
X103016241Y-101120090D01*
X102995616Y-101132350D01*
X102992767Y-101134776D01*
X102980198Y-101165817D01*
X102981881Y-101200879D01*
X102997168Y-101229000D01*
X102998411Y-101230146D01*
X103015346Y-101241332D01*
X103048330Y-101260096D01*
X103093120Y-101284125D01*
X103145468Y-101311103D01*
X103164758Y-101320799D01*
X103311350Y-101393986D01*
X103152107Y-101473760D01*
X103097085Y-101502233D01*
X103049368Y-101528650D01*
X103012607Y-101550852D01*
X102990456Y-101566681D01*
X102985759Y-101572046D01*
X102979398Y-101613743D01*
X102992767Y-101648151D01*
X103007054Y-101658272D01*
X103038808Y-101675786D01*
X103084903Y-101699265D01*
X103142215Y-101727280D01*
X103207620Y-101758401D01*
X103277993Y-101791201D01*
X103350209Y-101824250D01*
X103421145Y-101856119D01*
X103487675Y-101885381D01*
X103546674Y-101910605D01*
X103595019Y-101930364D01*
X103629585Y-101943228D01*
X103647247Y-101947769D01*
X103647887Y-101947723D01*
X103670112Y-101936674D01*
X103692747Y-101914590D01*
X103693732Y-101913290D01*
X103709075Y-101886147D01*
X103708926Y-101861042D01*
X103706034Y-101851632D01*
X103699782Y-101840166D01*
X103687486Y-101827990D01*
X103666592Y-101813643D01*
X103634551Y-101795664D01*
X103588812Y-101772593D01*
X103526823Y-101742970D01*
X103469602Y-101716255D01*
X103403274Y-101685520D01*
X103343626Y-101657979D01*
X103293775Y-101635062D01*
X103256836Y-101618202D01*
X103235927Y-101608827D01*
X103232655Y-101607460D01*
X103238003Y-101601311D01*
X103260391Y-101587178D01*
X103296554Y-101566943D01*
X103343223Y-101542485D01*
X103362478Y-101532752D01*
X103427496Y-101499783D01*
X103474846Y-101474357D01*
X103507281Y-101454388D01*
X103527554Y-101437790D01*
X103538418Y-101422476D01*
X103542625Y-101406360D01*
X103543100Y-101395857D01*
X103541458Y-101377330D01*
X103534669Y-101361096D01*
X103519934Y-101344965D01*
X103494456Y-101326749D01*
X103455439Y-101304261D01*
X103400086Y-101275311D01*
X103368597Y-101259338D01*
X103318413Y-101233430D01*
X103276796Y-101210833D01*
X103247258Y-101193542D01*
X103233311Y-101183550D01*
X103232730Y-101182191D01*
X103243707Y-101175739D01*
X103272210Y-101161292D01*
X103315256Y-101140297D01*
X103369862Y-101114203D01*
X103433046Y-101084454D01*
X103464429Y-101069820D01*
X103545422Y-101031750D01*
X103607744Y-101001095D01*
X103653429Y-100976263D01*
X103684511Y-100955663D01*
X103703022Y-100937702D01*
X103710996Y-100920790D01*
X103710466Y-100903335D01*
X103710466Y-100903335D01*
G37*
X103710466Y-100903335D02*
X103703465Y-100883745D01*
X103703123Y-100882990D01*
X103682822Y-100856387D01*
X103661939Y-100841730D01*
X103652148Y-100838862D01*
X103639139Y-100839004D01*
X103620605Y-100843039D01*
X103594243Y-100851854D01*
X103557748Y-100866331D01*
X103508813Y-100887355D01*
X103445135Y-100915812D01*
X103364407Y-100952585D01*
X103320284Y-100972825D01*
X103241515Y-101009375D01*
X103169077Y-101043685D01*
X103105620Y-101074448D01*
X103053792Y-101100352D01*
X103016241Y-101120090D01*
X102995616Y-101132350D01*
X102992767Y-101134776D01*
X102980198Y-101165817D01*
X102981881Y-101200879D01*
X102997168Y-101229000D01*
X102998411Y-101230146D01*
X103015346Y-101241332D01*
X103048330Y-101260096D01*
X103093120Y-101284125D01*
X103145468Y-101311103D01*
X103164758Y-101320799D01*
X103311350Y-101393986D01*
X103152107Y-101473760D01*
X103097085Y-101502233D01*
X103049368Y-101528650D01*
X103012607Y-101550852D01*
X102990456Y-101566681D01*
X102985759Y-101572046D01*
X102979398Y-101613743D01*
X102992767Y-101648151D01*
X103007054Y-101658272D01*
X103038808Y-101675786D01*
X103084903Y-101699265D01*
X103142215Y-101727280D01*
X103207620Y-101758401D01*
X103277993Y-101791201D01*
X103350209Y-101824250D01*
X103421145Y-101856119D01*
X103487675Y-101885381D01*
X103546674Y-101910605D01*
X103595019Y-101930364D01*
X103629585Y-101943228D01*
X103647247Y-101947769D01*
X103647887Y-101947723D01*
X103670112Y-101936674D01*
X103692747Y-101914590D01*
X103693732Y-101913290D01*
X103709075Y-101886147D01*
X103708926Y-101861042D01*
X103706034Y-101851632D01*
X103699782Y-101840166D01*
X103687486Y-101827990D01*
X103666592Y-101813643D01*
X103634551Y-101795664D01*
X103588812Y-101772593D01*
X103526823Y-101742970D01*
X103469602Y-101716255D01*
X103403274Y-101685520D01*
X103343626Y-101657979D01*
X103293775Y-101635062D01*
X103256836Y-101618202D01*
X103235927Y-101608827D01*
X103232655Y-101607460D01*
X103238003Y-101601311D01*
X103260391Y-101587178D01*
X103296554Y-101566943D01*
X103343223Y-101542485D01*
X103362478Y-101532752D01*
X103427496Y-101499783D01*
X103474846Y-101474357D01*
X103507281Y-101454388D01*
X103527554Y-101437790D01*
X103538418Y-101422476D01*
X103542625Y-101406360D01*
X103543100Y-101395857D01*
X103541458Y-101377330D01*
X103534669Y-101361096D01*
X103519934Y-101344965D01*
X103494456Y-101326749D01*
X103455439Y-101304261D01*
X103400086Y-101275311D01*
X103368597Y-101259338D01*
X103318413Y-101233430D01*
X103276796Y-101210833D01*
X103247258Y-101193542D01*
X103233311Y-101183550D01*
X103232730Y-101182191D01*
X103243707Y-101175739D01*
X103272210Y-101161292D01*
X103315256Y-101140297D01*
X103369862Y-101114203D01*
X103433046Y-101084454D01*
X103464429Y-101069820D01*
X103545422Y-101031750D01*
X103607744Y-101001095D01*
X103653429Y-100976263D01*
X103684511Y-100955663D01*
X103703022Y-100937702D01*
X103710996Y-100920790D01*
X103710466Y-100903335D01*
G36*
X103705623Y-100459386D02*
X103690853Y-100435673D01*
X103669273Y-100409022D01*
X103347727Y-100409022D01*
X103253670Y-100409107D01*
X103179568Y-100409471D01*
X103122796Y-100410276D01*
X103080732Y-100411687D01*
X103050752Y-100413867D01*
X103030233Y-100416979D01*
X103016551Y-100421186D01*
X103007084Y-100426652D01*
X103002418Y-100430528D01*
X102981925Y-100461966D01*
X102982761Y-100497767D01*
X103000236Y-100529127D01*
X103021816Y-100555778D01*
X103669273Y-100555778D01*
X103690853Y-100529127D01*
X103706551Y-100503406D01*
X103712433Y-100482400D01*
X103705623Y-100459386D01*
X103705623Y-100459386D01*
G37*
X103705623Y-100459386D02*
X103690853Y-100435673D01*
X103669273Y-100409022D01*
X103347727Y-100409022D01*
X103253670Y-100409107D01*
X103179568Y-100409471D01*
X103122796Y-100410276D01*
X103080732Y-100411687D01*
X103050752Y-100413867D01*
X103030233Y-100416979D01*
X103016551Y-100421186D01*
X103007084Y-100426652D01*
X103002418Y-100430528D01*
X102981925Y-100461966D01*
X102982761Y-100497767D01*
X103000236Y-100529127D01*
X103021816Y-100555778D01*
X103669273Y-100555778D01*
X103690853Y-100529127D01*
X103706551Y-100503406D01*
X103712433Y-100482400D01*
X103705623Y-100459386D01*
G36*
X103712337Y-99684935D02*
X103711958Y-99606228D01*
X103711167Y-99545137D01*
X103709830Y-99499183D01*
X103707817Y-99465886D01*
X103704994Y-99442764D01*
X103701231Y-99427338D01*
X103696395Y-99417129D01*
X103692678Y-99412187D01*
X103660142Y-99386543D01*
X103626362Y-99383441D01*
X103595674Y-99399289D01*
X103583411Y-99409652D01*
X103575050Y-99420804D01*
X103569843Y-99436965D01*
X103567043Y-99462358D01*
X103565904Y-99501202D01*
X103565679Y-99557720D01*
X103565678Y-99568820D01*
X103565678Y-99714756D01*
X103294744Y-99714756D01*
X103209346Y-99714852D01*
X103143636Y-99715289D01*
X103094726Y-99716288D01*
X103059727Y-99718072D01*
X103035751Y-99720863D01*
X103019907Y-99724883D01*
X103009309Y-99730355D01*
X103001233Y-99737334D01*
X102981388Y-99770266D01*
X102982952Y-99804646D01*
X103005594Y-99835824D01*
X103008400Y-99838114D01*
X103019008Y-99845571D01*
X103031419Y-99851253D01*
X103048650Y-99855399D01*
X103073716Y-99858250D01*
X103109633Y-99860046D01*
X103159417Y-99861028D01*
X103226083Y-99861436D01*
X103301911Y-99861511D01*
X103565678Y-99861511D01*
X103565678Y-100000873D01*
X103566082Y-100060678D01*
X103567660Y-100102082D01*
X103570953Y-100129252D01*
X103576508Y-100146354D01*
X103584869Y-100157557D01*
X103586322Y-100158917D01*
X103619561Y-100175275D01*
X103657138Y-100173828D01*
X103689855Y-100155022D01*
X103696202Y-100147750D01*
X103701234Y-100138373D01*
X103705104Y-100124391D01*
X103707963Y-100103304D01*
X103709965Y-100072611D01*
X103711261Y-100029811D01*
X103712002Y-99972405D01*
X103712342Y-99897890D01*
X103712432Y-99803767D01*
X103712433Y-99783740D01*
X103712337Y-99684935D01*
X103712337Y-99684935D01*
G37*
X103712337Y-99684935D02*
X103711958Y-99606228D01*
X103711167Y-99545137D01*
X103709830Y-99499183D01*
X103707817Y-99465886D01*
X103704994Y-99442764D01*
X103701231Y-99427338D01*
X103696395Y-99417129D01*
X103692678Y-99412187D01*
X103660142Y-99386543D01*
X103626362Y-99383441D01*
X103595674Y-99399289D01*
X103583411Y-99409652D01*
X103575050Y-99420804D01*
X103569843Y-99436965D01*
X103567043Y-99462358D01*
X103565904Y-99501202D01*
X103565679Y-99557720D01*
X103565678Y-99568820D01*
X103565678Y-99714756D01*
X103294744Y-99714756D01*
X103209346Y-99714852D01*
X103143636Y-99715289D01*
X103094726Y-99716288D01*
X103059727Y-99718072D01*
X103035751Y-99720863D01*
X103019907Y-99724883D01*
X103009309Y-99730355D01*
X103001233Y-99737334D01*
X102981388Y-99770266D01*
X102982952Y-99804646D01*
X103005594Y-99835824D01*
X103008400Y-99838114D01*
X103019008Y-99845571D01*
X103031419Y-99851253D01*
X103048650Y-99855399D01*
X103073716Y-99858250D01*
X103109633Y-99860046D01*
X103159417Y-99861028D01*
X103226083Y-99861436D01*
X103301911Y-99861511D01*
X103565678Y-99861511D01*
X103565678Y-100000873D01*
X103566082Y-100060678D01*
X103567660Y-100102082D01*
X103570953Y-100129252D01*
X103576508Y-100146354D01*
X103584869Y-100157557D01*
X103586322Y-100158917D01*
X103619561Y-100175275D01*
X103657138Y-100173828D01*
X103689855Y-100155022D01*
X103696202Y-100147750D01*
X103701234Y-100138373D01*
X103705104Y-100124391D01*
X103707963Y-100103304D01*
X103709965Y-100072611D01*
X103711261Y-100029811D01*
X103712002Y-99972405D01*
X103712342Y-99897890D01*
X103712432Y-99803767D01*
X103712433Y-99783740D01*
X103712337Y-99684935D01*
G36*
X103706967Y-98419177D02*
X103684724Y-98387798D01*
X103657015Y-98360089D01*
X103347580Y-98360089D01*
X103255701Y-98360162D01*
X103183660Y-98360505D01*
X103128720Y-98361308D01*
X103088140Y-98362759D01*
X103059183Y-98365048D01*
X103039109Y-98368364D01*
X103025179Y-98372895D01*
X103014655Y-98378831D01*
X103008400Y-98383486D01*
X102983827Y-98414217D01*
X102981159Y-98449504D01*
X102996229Y-98481755D01*
X103005126Y-98492412D01*
X103016943Y-98499536D01*
X103035974Y-98503833D01*
X103066508Y-98506009D01*
X103112838Y-98506772D01*
X103148629Y-98506845D01*
X103283455Y-98506845D01*
X103283455Y-99003556D01*
X103160800Y-99003556D01*
X103104713Y-99004069D01*
X103066167Y-99006124D01*
X103040139Y-99010492D01*
X103021603Y-99017944D01*
X103008400Y-99026953D01*
X102983896Y-99057856D01*
X102980994Y-99092804D01*
X102998411Y-99126262D01*
X103007541Y-99135396D01*
X103019645Y-99141848D01*
X103038499Y-99146103D01*
X103067880Y-99148648D01*
X103111563Y-99149971D01*
X103173325Y-99150557D01*
X103187500Y-99150625D01*
X103303869Y-99151109D01*
X103399773Y-99151359D01*
X103477323Y-99151277D01*
X103538631Y-99150769D01*
X103585810Y-99149738D01*
X103620970Y-99148087D01*
X103646224Y-99145721D01*
X103663683Y-99142543D01*
X103675459Y-99138456D01*
X103683665Y-99133366D01*
X103689855Y-99127734D01*
X103709656Y-99095872D01*
X103706967Y-99062643D01*
X103684724Y-99031265D01*
X103670374Y-99018567D01*
X103654522Y-99010474D01*
X103631946Y-99005958D01*
X103597422Y-99003994D01*
X103545724Y-99003556D01*
X103430211Y-99003556D01*
X103430211Y-98506845D01*
X103548744Y-98506845D01*
X103603352Y-98506338D01*
X103640225Y-98504302D01*
X103664193Y-98499965D01*
X103680085Y-98492553D01*
X103689855Y-98484267D01*
X103709656Y-98452406D01*
X103706967Y-98419177D01*
X103706967Y-98419177D01*
G37*
X103706967Y-98419177D02*
X103684724Y-98387798D01*
X103657015Y-98360089D01*
X103347580Y-98360089D01*
X103255701Y-98360162D01*
X103183660Y-98360505D01*
X103128720Y-98361308D01*
X103088140Y-98362759D01*
X103059183Y-98365048D01*
X103039109Y-98368364D01*
X103025179Y-98372895D01*
X103014655Y-98378831D01*
X103008400Y-98383486D01*
X102983827Y-98414217D01*
X102981159Y-98449504D01*
X102996229Y-98481755D01*
X103005126Y-98492412D01*
X103016943Y-98499536D01*
X103035974Y-98503833D01*
X103066508Y-98506009D01*
X103112838Y-98506772D01*
X103148629Y-98506845D01*
X103283455Y-98506845D01*
X103283455Y-99003556D01*
X103160800Y-99003556D01*
X103104713Y-99004069D01*
X103066167Y-99006124D01*
X103040139Y-99010492D01*
X103021603Y-99017944D01*
X103008400Y-99026953D01*
X102983896Y-99057856D01*
X102980994Y-99092804D01*
X102998411Y-99126262D01*
X103007541Y-99135396D01*
X103019645Y-99141848D01*
X103038499Y-99146103D01*
X103067880Y-99148648D01*
X103111563Y-99149971D01*
X103173325Y-99150557D01*
X103187500Y-99150625D01*
X103303869Y-99151109D01*
X103399773Y-99151359D01*
X103477323Y-99151277D01*
X103538631Y-99150769D01*
X103585810Y-99149738D01*
X103620970Y-99148087D01*
X103646224Y-99145721D01*
X103663683Y-99142543D01*
X103675459Y-99138456D01*
X103683665Y-99133366D01*
X103689855Y-99127734D01*
X103709656Y-99095872D01*
X103706967Y-99062643D01*
X103684724Y-99031265D01*
X103670374Y-99018567D01*
X103654522Y-99010474D01*
X103631946Y-99005958D01*
X103597422Y-99003994D01*
X103545724Y-99003556D01*
X103430211Y-99003556D01*
X103430211Y-98506845D01*
X103548744Y-98506845D01*
X103603352Y-98506338D01*
X103640225Y-98504302D01*
X103664193Y-98499965D01*
X103680085Y-98492553D01*
X103689855Y-98484267D01*
X103709656Y-98452406D01*
X103706967Y-98419177D01*
G36*
X108492446Y-107594400D02*
X108378507Y-107583535D01*
X108270884Y-107551918D01*
X108171885Y-107501015D01*
X108083816Y-107432293D01*
X108008984Y-107347219D01*
X107951116Y-107250232D01*
X107911495Y-107143964D01*
X107892927Y-107036950D01*
X107894066Y-106931300D01*
X107913570Y-106829125D01*
X107950094Y-106732534D01*
X108002295Y-106643638D01*
X108068827Y-106564546D01*
X108148348Y-106497369D01*
X108239513Y-106444217D01*
X108340977Y-106407199D01*
X108451398Y-106388427D01*
X108501294Y-106386489D01*
X108589233Y-106386489D01*
X108589233Y-106334560D01*
X108586389Y-106298253D01*
X108574589Y-106271355D01*
X108550851Y-106244249D01*
X108512469Y-106205867D01*
X106320898Y-106205867D01*
X106058761Y-106205876D01*
X105818259Y-106205908D01*
X105598452Y-106205972D01*
X105398399Y-106206076D01*
X105217156Y-106206227D01*
X105053784Y-106206434D01*
X104907340Y-106206706D01*
X104776883Y-106207050D01*
X104661471Y-106207474D01*
X104560162Y-106207987D01*
X104472016Y-106208597D01*
X104396090Y-106209312D01*
X104331443Y-106210140D01*
X104277133Y-106211089D01*
X104232220Y-106212167D01*
X104195760Y-106213383D01*
X104166813Y-106214745D01*
X104144437Y-106216261D01*
X104127691Y-106217938D01*
X104115632Y-106219786D01*
X104107320Y-106221813D01*
X104101813Y-106224025D01*
X104099963Y-106225108D01*
X104092951Y-106229271D01*
X104086504Y-106232805D01*
X104080600Y-106236635D01*
X104075214Y-106241682D01*
X104070322Y-106248871D01*
X104065902Y-106259123D01*
X104061928Y-106273364D01*
X104058379Y-106292514D01*
X104055230Y-106317499D01*
X104052458Y-106349240D01*
X104050039Y-106388662D01*
X104047949Y-106436686D01*
X104046165Y-106494237D01*
X104044663Y-106562237D01*
X104043420Y-106641610D01*
X104042411Y-106733279D01*
X104041615Y-106838166D01*
X104041006Y-106957196D01*
X104040561Y-107091290D01*
X104040257Y-107241373D01*
X104040070Y-107408367D01*
X104039976Y-107593196D01*
X104039952Y-107796783D01*
X104039975Y-108020050D01*
X104040020Y-108263922D01*
X104040063Y-108529321D01*
X104040068Y-108567704D01*
X104040111Y-108834682D01*
X104040182Y-109080002D01*
X104040287Y-109304583D01*
X104040434Y-109509345D01*
X104040631Y-109695206D01*
X104040884Y-109863088D01*
X104041200Y-110013908D01*
X104041587Y-110148587D01*
X104042053Y-110268044D01*
X104042603Y-110373199D01*
X104043247Y-110464971D01*
X104043989Y-110544279D01*
X104044839Y-110612043D01*
X104045803Y-110669182D01*
X104046889Y-110716617D01*
X104048103Y-110755266D01*
X104049453Y-110786049D01*
X104050945Y-110809885D01*
X104052589Y-110827694D01*
X104054389Y-110840395D01*
X104056355Y-110848908D01*
X104058023Y-110853266D01*
X104061594Y-110861728D01*
X104064230Y-110869497D01*
X104066866Y-110876602D01*
X104070438Y-110883073D01*
X104075879Y-110888939D01*
X104084125Y-110894229D01*
X104096110Y-110898974D01*
X104112769Y-110903202D01*
X104135037Y-110906943D01*
X104163848Y-110910227D01*
X104200137Y-110913083D01*
X104244839Y-110915540D01*
X104298889Y-110917629D01*
X104363221Y-110919378D01*
X104438770Y-110920817D01*
X104526470Y-110921976D01*
X104627257Y-110922883D01*
X104742066Y-110923569D01*
X104871830Y-110924063D01*
X105017485Y-110924395D01*
X105179965Y-110924593D01*
X105360205Y-110924687D01*
X105559140Y-110924708D01*
X105777704Y-110924685D01*
X106016832Y-110924646D01*
X106277460Y-110924622D01*
X106319611Y-110924622D01*
X106582508Y-110924636D01*
X106823768Y-110924661D01*
X107044335Y-110924671D01*
X107245148Y-110924642D01*
X107427151Y-110924548D01*
X107591284Y-110924362D01*
X107738489Y-110924059D01*
X107869708Y-110923614D01*
X107979633Y-110923034D01*
X107979633Y-110620197D01*
X107921789Y-110580407D01*
X107906021Y-110569236D01*
X107892059Y-110559166D01*
X107878716Y-110550138D01*
X107864807Y-110542097D01*
X107849144Y-110534986D01*
X107830542Y-110528747D01*
X107807814Y-110523325D01*
X107779773Y-110518662D01*
X107745233Y-110514701D01*
X107703008Y-110511385D01*
X107651911Y-110508659D01*
X107590756Y-110506464D01*
X107518356Y-110504745D01*
X107433525Y-110503444D01*
X107335078Y-110502505D01*
X107221826Y-110501870D01*
X107092584Y-110501484D01*
X106946166Y-110501288D01*
X106781384Y-110501227D01*
X106597053Y-110501243D01*
X106391987Y-110501280D01*
X106269367Y-110501289D01*
X106052418Y-110501265D01*
X105856858Y-110501231D01*
X105681501Y-110501243D01*
X105525159Y-110501358D01*
X105386643Y-110501630D01*
X105264766Y-110502118D01*
X105158340Y-110502876D01*
X105066178Y-110503962D01*
X104987091Y-110505431D01*
X104919892Y-110507340D01*
X104863393Y-110509744D01*
X104816407Y-110512701D01*
X104777745Y-110516266D01*
X104746220Y-110520495D01*
X104720645Y-110525446D01*
X104699830Y-110531173D01*
X104682589Y-110537733D01*
X104667735Y-110545183D01*
X104654078Y-110553579D01*
X104640431Y-110562976D01*
X104625607Y-110573432D01*
X104616717Y-110579523D01*
X104559100Y-110618296D01*
X104559100Y-110086732D01*
X104559135Y-109963483D01*
X104559285Y-109860987D01*
X104559622Y-109777420D01*
X104560214Y-109710956D01*
X104561133Y-109659771D01*
X104562449Y-109622041D01*
X104564231Y-109595940D01*
X104566549Y-109579644D01*
X104569474Y-109571328D01*
X104573076Y-109569168D01*
X104577425Y-109571339D01*
X104578855Y-109572535D01*
X104615927Y-109597685D01*
X104668728Y-109623583D01*
X104730730Y-109647192D01*
X104757143Y-109655461D01*
X104775084Y-109660078D01*
X104796145Y-109663979D01*
X104822411Y-109667248D01*
X104855968Y-109669966D01*
X104898901Y-109672215D01*
X104953296Y-109674077D01*
X105021238Y-109675636D01*
X105104812Y-109676972D01*
X105206105Y-109678169D01*
X105327200Y-109679308D01*
X105371900Y-109679685D01*
X105497051Y-109680702D01*
X105601418Y-109681460D01*
X105686793Y-109681903D01*
X105754967Y-109681970D01*
X105807735Y-109681605D01*
X105846886Y-109680748D01*
X105874215Y-109679341D01*
X105891514Y-109677325D01*
X105900574Y-109674643D01*
X105903188Y-109671236D01*
X105901149Y-109667044D01*
X105896833Y-109662571D01*
X105883898Y-109652216D01*
X105854824Y-109630158D01*
X105811741Y-109597957D01*
X105756782Y-109557174D01*
X105692077Y-109509370D01*
X105619758Y-109456105D01*
X105541956Y-109398940D01*
X105460802Y-109339437D01*
X105378428Y-109279155D01*
X105296964Y-109219655D01*
X105218543Y-109162498D01*
X105145296Y-109109245D01*
X105079353Y-109061457D01*
X105022846Y-109020693D01*
X104977907Y-108988516D01*
X104946666Y-108966485D01*
X104940034Y-108961917D01*
X104903131Y-108938996D01*
X104855141Y-108912188D01*
X104805603Y-108886789D01*
X104798923Y-108883568D01*
X104750728Y-108861890D01*
X104713166Y-108849304D01*
X104677340Y-108843574D01*
X104635300Y-108842456D01*
X104559100Y-108843090D01*
X104559100Y-107688651D01*
X104652831Y-107779815D01*
X104702725Y-107826612D01*
X104759205Y-107876899D01*
X104813474Y-107922944D01*
X104838827Y-107943369D01*
X104878372Y-107973807D01*
X104931584Y-108013862D01*
X104996833Y-108062361D01*
X105072489Y-108118135D01*
X105156923Y-108180011D01*
X105248506Y-108246819D01*
X105345608Y-108317387D01*
X105446599Y-108390545D01*
X105549850Y-108465121D01*
X105653732Y-108539944D01*
X105756615Y-108613843D01*
X105856869Y-108685646D01*
X105952864Y-108754184D01*
X106042973Y-108818284D01*
X106125564Y-108876775D01*
X106199008Y-108928486D01*
X106261676Y-108972247D01*
X106311939Y-109006885D01*
X106348166Y-109031230D01*
X106368729Y-109044111D01*
X106372832Y-109045869D01*
X106384158Y-109037910D01*
X106411338Y-109017115D01*
X106452671Y-108984847D01*
X106506456Y-108942470D01*
X106570994Y-108891347D01*
X106644582Y-108832841D01*
X106725522Y-108768314D01*
X106812112Y-108699131D01*
X106902652Y-108626653D01*
X106995440Y-108552246D01*
X107069798Y-108492517D01*
X107069798Y-107481511D01*
X107056841Y-107475602D01*
X107034592Y-107461272D01*
X107033109Y-107460225D01*
X107002956Y-107441438D01*
X106966125Y-107421791D01*
X106957989Y-107417892D01*
X106949560Y-107414356D01*
X106939441Y-107411230D01*
X106926240Y-107408486D01*
X106908562Y-107406092D01*
X106885016Y-107404019D01*
X106854207Y-107402235D01*
X106814743Y-107400712D01*
X106765231Y-107399419D01*
X106704277Y-107398326D01*
X106630489Y-107397403D01*
X106542472Y-107396619D01*
X106438835Y-107395945D01*
X106318184Y-107395350D01*
X106179126Y-107394805D01*
X106020268Y-107394279D01*
X105841411Y-107393745D01*
X105656293Y-107393206D01*
X105492355Y-107392772D01*
X105348197Y-107392509D01*
X105222421Y-107392484D01*
X105113629Y-107392765D01*
X105020423Y-107393419D01*
X104941403Y-107394514D01*
X104875172Y-107396118D01*
X104820330Y-107398297D01*
X104775479Y-107401119D01*
X104739222Y-107404651D01*
X104710159Y-107408961D01*
X104686891Y-107414117D01*
X104668021Y-107420185D01*
X104652149Y-107427233D01*
X104637878Y-107435329D01*
X104623809Y-107444540D01*
X104611342Y-107453040D01*
X104585048Y-107470176D01*
X104567463Y-107480322D01*
X104564243Y-107481511D01*
X104563166Y-107470604D01*
X104562165Y-107439411D01*
X104561265Y-107390223D01*
X104560490Y-107325333D01*
X104559863Y-107247030D01*
X104559409Y-107157607D01*
X104559151Y-107059356D01*
X104559100Y-106990445D01*
X104559320Y-106885452D01*
X104559952Y-106788610D01*
X104560951Y-106702107D01*
X104562273Y-106628132D01*
X104563874Y-106568874D01*
X104565709Y-106526520D01*
X104567735Y-106503260D01*
X104569007Y-106499378D01*
X104583909Y-106507076D01*
X104591940Y-106515074D01*
X104609066Y-106528246D01*
X104639317Y-106545485D01*
X104663878Y-106557407D01*
X104722789Y-106584045D01*
X105899655Y-106587120D01*
X107076522Y-106590195D01*
X107076522Y-107035853D01*
X107076358Y-107133670D01*
X107075889Y-107224064D01*
X107075153Y-107304630D01*
X107074184Y-107372962D01*
X107073020Y-107426656D01*
X107071697Y-107463305D01*
X107070251Y-107480504D01*
X107069798Y-107481511D01*
X107069798Y-108492517D01*
X107088778Y-108477270D01*
X107180963Y-108403090D01*
X107270296Y-108331069D01*
X107355076Y-108262569D01*
X107433602Y-108198955D01*
X107504174Y-108141588D01*
X107565091Y-108091833D01*
X107614653Y-108051052D01*
X107635322Y-108033888D01*
X107735984Y-107947596D01*
X107819241Y-107870997D01*
X107887062Y-107802183D01*
X107941411Y-107739248D01*
X107948778Y-107729867D01*
X107979383Y-107690356D01*
X107979633Y-108822116D01*
X107931656Y-108816827D01*
X107874312Y-108820130D01*
X107806037Y-108841661D01*
X107726288Y-108881635D01*
X107654005Y-108926943D01*
X107631360Y-108943161D01*
X107593804Y-108971214D01*
X107543479Y-109009430D01*
X107482527Y-109056137D01*
X107413089Y-109109661D01*
X107337306Y-109168331D01*
X107257320Y-109230475D01*
X107175272Y-109294421D01*
X107093304Y-109358495D01*
X107013557Y-109421027D01*
X106938173Y-109480343D01*
X106869293Y-109534771D01*
X106809058Y-109582639D01*
X106759611Y-109622275D01*
X106723092Y-109652006D01*
X106701642Y-109670161D01*
X106698344Y-109673220D01*
X106706351Y-109676079D01*
X106736645Y-109678293D01*
X106788944Y-109679857D01*
X106862969Y-109680767D01*
X106958437Y-109681020D01*
X107075066Y-109680613D01*
X107195055Y-109679704D01*
X107327167Y-109678382D01*
X107438906Y-109676857D01*
X107532475Y-109674881D01*
X107610081Y-109672206D01*
X107673926Y-109668582D01*
X107726217Y-109663761D01*
X107769156Y-109657494D01*
X107804949Y-109649532D01*
X107835800Y-109639627D01*
X107863914Y-109627531D01*
X107891495Y-109612993D01*
X107916534Y-109598311D01*
X107979633Y-109560314D01*
X107979633Y-110620197D01*
X107979633Y-110923034D01*
X107985883Y-110923001D01*
X108087956Y-110922195D01*
X108176867Y-110921170D01*
X108253559Y-110919900D01*
X108318973Y-110918360D01*
X108374051Y-110916524D01*
X108419735Y-110914367D01*
X108456966Y-110911863D01*
X108486687Y-110908987D01*
X108509838Y-110905713D01*
X108527361Y-110902015D01*
X108540199Y-110897869D01*
X108549292Y-110893247D01*
X108555582Y-110888126D01*
X108560012Y-110882478D01*
X108563522Y-110876279D01*
X108567055Y-110869504D01*
X108570624Y-110863508D01*
X108573200Y-110858275D01*
X108575528Y-110850099D01*
X108577622Y-110837886D01*
X108579493Y-110820541D01*
X108581153Y-110796969D01*
X108582616Y-110766077D01*
X108583892Y-110726768D01*
X108584996Y-110677950D01*
X108585939Y-110618527D01*
X108586733Y-110547404D01*
X108587391Y-110463488D01*
X108587925Y-110365683D01*
X108588347Y-110252894D01*
X108588671Y-110124029D01*
X108588908Y-109977991D01*
X108589070Y-109813686D01*
X108589170Y-109630020D01*
X108589220Y-109425897D01*
X108589233Y-109214753D01*
X108589233Y-107594400D01*
X108492446Y-107594400D01*
X108492446Y-107594400D01*
G37*
X108492446Y-107594400D02*
X108378507Y-107583535D01*
X108270884Y-107551918D01*
X108171885Y-107501015D01*
X108083816Y-107432293D01*
X108008984Y-107347219D01*
X107951116Y-107250232D01*
X107911495Y-107143964D01*
X107892927Y-107036950D01*
X107894066Y-106931300D01*
X107913570Y-106829125D01*
X107950094Y-106732534D01*
X108002295Y-106643638D01*
X108068827Y-106564546D01*
X108148348Y-106497369D01*
X108239513Y-106444217D01*
X108340977Y-106407199D01*
X108451398Y-106388427D01*
X108501294Y-106386489D01*
X108589233Y-106386489D01*
X108589233Y-106334560D01*
X108586389Y-106298253D01*
X108574589Y-106271355D01*
X108550851Y-106244249D01*
X108512469Y-106205867D01*
X106320898Y-106205867D01*
X106058761Y-106205876D01*
X105818259Y-106205908D01*
X105598452Y-106205972D01*
X105398399Y-106206076D01*
X105217156Y-106206227D01*
X105053784Y-106206434D01*
X104907340Y-106206706D01*
X104776883Y-106207050D01*
X104661471Y-106207474D01*
X104560162Y-106207987D01*
X104472016Y-106208597D01*
X104396090Y-106209312D01*
X104331443Y-106210140D01*
X104277133Y-106211089D01*
X104232220Y-106212167D01*
X104195760Y-106213383D01*
X104166813Y-106214745D01*
X104144437Y-106216261D01*
X104127691Y-106217938D01*
X104115632Y-106219786D01*
X104107320Y-106221813D01*
X104101813Y-106224025D01*
X104099963Y-106225108D01*
X104092951Y-106229271D01*
X104086504Y-106232805D01*
X104080600Y-106236635D01*
X104075214Y-106241682D01*
X104070322Y-106248871D01*
X104065902Y-106259123D01*
X104061928Y-106273364D01*
X104058379Y-106292514D01*
X104055230Y-106317499D01*
X104052458Y-106349240D01*
X104050039Y-106388662D01*
X104047949Y-106436686D01*
X104046165Y-106494237D01*
X104044663Y-106562237D01*
X104043420Y-106641610D01*
X104042411Y-106733279D01*
X104041615Y-106838166D01*
X104041006Y-106957196D01*
X104040561Y-107091290D01*
X104040257Y-107241373D01*
X104040070Y-107408367D01*
X104039976Y-107593196D01*
X104039952Y-107796783D01*
X104039975Y-108020050D01*
X104040020Y-108263922D01*
X104040063Y-108529321D01*
X104040068Y-108567704D01*
X104040111Y-108834682D01*
X104040182Y-109080002D01*
X104040287Y-109304583D01*
X104040434Y-109509345D01*
X104040631Y-109695206D01*
X104040884Y-109863088D01*
X104041200Y-110013908D01*
X104041587Y-110148587D01*
X104042053Y-110268044D01*
X104042603Y-110373199D01*
X104043247Y-110464971D01*
X104043989Y-110544279D01*
X104044839Y-110612043D01*
X104045803Y-110669182D01*
X104046889Y-110716617D01*
X104048103Y-110755266D01*
X104049453Y-110786049D01*
X104050945Y-110809885D01*
X104052589Y-110827694D01*
X104054389Y-110840395D01*
X104056355Y-110848908D01*
X104058023Y-110853266D01*
X104061594Y-110861728D01*
X104064230Y-110869497D01*
X104066866Y-110876602D01*
X104070438Y-110883073D01*
X104075879Y-110888939D01*
X104084125Y-110894229D01*
X104096110Y-110898974D01*
X104112769Y-110903202D01*
X104135037Y-110906943D01*
X104163848Y-110910227D01*
X104200137Y-110913083D01*
X104244839Y-110915540D01*
X104298889Y-110917629D01*
X104363221Y-110919378D01*
X104438770Y-110920817D01*
X104526470Y-110921976D01*
X104627257Y-110922883D01*
X104742066Y-110923569D01*
X104871830Y-110924063D01*
X105017485Y-110924395D01*
X105179965Y-110924593D01*
X105360205Y-110924687D01*
X105559140Y-110924708D01*
X105777704Y-110924685D01*
X106016832Y-110924646D01*
X106277460Y-110924622D01*
X106319611Y-110924622D01*
X106582508Y-110924636D01*
X106823768Y-110924661D01*
X107044335Y-110924671D01*
X107245148Y-110924642D01*
X107427151Y-110924548D01*
X107591284Y-110924362D01*
X107738489Y-110924059D01*
X107869708Y-110923614D01*
X107979633Y-110923034D01*
X107979633Y-110620197D01*
X107921789Y-110580407D01*
X107906021Y-110569236D01*
X107892059Y-110559166D01*
X107878716Y-110550138D01*
X107864807Y-110542097D01*
X107849144Y-110534986D01*
X107830542Y-110528747D01*
X107807814Y-110523325D01*
X107779773Y-110518662D01*
X107745233Y-110514701D01*
X107703008Y-110511385D01*
X107651911Y-110508659D01*
X107590756Y-110506464D01*
X107518356Y-110504745D01*
X107433525Y-110503444D01*
X107335078Y-110502505D01*
X107221826Y-110501870D01*
X107092584Y-110501484D01*
X106946166Y-110501288D01*
X106781384Y-110501227D01*
X106597053Y-110501243D01*
X106391987Y-110501280D01*
X106269367Y-110501289D01*
X106052418Y-110501265D01*
X105856858Y-110501231D01*
X105681501Y-110501243D01*
X105525159Y-110501358D01*
X105386643Y-110501630D01*
X105264766Y-110502118D01*
X105158340Y-110502876D01*
X105066178Y-110503962D01*
X104987091Y-110505431D01*
X104919892Y-110507340D01*
X104863393Y-110509744D01*
X104816407Y-110512701D01*
X104777745Y-110516266D01*
X104746220Y-110520495D01*
X104720645Y-110525446D01*
X104699830Y-110531173D01*
X104682589Y-110537733D01*
X104667735Y-110545183D01*
X104654078Y-110553579D01*
X104640431Y-110562976D01*
X104625607Y-110573432D01*
X104616717Y-110579523D01*
X104559100Y-110618296D01*
X104559100Y-110086732D01*
X104559135Y-109963483D01*
X104559285Y-109860987D01*
X104559622Y-109777420D01*
X104560214Y-109710956D01*
X104561133Y-109659771D01*
X104562449Y-109622041D01*
X104564231Y-109595940D01*
X104566549Y-109579644D01*
X104569474Y-109571328D01*
X104573076Y-109569168D01*
X104577425Y-109571339D01*
X104578855Y-109572535D01*
X104615927Y-109597685D01*
X104668728Y-109623583D01*
X104730730Y-109647192D01*
X104757143Y-109655461D01*
X104775084Y-109660078D01*
X104796145Y-109663979D01*
X104822411Y-109667248D01*
X104855968Y-109669966D01*
X104898901Y-109672215D01*
X104953296Y-109674077D01*
X105021238Y-109675636D01*
X105104812Y-109676972D01*
X105206105Y-109678169D01*
X105327200Y-109679308D01*
X105371900Y-109679685D01*
X105497051Y-109680702D01*
X105601418Y-109681460D01*
X105686793Y-109681903D01*
X105754967Y-109681970D01*
X105807735Y-109681605D01*
X105846886Y-109680748D01*
X105874215Y-109679341D01*
X105891514Y-109677325D01*
X105900574Y-109674643D01*
X105903188Y-109671236D01*
X105901149Y-109667044D01*
X105896833Y-109662571D01*
X105883898Y-109652216D01*
X105854824Y-109630158D01*
X105811741Y-109597957D01*
X105756782Y-109557174D01*
X105692077Y-109509370D01*
X105619758Y-109456105D01*
X105541956Y-109398940D01*
X105460802Y-109339437D01*
X105378428Y-109279155D01*
X105296964Y-109219655D01*
X105218543Y-109162498D01*
X105145296Y-109109245D01*
X105079353Y-109061457D01*
X105022846Y-109020693D01*
X104977907Y-108988516D01*
X104946666Y-108966485D01*
X104940034Y-108961917D01*
X104903131Y-108938996D01*
X104855141Y-108912188D01*
X104805603Y-108886789D01*
X104798923Y-108883568D01*
X104750728Y-108861890D01*
X104713166Y-108849304D01*
X104677340Y-108843574D01*
X104635300Y-108842456D01*
X104559100Y-108843090D01*
X104559100Y-107688651D01*
X104652831Y-107779815D01*
X104702725Y-107826612D01*
X104759205Y-107876899D01*
X104813474Y-107922944D01*
X104838827Y-107943369D01*
X104878372Y-107973807D01*
X104931584Y-108013862D01*
X104996833Y-108062361D01*
X105072489Y-108118135D01*
X105156923Y-108180011D01*
X105248506Y-108246819D01*
X105345608Y-108317387D01*
X105446599Y-108390545D01*
X105549850Y-108465121D01*
X105653732Y-108539944D01*
X105756615Y-108613843D01*
X105856869Y-108685646D01*
X105952864Y-108754184D01*
X106042973Y-108818284D01*
X106125564Y-108876775D01*
X106199008Y-108928486D01*
X106261676Y-108972247D01*
X106311939Y-109006885D01*
X106348166Y-109031230D01*
X106368729Y-109044111D01*
X106372832Y-109045869D01*
X106384158Y-109037910D01*
X106411338Y-109017115D01*
X106452671Y-108984847D01*
X106506456Y-108942470D01*
X106570994Y-108891347D01*
X106644582Y-108832841D01*
X106725522Y-108768314D01*
X106812112Y-108699131D01*
X106902652Y-108626653D01*
X106995440Y-108552246D01*
X107069798Y-108492517D01*
X107069798Y-107481511D01*
X107056841Y-107475602D01*
X107034592Y-107461272D01*
X107033109Y-107460225D01*
X107002956Y-107441438D01*
X106966125Y-107421791D01*
X106957989Y-107417892D01*
X106949560Y-107414356D01*
X106939441Y-107411230D01*
X106926240Y-107408486D01*
X106908562Y-107406092D01*
X106885016Y-107404019D01*
X106854207Y-107402235D01*
X106814743Y-107400712D01*
X106765231Y-107399419D01*
X106704277Y-107398326D01*
X106630489Y-107397403D01*
X106542472Y-107396619D01*
X106438835Y-107395945D01*
X106318184Y-107395350D01*
X106179126Y-107394805D01*
X106020268Y-107394279D01*
X105841411Y-107393745D01*
X105656293Y-107393206D01*
X105492355Y-107392772D01*
X105348197Y-107392509D01*
X105222421Y-107392484D01*
X105113629Y-107392765D01*
X105020423Y-107393419D01*
X104941403Y-107394514D01*
X104875172Y-107396118D01*
X104820330Y-107398297D01*
X104775479Y-107401119D01*
X104739222Y-107404651D01*
X104710159Y-107408961D01*
X104686891Y-107414117D01*
X104668021Y-107420185D01*
X104652149Y-107427233D01*
X104637878Y-107435329D01*
X104623809Y-107444540D01*
X104611342Y-107453040D01*
X104585048Y-107470176D01*
X104567463Y-107480322D01*
X104564243Y-107481511D01*
X104563166Y-107470604D01*
X104562165Y-107439411D01*
X104561265Y-107390223D01*
X104560490Y-107325333D01*
X104559863Y-107247030D01*
X104559409Y-107157607D01*
X104559151Y-107059356D01*
X104559100Y-106990445D01*
X104559320Y-106885452D01*
X104559952Y-106788610D01*
X104560951Y-106702107D01*
X104562273Y-106628132D01*
X104563874Y-106568874D01*
X104565709Y-106526520D01*
X104567735Y-106503260D01*
X104569007Y-106499378D01*
X104583909Y-106507076D01*
X104591940Y-106515074D01*
X104609066Y-106528246D01*
X104639317Y-106545485D01*
X104663878Y-106557407D01*
X104722789Y-106584045D01*
X105899655Y-106587120D01*
X107076522Y-106590195D01*
X107076522Y-107035853D01*
X107076358Y-107133670D01*
X107075889Y-107224064D01*
X107075153Y-107304630D01*
X107074184Y-107372962D01*
X107073020Y-107426656D01*
X107071697Y-107463305D01*
X107070251Y-107480504D01*
X107069798Y-107481511D01*
X107069798Y-108492517D01*
X107088778Y-108477270D01*
X107180963Y-108403090D01*
X107270296Y-108331069D01*
X107355076Y-108262569D01*
X107433602Y-108198955D01*
X107504174Y-108141588D01*
X107565091Y-108091833D01*
X107614653Y-108051052D01*
X107635322Y-108033888D01*
X107735984Y-107947596D01*
X107819241Y-107870997D01*
X107887062Y-107802183D01*
X107941411Y-107739248D01*
X107948778Y-107729867D01*
X107979383Y-107690356D01*
X107979633Y-108822116D01*
X107931656Y-108816827D01*
X107874312Y-108820130D01*
X107806037Y-108841661D01*
X107726288Y-108881635D01*
X107654005Y-108926943D01*
X107631360Y-108943161D01*
X107593804Y-108971214D01*
X107543479Y-109009430D01*
X107482527Y-109056137D01*
X107413089Y-109109661D01*
X107337306Y-109168331D01*
X107257320Y-109230475D01*
X107175272Y-109294421D01*
X107093304Y-109358495D01*
X107013557Y-109421027D01*
X106938173Y-109480343D01*
X106869293Y-109534771D01*
X106809058Y-109582639D01*
X106759611Y-109622275D01*
X106723092Y-109652006D01*
X106701642Y-109670161D01*
X106698344Y-109673220D01*
X106706351Y-109676079D01*
X106736645Y-109678293D01*
X106788944Y-109679857D01*
X106862969Y-109680767D01*
X106958437Y-109681020D01*
X107075066Y-109680613D01*
X107195055Y-109679704D01*
X107327167Y-109678382D01*
X107438906Y-109676857D01*
X107532475Y-109674881D01*
X107610081Y-109672206D01*
X107673926Y-109668582D01*
X107726217Y-109663761D01*
X107769156Y-109657494D01*
X107804949Y-109649532D01*
X107835800Y-109639627D01*
X107863914Y-109627531D01*
X107891495Y-109612993D01*
X107916534Y-109598311D01*
X107979633Y-109560314D01*
X107979633Y-110620197D01*
X107979633Y-110923034D01*
X107985883Y-110923001D01*
X108087956Y-110922195D01*
X108176867Y-110921170D01*
X108253559Y-110919900D01*
X108318973Y-110918360D01*
X108374051Y-110916524D01*
X108419735Y-110914367D01*
X108456966Y-110911863D01*
X108486687Y-110908987D01*
X108509838Y-110905713D01*
X108527361Y-110902015D01*
X108540199Y-110897869D01*
X108549292Y-110893247D01*
X108555582Y-110888126D01*
X108560012Y-110882478D01*
X108563522Y-110876279D01*
X108567055Y-110869504D01*
X108570624Y-110863508D01*
X108573200Y-110858275D01*
X108575528Y-110850099D01*
X108577622Y-110837886D01*
X108579493Y-110820541D01*
X108581153Y-110796969D01*
X108582616Y-110766077D01*
X108583892Y-110726768D01*
X108584996Y-110677950D01*
X108585939Y-110618527D01*
X108586733Y-110547404D01*
X108587391Y-110463488D01*
X108587925Y-110365683D01*
X108588347Y-110252894D01*
X108588671Y-110124029D01*
X108588908Y-109977991D01*
X108589070Y-109813686D01*
X108589170Y-109630020D01*
X108589220Y-109425897D01*
X108589233Y-109214753D01*
X108589233Y-107594400D01*
X108492446Y-107594400D01*
G36*
X108032429Y-104319571D02*
X108011255Y-104159430D01*
X107971115Y-103995490D01*
X107911611Y-103825687D01*
X107832346Y-103647957D01*
X107826801Y-103636690D01*
X107798775Y-103578995D01*
X107774698Y-103527448D01*
X107756251Y-103485809D01*
X107745114Y-103457838D01*
X107742567Y-103448267D01*
X107737559Y-103429050D01*
X107733353Y-103424439D01*
X107722920Y-103429542D01*
X107696632Y-103445582D01*
X107657243Y-103470712D01*
X107607509Y-103503086D01*
X107550185Y-103540857D01*
X107488024Y-103582178D01*
X107423782Y-103625202D01*
X107360215Y-103668083D01*
X107300075Y-103708974D01*
X107246120Y-103746029D01*
X107201103Y-103777400D01*
X107167779Y-103801241D01*
X107148903Y-103815706D01*
X107146713Y-103817691D01*
X107151362Y-103827809D01*
X107168538Y-103850150D01*
X107195060Y-103880720D01*
X107209536Y-103896464D01*
X107284818Y-103992953D01*
X107340259Y-104099664D01*
X107375359Y-104215168D01*
X107389620Y-104338038D01*
X107388449Y-104407439D01*
X107371288Y-104528577D01*
X107335406Y-104637795D01*
X107280541Y-104735418D01*
X107206430Y-104821772D01*
X107112812Y-104897185D01*
X106999424Y-104961982D01*
X106912833Y-104999399D01*
X106777134Y-105043252D01*
X106629650Y-105075572D01*
X106474186Y-105096443D01*
X106314544Y-105105949D01*
X106154527Y-105104173D01*
X105997939Y-105091197D01*
X105848582Y-105067106D01*
X105710260Y-105031982D01*
X105586776Y-104985908D01*
X105552522Y-104969627D01*
X105438436Y-104901380D01*
X105341943Y-104820921D01*
X105263830Y-104729430D01*
X105204883Y-104628089D01*
X105165888Y-104518080D01*
X105147632Y-104400585D01*
X105146289Y-104359117D01*
X105157210Y-104237559D01*
X105190026Y-104117122D01*
X105244061Y-103999334D01*
X105318635Y-103885723D01*
X105396961Y-103794315D01*
X105441492Y-103747785D01*
X105144229Y-103566517D01*
X105070067Y-103521420D01*
X105001854Y-103480181D01*
X104942041Y-103444265D01*
X104893080Y-103415134D01*
X104857421Y-103394250D01*
X104837516Y-103383076D01*
X104834421Y-103381625D01*
X104824782Y-103389854D01*
X104807501Y-103415433D01*
X104784217Y-103455127D01*
X104756566Y-103505703D01*
X104726185Y-103563926D01*
X104694710Y-103626563D01*
X104663778Y-103690379D01*
X104635027Y-103752140D01*
X104610092Y-103808612D01*
X104590611Y-103856562D01*
X104582182Y-103880014D01*
X104544367Y-104013779D01*
X104519364Y-104151673D01*
X104506360Y-104299378D01*
X104504032Y-104426167D01*
X104505127Y-104494122D01*
X104507225Y-104559723D01*
X104510066Y-104617153D01*
X104513394Y-104660597D01*
X104515078Y-104674702D01*
X104543913Y-104813716D01*
X104589032Y-104955243D01*
X104647750Y-105092725D01*
X104717380Y-105219606D01*
X104770059Y-105297111D01*
X104878261Y-105424519D01*
X105004829Y-105542822D01*
X105146634Y-105649828D01*
X105300549Y-105743348D01*
X105463447Y-105821190D01*
X105580744Y-105865044D01*
X105764372Y-105915292D01*
X105958919Y-105948791D01*
X106160175Y-105965551D01*
X106363932Y-105965584D01*
X106565979Y-105948899D01*
X106762108Y-105915507D01*
X106948109Y-105865420D01*
X106959697Y-105861603D01*
X107121750Y-105798719D01*
X107269668Y-105721972D01*
X107407635Y-105628758D01*
X107539839Y-105516473D01*
X107585101Y-105472608D01*
X107709043Y-105336466D01*
X107811585Y-105196509D01*
X107893844Y-105050589D01*
X107956936Y-104896558D01*
X108001977Y-104732268D01*
X108019467Y-104636711D01*
X108035034Y-104477977D01*
X108032429Y-104319571D01*
X108032429Y-104319571D01*
G37*
X108032429Y-104319571D02*
X108011255Y-104159430D01*
X107971115Y-103995490D01*
X107911611Y-103825687D01*
X107832346Y-103647957D01*
X107826801Y-103636690D01*
X107798775Y-103578995D01*
X107774698Y-103527448D01*
X107756251Y-103485809D01*
X107745114Y-103457838D01*
X107742567Y-103448267D01*
X107737559Y-103429050D01*
X107733353Y-103424439D01*
X107722920Y-103429542D01*
X107696632Y-103445582D01*
X107657243Y-103470712D01*
X107607509Y-103503086D01*
X107550185Y-103540857D01*
X107488024Y-103582178D01*
X107423782Y-103625202D01*
X107360215Y-103668083D01*
X107300075Y-103708974D01*
X107246120Y-103746029D01*
X107201103Y-103777400D01*
X107167779Y-103801241D01*
X107148903Y-103815706D01*
X107146713Y-103817691D01*
X107151362Y-103827809D01*
X107168538Y-103850150D01*
X107195060Y-103880720D01*
X107209536Y-103896464D01*
X107284818Y-103992953D01*
X107340259Y-104099664D01*
X107375359Y-104215168D01*
X107389620Y-104338038D01*
X107388449Y-104407439D01*
X107371288Y-104528577D01*
X107335406Y-104637795D01*
X107280541Y-104735418D01*
X107206430Y-104821772D01*
X107112812Y-104897185D01*
X106999424Y-104961982D01*
X106912833Y-104999399D01*
X106777134Y-105043252D01*
X106629650Y-105075572D01*
X106474186Y-105096443D01*
X106314544Y-105105949D01*
X106154527Y-105104173D01*
X105997939Y-105091197D01*
X105848582Y-105067106D01*
X105710260Y-105031982D01*
X105586776Y-104985908D01*
X105552522Y-104969627D01*
X105438436Y-104901380D01*
X105341943Y-104820921D01*
X105263830Y-104729430D01*
X105204883Y-104628089D01*
X105165888Y-104518080D01*
X105147632Y-104400585D01*
X105146289Y-104359117D01*
X105157210Y-104237559D01*
X105190026Y-104117122D01*
X105244061Y-103999334D01*
X105318635Y-103885723D01*
X105396961Y-103794315D01*
X105441492Y-103747785D01*
X105144229Y-103566517D01*
X105070067Y-103521420D01*
X105001854Y-103480181D01*
X104942041Y-103444265D01*
X104893080Y-103415134D01*
X104857421Y-103394250D01*
X104837516Y-103383076D01*
X104834421Y-103381625D01*
X104824782Y-103389854D01*
X104807501Y-103415433D01*
X104784217Y-103455127D01*
X104756566Y-103505703D01*
X104726185Y-103563926D01*
X104694710Y-103626563D01*
X104663778Y-103690379D01*
X104635027Y-103752140D01*
X104610092Y-103808612D01*
X104590611Y-103856562D01*
X104582182Y-103880014D01*
X104544367Y-104013779D01*
X104519364Y-104151673D01*
X104506360Y-104299378D01*
X104504032Y-104426167D01*
X104505127Y-104494122D01*
X104507225Y-104559723D01*
X104510066Y-104617153D01*
X104513394Y-104660597D01*
X104515078Y-104674702D01*
X104543913Y-104813716D01*
X104589032Y-104955243D01*
X104647750Y-105092725D01*
X104717380Y-105219606D01*
X104770059Y-105297111D01*
X104878261Y-105424519D01*
X105004829Y-105542822D01*
X105146634Y-105649828D01*
X105300549Y-105743348D01*
X105463447Y-105821190D01*
X105580744Y-105865044D01*
X105764372Y-105915292D01*
X105958919Y-105948791D01*
X106160175Y-105965551D01*
X106363932Y-105965584D01*
X106565979Y-105948899D01*
X106762108Y-105915507D01*
X106948109Y-105865420D01*
X106959697Y-105861603D01*
X107121750Y-105798719D01*
X107269668Y-105721972D01*
X107407635Y-105628758D01*
X107539839Y-105516473D01*
X107585101Y-105472608D01*
X107709043Y-105336466D01*
X107811585Y-105196509D01*
X107893844Y-105050589D01*
X107956936Y-104896558D01*
X108001977Y-104732268D01*
X108019467Y-104636711D01*
X108035034Y-104477977D01*
X108032429Y-104319571D01*
G36*
X107114948Y-101974426D02*
X107094933Y-101822508D01*
X107061298Y-101687244D01*
X107013775Y-101567761D01*
X106952095Y-101463185D01*
X106888535Y-101385576D01*
X106814401Y-101316735D01*
X106734629Y-101262994D01*
X106642409Y-101220090D01*
X106599339Y-101204616D01*
X106560358Y-101191756D01*
X106524211Y-101180554D01*
X106489066Y-101170880D01*
X106453090Y-101162604D01*
X106414450Y-101155597D01*
X106371315Y-101149728D01*
X106321851Y-101144869D01*
X106264227Y-101140890D01*
X106196609Y-101137660D01*
X106117166Y-101135051D01*
X106024064Y-101132933D01*
X105915473Y-101131176D01*
X105789558Y-101129651D01*
X105644488Y-101128228D01*
X105501722Y-101126975D01*
X105345532Y-101125649D01*
X105210261Y-101124444D01*
X105094254Y-101123234D01*
X104995855Y-101121894D01*
X104913407Y-101120300D01*
X104845254Y-101118325D01*
X104789740Y-101115844D01*
X104745208Y-101112731D01*
X104710002Y-101108862D01*
X104682466Y-101104111D01*
X104660944Y-101098352D01*
X104643778Y-101091461D01*
X104629314Y-101083311D01*
X104615894Y-101073777D01*
X104601862Y-101062734D01*
X104596429Y-101058434D01*
X104573590Y-101042614D01*
X104558037Y-101035578D01*
X104557578Y-101035556D01*
X104555379Y-101046433D01*
X104553353Y-101077418D01*
X104551558Y-101126043D01*
X104550049Y-101189837D01*
X104548884Y-101266331D01*
X104548120Y-101353056D01*
X104547814Y-101447543D01*
X104547811Y-101458450D01*
X104547811Y-101881343D01*
X104643878Y-101884605D01*
X104739944Y-101887867D01*
X104688957Y-101949956D01*
X104621443Y-102047286D01*
X104566751Y-102157187D01*
X104536522Y-102243651D01*
X104521834Y-102312722D01*
X104511841Y-102396075D01*
X104506854Y-102485841D01*
X104507187Y-102574155D01*
X104513149Y-102653149D01*
X104518862Y-102689378D01*
X104556724Y-102829397D01*
X104611568Y-102955822D01*
X104682576Y-103067740D01*
X104768932Y-103164238D01*
X104869821Y-103244400D01*
X104984424Y-103307313D01*
X105110516Y-103351688D01*
X105167099Y-103364022D01*
X105229298Y-103371632D01*
X105304137Y-103375261D01*
X105338033Y-103375755D01*
X105341218Y-103375690D01*
X105341218Y-102615752D01*
X105266167Y-102606459D01*
X105202340Y-102578272D01*
X105146702Y-102529803D01*
X105142289Y-102524746D01*
X105107463Y-102476452D01*
X105084880Y-102424743D01*
X105072960Y-102364011D01*
X105070117Y-102288648D01*
X105070522Y-102270541D01*
X105073175Y-102216722D01*
X105078591Y-102176692D01*
X105088755Y-102141676D01*
X105105650Y-102102897D01*
X105110828Y-102092255D01*
X105146656Y-102031604D01*
X105189288Y-101984785D01*
X105204527Y-101972048D01*
X105261038Y-101927378D01*
X105456914Y-101927378D01*
X105535561Y-101927914D01*
X105593512Y-101929604D01*
X105632625Y-101932572D01*
X105654759Y-101936943D01*
X105661226Y-101941028D01*
X105664389Y-101956953D01*
X105667012Y-101990736D01*
X105668845Y-102037660D01*
X105669643Y-102093007D01*
X105669658Y-102101894D01*
X105664404Y-102222670D01*
X105648237Y-102325340D01*
X105620539Y-102411894D01*
X105580692Y-102484319D01*
X105533742Y-102539249D01*
X105475855Y-102583796D01*
X105412807Y-102608520D01*
X105341218Y-102615752D01*
X105341218Y-103375690D01*
X105431788Y-103373822D01*
X105510688Y-103365478D01*
X105581910Y-103349232D01*
X105652636Y-103323595D01*
X105705007Y-103299599D01*
X105800304Y-103240980D01*
X105888330Y-103162883D01*
X105967483Y-103067685D01*
X106036160Y-102957762D01*
X106092759Y-102835490D01*
X106135679Y-102703245D01*
X106150618Y-102638578D01*
X106172723Y-102502396D01*
X106187306Y-102353951D01*
X106193687Y-102202495D01*
X106192055Y-102075936D01*
X106185276Y-101914050D01*
X106244255Y-101921470D01*
X106343408Y-101940762D01*
X106424128Y-101971896D01*
X106487034Y-102015731D01*
X106532744Y-102073129D01*
X106561878Y-102144952D01*
X106575053Y-102232059D01*
X106572889Y-102335314D01*
X106568888Y-102373289D01*
X106543720Y-102514480D01*
X106502686Y-102651293D01*
X106464685Y-102745822D01*
X106445310Y-102790982D01*
X106429740Y-102829415D01*
X106420095Y-102855766D01*
X106418048Y-102863454D01*
X106427126Y-102873198D01*
X106456095Y-102889917D01*
X106505283Y-102913768D01*
X106575016Y-102944907D01*
X106665621Y-102983493D01*
X106681411Y-102990090D01*
X106753728Y-103020147D01*
X106819075Y-103047126D01*
X106874594Y-103069864D01*
X106917428Y-103087194D01*
X106944719Y-103097952D01*
X106953558Y-103101059D01*
X106958313Y-103091060D01*
X106963590Y-103064783D01*
X106967269Y-103036511D01*
X106972026Y-103006354D01*
X106981472Y-102958567D01*
X106994680Y-102897388D01*
X107010724Y-102827054D01*
X107028680Y-102751806D01*
X107035703Y-102723245D01*
X107061291Y-102618184D01*
X107081353Y-102530520D01*
X107096531Y-102455932D01*
X107107465Y-102390097D01*
X107114796Y-102328693D01*
X107119165Y-102267398D01*
X107121213Y-102201890D01*
X107121611Y-102143872D01*
X107114948Y-101974426D01*
X107114948Y-101974426D01*
G37*
X107114948Y-101974426D02*
X107094933Y-101822508D01*
X107061298Y-101687244D01*
X107013775Y-101567761D01*
X106952095Y-101463185D01*
X106888535Y-101385576D01*
X106814401Y-101316735D01*
X106734629Y-101262994D01*
X106642409Y-101220090D01*
X106599339Y-101204616D01*
X106560358Y-101191756D01*
X106524211Y-101180554D01*
X106489066Y-101170880D01*
X106453090Y-101162604D01*
X106414450Y-101155597D01*
X106371315Y-101149728D01*
X106321851Y-101144869D01*
X106264227Y-101140890D01*
X106196609Y-101137660D01*
X106117166Y-101135051D01*
X106024064Y-101132933D01*
X105915473Y-101131176D01*
X105789558Y-101129651D01*
X105644488Y-101128228D01*
X105501722Y-101126975D01*
X105345532Y-101125649D01*
X105210261Y-101124444D01*
X105094254Y-101123234D01*
X104995855Y-101121894D01*
X104913407Y-101120300D01*
X104845254Y-101118325D01*
X104789740Y-101115844D01*
X104745208Y-101112731D01*
X104710002Y-101108862D01*
X104682466Y-101104111D01*
X104660944Y-101098352D01*
X104643778Y-101091461D01*
X104629314Y-101083311D01*
X104615894Y-101073777D01*
X104601862Y-101062734D01*
X104596429Y-101058434D01*
X104573590Y-101042614D01*
X104558037Y-101035578D01*
X104557578Y-101035556D01*
X104555379Y-101046433D01*
X104553353Y-101077418D01*
X104551558Y-101126043D01*
X104550049Y-101189837D01*
X104548884Y-101266331D01*
X104548120Y-101353056D01*
X104547814Y-101447543D01*
X104547811Y-101458450D01*
X104547811Y-101881343D01*
X104643878Y-101884605D01*
X104739944Y-101887867D01*
X104688957Y-101949956D01*
X104621443Y-102047286D01*
X104566751Y-102157187D01*
X104536522Y-102243651D01*
X104521834Y-102312722D01*
X104511841Y-102396075D01*
X104506854Y-102485841D01*
X104507187Y-102574155D01*
X104513149Y-102653149D01*
X104518862Y-102689378D01*
X104556724Y-102829397D01*
X104611568Y-102955822D01*
X104682576Y-103067740D01*
X104768932Y-103164238D01*
X104869821Y-103244400D01*
X104984424Y-103307313D01*
X105110516Y-103351688D01*
X105167099Y-103364022D01*
X105229298Y-103371632D01*
X105304137Y-103375261D01*
X105338033Y-103375755D01*
X105341218Y-103375690D01*
X105341218Y-102615752D01*
X105266167Y-102606459D01*
X105202340Y-102578272D01*
X105146702Y-102529803D01*
X105142289Y-102524746D01*
X105107463Y-102476452D01*
X105084880Y-102424743D01*
X105072960Y-102364011D01*
X105070117Y-102288648D01*
X105070522Y-102270541D01*
X105073175Y-102216722D01*
X105078591Y-102176692D01*
X105088755Y-102141676D01*
X105105650Y-102102897D01*
X105110828Y-102092255D01*
X105146656Y-102031604D01*
X105189288Y-101984785D01*
X105204527Y-101972048D01*
X105261038Y-101927378D01*
X105456914Y-101927378D01*
X105535561Y-101927914D01*
X105593512Y-101929604D01*
X105632625Y-101932572D01*
X105654759Y-101936943D01*
X105661226Y-101941028D01*
X105664389Y-101956953D01*
X105667012Y-101990736D01*
X105668845Y-102037660D01*
X105669643Y-102093007D01*
X105669658Y-102101894D01*
X105664404Y-102222670D01*
X105648237Y-102325340D01*
X105620539Y-102411894D01*
X105580692Y-102484319D01*
X105533742Y-102539249D01*
X105475855Y-102583796D01*
X105412807Y-102608520D01*
X105341218Y-102615752D01*
X105341218Y-103375690D01*
X105431788Y-103373822D01*
X105510688Y-103365478D01*
X105581910Y-103349232D01*
X105652636Y-103323595D01*
X105705007Y-103299599D01*
X105800304Y-103240980D01*
X105888330Y-103162883D01*
X105967483Y-103067685D01*
X106036160Y-102957762D01*
X106092759Y-102835490D01*
X106135679Y-102703245D01*
X106150618Y-102638578D01*
X106172723Y-102502396D01*
X106187306Y-102353951D01*
X106193687Y-102202495D01*
X106192055Y-102075936D01*
X106185276Y-101914050D01*
X106244255Y-101921470D01*
X106343408Y-101940762D01*
X106424128Y-101971896D01*
X106487034Y-102015731D01*
X106532744Y-102073129D01*
X106561878Y-102144952D01*
X106575053Y-102232059D01*
X106572889Y-102335314D01*
X106568888Y-102373289D01*
X106543720Y-102514480D01*
X106502686Y-102651293D01*
X106464685Y-102745822D01*
X106445310Y-102790982D01*
X106429740Y-102829415D01*
X106420095Y-102855766D01*
X106418048Y-102863454D01*
X106427126Y-102873198D01*
X106456095Y-102889917D01*
X106505283Y-102913768D01*
X106575016Y-102944907D01*
X106665621Y-102983493D01*
X106681411Y-102990090D01*
X106753728Y-103020147D01*
X106819075Y-103047126D01*
X106874594Y-103069864D01*
X106917428Y-103087194D01*
X106944719Y-103097952D01*
X106953558Y-103101059D01*
X106958313Y-103091060D01*
X106963590Y-103064783D01*
X106967269Y-103036511D01*
X106972026Y-103006354D01*
X106981472Y-102958567D01*
X106994680Y-102897388D01*
X107010724Y-102827054D01*
X107028680Y-102751806D01*
X107035703Y-102723245D01*
X107061291Y-102618184D01*
X107081353Y-102530520D01*
X107096531Y-102455932D01*
X107107465Y-102390097D01*
X107114796Y-102328693D01*
X107119165Y-102267398D01*
X107121213Y-102201890D01*
X107121611Y-102143872D01*
X107114948Y-101974426D01*
G36*
X106509255Y-98461493D02*
X106274838Y-98461474D01*
X106061897Y-98461448D01*
X105869332Y-98461375D01*
X105696041Y-98461218D01*
X105540924Y-98460936D01*
X105402880Y-98460491D01*
X105280808Y-98459844D01*
X105173606Y-98458955D01*
X105080174Y-98457787D01*
X104999410Y-98456299D01*
X104930214Y-98454454D01*
X104871485Y-98452211D01*
X104822121Y-98449531D01*
X104781022Y-98446377D01*
X104747087Y-98442708D01*
X104719214Y-98438487D01*
X104696302Y-98433673D01*
X104677251Y-98428227D01*
X104660960Y-98422112D01*
X104646327Y-98415288D01*
X104632251Y-98407715D01*
X104617632Y-98399355D01*
X104608526Y-98394161D01*
X104547811Y-98359896D01*
X104547811Y-99218045D01*
X104643767Y-99218045D01*
X104687130Y-99218776D01*
X104720295Y-99220728D01*
X104738076Y-99223537D01*
X104739722Y-99224779D01*
X104732838Y-99236201D01*
X104714995Y-99258916D01*
X104695621Y-99281615D01*
X104654886Y-99336200D01*
X104613883Y-99405679D01*
X104576377Y-99482730D01*
X104546136Y-99560035D01*
X104536488Y-99590887D01*
X104521922Y-99659384D01*
X104511961Y-99742236D01*
X104506917Y-99831629D01*
X104507104Y-99919752D01*
X104512834Y-99998793D01*
X104518642Y-100036489D01*
X104556703Y-100174586D01*
X104614427Y-100301887D01*
X104691289Y-100417708D01*
X104786761Y-100521363D01*
X104900321Y-100612167D01*
X105011119Y-100678969D01*
X105127875Y-100733836D01*
X105247224Y-100775837D01*
X105373217Y-100805833D01*
X105509906Y-100824689D01*
X105661342Y-100833268D01*
X105738789Y-100833994D01*
X105795566Y-100831900D01*
X105795566Y-100002783D01*
X105702498Y-100002576D01*
X105614808Y-99999663D01*
X105537728Y-99994000D01*
X105476491Y-99985545D01*
X105464150Y-99982962D01*
X105356867Y-99951160D01*
X105269842Y-99909502D01*
X105202858Y-99857637D01*
X105155695Y-99795219D01*
X105128135Y-99721900D01*
X105119959Y-99637331D01*
X105130949Y-99541165D01*
X105146671Y-99477689D01*
X105164861Y-99428546D01*
X105190709Y-99374417D01*
X105214411Y-99333756D01*
X105260779Y-99263200D01*
X106410970Y-99263200D01*
X106454538Y-99330608D01*
X106495460Y-99409133D01*
X106522111Y-99493319D01*
X106534035Y-99578443D01*
X106530778Y-99659784D01*
X106511885Y-99732620D01*
X106496316Y-99764574D01*
X106453319Y-99822499D01*
X106396547Y-99871456D01*
X106323925Y-99912610D01*
X106233379Y-99947126D01*
X106122834Y-99976167D01*
X106116967Y-99977448D01*
X106054712Y-99987619D01*
X105976906Y-99995261D01*
X105888780Y-100000330D01*
X105795566Y-100002783D01*
X105795566Y-100831900D01*
X105951605Y-100826143D01*
X106147441Y-100804198D01*
X106326168Y-100768214D01*
X106487655Y-100718241D01*
X106631774Y-100654332D01*
X106758394Y-100576538D01*
X106867385Y-100484911D01*
X106958617Y-100379503D01*
X106989568Y-100334338D01*
X107045715Y-100233389D01*
X107085326Y-100130099D01*
X107109486Y-100020011D01*
X107119281Y-99898670D01*
X107118235Y-99806164D01*
X107107269Y-99676510D01*
X107085454Y-99563916D01*
X107051786Y-99465125D01*
X107005264Y-99376879D01*
X106971052Y-99328014D01*
X106949138Y-99298647D01*
X106934167Y-99276957D01*
X106929767Y-99268747D01*
X106940596Y-99267132D01*
X106971249Y-99265841D01*
X107018974Y-99264862D01*
X107081021Y-99264183D01*
X107154638Y-99263790D01*
X107237073Y-99263670D01*
X107325575Y-99263812D01*
X107417393Y-99264203D01*
X107509776Y-99264829D01*
X107599972Y-99265680D01*
X107685229Y-99266740D01*
X107762797Y-99267999D01*
X107829924Y-99269444D01*
X107883859Y-99271062D01*
X107921850Y-99272839D01*
X107928833Y-99273331D01*
X107999249Y-99280908D01*
X108054398Y-99292469D01*
X108101519Y-99310208D01*
X108147853Y-99336318D01*
X108157433Y-99342585D01*
X108194122Y-99367017D01*
X108194122Y-98461689D01*
X106509255Y-98461493D01*
X106509255Y-98461493D01*
G37*
X106509255Y-98461493D02*
X106274838Y-98461474D01*
X106061897Y-98461448D01*
X105869332Y-98461375D01*
X105696041Y-98461218D01*
X105540924Y-98460936D01*
X105402880Y-98460491D01*
X105280808Y-98459844D01*
X105173606Y-98458955D01*
X105080174Y-98457787D01*
X104999410Y-98456299D01*
X104930214Y-98454454D01*
X104871485Y-98452211D01*
X104822121Y-98449531D01*
X104781022Y-98446377D01*
X104747087Y-98442708D01*
X104719214Y-98438487D01*
X104696302Y-98433673D01*
X104677251Y-98428227D01*
X104660960Y-98422112D01*
X104646327Y-98415288D01*
X104632251Y-98407715D01*
X104617632Y-98399355D01*
X104608526Y-98394161D01*
X104547811Y-98359896D01*
X104547811Y-99218045D01*
X104643767Y-99218045D01*
X104687130Y-99218776D01*
X104720295Y-99220728D01*
X104738076Y-99223537D01*
X104739722Y-99224779D01*
X104732838Y-99236201D01*
X104714995Y-99258916D01*
X104695621Y-99281615D01*
X104654886Y-99336200D01*
X104613883Y-99405679D01*
X104576377Y-99482730D01*
X104546136Y-99560035D01*
X104536488Y-99590887D01*
X104521922Y-99659384D01*
X104511961Y-99742236D01*
X104506917Y-99831629D01*
X104507104Y-99919752D01*
X104512834Y-99998793D01*
X104518642Y-100036489D01*
X104556703Y-100174586D01*
X104614427Y-100301887D01*
X104691289Y-100417708D01*
X104786761Y-100521363D01*
X104900321Y-100612167D01*
X105011119Y-100678969D01*
X105127875Y-100733836D01*
X105247224Y-100775837D01*
X105373217Y-100805833D01*
X105509906Y-100824689D01*
X105661342Y-100833268D01*
X105738789Y-100833994D01*
X105795566Y-100831900D01*
X105795566Y-100002783D01*
X105702498Y-100002576D01*
X105614808Y-99999663D01*
X105537728Y-99994000D01*
X105476491Y-99985545D01*
X105464150Y-99982962D01*
X105356867Y-99951160D01*
X105269842Y-99909502D01*
X105202858Y-99857637D01*
X105155695Y-99795219D01*
X105128135Y-99721900D01*
X105119959Y-99637331D01*
X105130949Y-99541165D01*
X105146671Y-99477689D01*
X105164861Y-99428546D01*
X105190709Y-99374417D01*
X105214411Y-99333756D01*
X105260779Y-99263200D01*
X106410970Y-99263200D01*
X106454538Y-99330608D01*
X106495460Y-99409133D01*
X106522111Y-99493319D01*
X106534035Y-99578443D01*
X106530778Y-99659784D01*
X106511885Y-99732620D01*
X106496316Y-99764574D01*
X106453319Y-99822499D01*
X106396547Y-99871456D01*
X106323925Y-99912610D01*
X106233379Y-99947126D01*
X106122834Y-99976167D01*
X106116967Y-99977448D01*
X106054712Y-99987619D01*
X105976906Y-99995261D01*
X105888780Y-100000330D01*
X105795566Y-100002783D01*
X105795566Y-100831900D01*
X105951605Y-100826143D01*
X106147441Y-100804198D01*
X106326168Y-100768214D01*
X106487655Y-100718241D01*
X106631774Y-100654332D01*
X106758394Y-100576538D01*
X106867385Y-100484911D01*
X106958617Y-100379503D01*
X106989568Y-100334338D01*
X107045715Y-100233389D01*
X107085326Y-100130099D01*
X107109486Y-100020011D01*
X107119281Y-99898670D01*
X107118235Y-99806164D01*
X107107269Y-99676510D01*
X107085454Y-99563916D01*
X107051786Y-99465125D01*
X107005264Y-99376879D01*
X106971052Y-99328014D01*
X106949138Y-99298647D01*
X106934167Y-99276957D01*
X106929767Y-99268747D01*
X106940596Y-99267132D01*
X106971249Y-99265841D01*
X107018974Y-99264862D01*
X107081021Y-99264183D01*
X107154638Y-99263790D01*
X107237073Y-99263670D01*
X107325575Y-99263812D01*
X107417393Y-99264203D01*
X107509776Y-99264829D01*
X107599972Y-99265680D01*
X107685229Y-99266740D01*
X107762797Y-99267999D01*
X107829924Y-99269444D01*
X107883859Y-99271062D01*
X107921850Y-99272839D01*
X107928833Y-99273331D01*
X107999249Y-99280908D01*
X108054398Y-99292469D01*
X108101519Y-99310208D01*
X108147853Y-99336318D01*
X108157433Y-99342585D01*
X108194122Y-99367017D01*
X108194122Y-98461689D01*
X106509255Y-98461493D01*
G36*
X108954929Y-106921043D02*
X108930691Y-106824768D01*
X108887859Y-106738184D01*
X108828081Y-106663373D01*
X108753006Y-106602418D01*
X108664280Y-106557399D01*
X108567970Y-106531136D01*
X108470705Y-106525286D01*
X108376846Y-106540140D01*
X108288989Y-106573840D01*
X108209730Y-106624528D01*
X108141664Y-106690345D01*
X108087388Y-106769434D01*
X108049498Y-106859934D01*
X108037074Y-106911200D01*
X108029553Y-106955698D01*
X108026581Y-106989999D01*
X108028406Y-107022960D01*
X108035275Y-107063434D01*
X108042250Y-107096531D01*
X108073759Y-107189947D01*
X108124883Y-107273619D01*
X108194071Y-107345665D01*
X108279772Y-107404200D01*
X108307011Y-107418148D01*
X108343378Y-107434586D01*
X108373918Y-107444894D01*
X108406050Y-107450460D01*
X108447193Y-107452669D01*
X108493278Y-107452948D01*
X108577635Y-107448861D01*
X108646914Y-107435446D01*
X108707539Y-107410256D01*
X108765933Y-107370846D01*
X108810198Y-107332298D01*
X108876016Y-107260406D01*
X108921447Y-107185313D01*
X108948650Y-107102562D01*
X108958924Y-107024928D01*
X108954929Y-106921043D01*
X108954929Y-106921043D01*
G37*
X108954929Y-106921043D02*
X108930691Y-106824768D01*
X108887859Y-106738184D01*
X108828081Y-106663373D01*
X108753006Y-106602418D01*
X108664280Y-106557399D01*
X108567970Y-106531136D01*
X108470705Y-106525286D01*
X108376846Y-106540140D01*
X108288989Y-106573840D01*
X108209730Y-106624528D01*
X108141664Y-106690345D01*
X108087388Y-106769434D01*
X108049498Y-106859934D01*
X108037074Y-106911200D01*
X108029553Y-106955698D01*
X108026581Y-106989999D01*
X108028406Y-107022960D01*
X108035275Y-107063434D01*
X108042250Y-107096531D01*
X108073759Y-107189947D01*
X108124883Y-107273619D01*
X108194071Y-107345665D01*
X108279772Y-107404200D01*
X108307011Y-107418148D01*
X108343378Y-107434586D01*
X108373918Y-107444894D01*
X108406050Y-107450460D01*
X108447193Y-107452669D01*
X108493278Y-107452948D01*
X108577635Y-107448861D01*
X108646914Y-107435446D01*
X108707539Y-107410256D01*
X108765933Y-107370846D01*
X108810198Y-107332298D01*
X108876016Y-107260406D01*
X108921447Y-107185313D01*
X108948650Y-107102562D01*
X108958924Y-107024928D01*
X108954929Y-106921043D01*
G36*
X102270278Y-73691750D02*
X102270278Y-94424500D01*
X103808141Y-94424500D01*
X103808141Y-94281625D01*
X103727960Y-94272851D01*
X103681987Y-94239220D01*
X103663494Y-94205639D01*
X103643669Y-94104523D01*
X103678210Y-94004929D01*
X103689226Y-93987938D01*
X103734310Y-93960573D01*
X103806435Y-93948300D01*
X103808389Y-93948280D01*
X103808389Y-93821250D01*
X103753936Y-93798801D01*
X103696026Y-93744667D01*
X103650850Y-93678665D01*
X103634600Y-93620615D01*
X103636518Y-93610867D01*
X103651437Y-93551336D01*
X103653167Y-93533719D01*
X103677661Y-93493037D01*
X103736428Y-93457926D01*
X103807391Y-93437692D01*
X103809242Y-93437811D01*
X103809242Y-93301813D01*
X103735391Y-93283430D01*
X103679001Y-93226950D01*
X103648725Y-93145074D01*
X103653218Y-93050502D01*
X103689226Y-92971938D01*
X103739005Y-92942195D01*
X103810438Y-92934008D01*
X103810438Y-92805250D01*
X103729191Y-92778675D01*
X103672730Y-92711617D01*
X103646994Y-92623074D01*
X103657922Y-92532046D01*
X103703744Y-92463938D01*
X103781901Y-92429370D01*
X103852670Y-92439495D01*
X103852670Y-92292609D01*
X103818989Y-92291297D01*
X103733276Y-92276048D01*
X103683566Y-92240716D01*
X103661299Y-92202000D01*
X103633118Y-92132530D01*
X103632057Y-92085779D01*
X103661399Y-92031767D01*
X103683438Y-91999907D01*
X103757559Y-91934486D01*
X103845759Y-91912808D01*
X103920316Y-91927900D01*
X103920316Y-91784144D01*
X103890044Y-91782849D01*
X103785236Y-91775277D01*
X103722115Y-91761663D01*
X103685928Y-91736442D01*
X103663361Y-91697348D01*
X103645407Y-91594986D01*
X103679332Y-91502997D01*
X103740779Y-91446596D01*
X103819744Y-91420359D01*
X103921006Y-91414359D01*
X104024272Y-91426511D01*
X104109248Y-91454731D01*
X104151285Y-91488763D01*
X104186562Y-91587512D01*
X104172215Y-91684643D01*
X104136270Y-91738241D01*
X104091581Y-91768605D01*
X104024608Y-91782998D01*
X103920316Y-91784144D01*
X103920316Y-91927900D01*
X103932986Y-91930465D01*
X104004186Y-91983049D01*
X104044305Y-92066152D01*
X104048278Y-92106750D01*
X104025212Y-92207356D01*
X103958676Y-92270381D01*
X103852670Y-92292609D01*
X103852670Y-92439495D01*
X103866676Y-92441500D01*
X103940432Y-92491096D01*
X103985536Y-92568926D01*
X103991834Y-92614750D01*
X103967220Y-92696281D01*
X103906625Y-92766137D01*
X103829916Y-92803451D01*
X103810438Y-92805250D01*
X103810438Y-92934008D01*
X103814920Y-92933494D01*
X103889794Y-92946016D01*
X103929745Y-92970350D01*
X103962914Y-93047377D01*
X103960784Y-93143434D01*
X103926792Y-93231366D01*
X103891900Y-93269397D01*
X103809242Y-93301813D01*
X103809242Y-93437811D01*
X103868477Y-93441642D01*
X103870044Y-93442282D01*
X103936294Y-93496195D01*
X103982288Y-93578222D01*
X103991834Y-93630106D01*
X103970578Y-93682110D01*
X103919937Y-93744975D01*
X103859596Y-93798189D01*
X103809242Y-93821238D01*
X103808389Y-93821250D01*
X103808389Y-93948280D01*
X103811194Y-93948250D01*
X103893954Y-93965424D01*
X103951369Y-94026463D01*
X103954227Y-94031284D01*
X103985301Y-94097134D01*
X103981590Y-94151102D01*
X103960851Y-94197972D01*
X103920389Y-94255316D01*
X103861969Y-94278661D01*
X103808141Y-94281625D01*
X103808141Y-94424500D01*
X104211843Y-94424500D01*
X104211843Y-91277747D01*
X104103799Y-91276758D01*
X104012527Y-91274340D01*
X103874743Y-91269650D01*
X103782595Y-91263196D01*
X103725280Y-91252398D01*
X103691994Y-91234681D01*
X103671932Y-91207466D01*
X103664263Y-91191258D01*
X103643674Y-91084780D01*
X103677219Y-90990818D01*
X103719409Y-90946904D01*
X103780092Y-90922891D01*
X103879210Y-90907190D01*
X103999199Y-90900125D01*
X104122496Y-90902019D01*
X104195366Y-90909488D01*
X104195366Y-90805000D01*
X104036357Y-90802652D01*
X103900329Y-90796121D01*
X103797811Y-90786181D01*
X103739333Y-90773605D01*
X103734387Y-90771175D01*
X103667438Y-90699590D01*
X103644660Y-90602952D01*
X103668691Y-90499204D01*
X103689226Y-90463688D01*
X103718744Y-90447451D01*
X103785167Y-90435820D01*
X103893853Y-90428358D01*
X104050156Y-90424629D01*
X104176718Y-90424000D01*
X104365999Y-90425309D01*
X104399773Y-90426663D01*
X104399773Y-90297000D01*
X103763490Y-90297000D01*
X103692465Y-90217097D01*
X103642259Y-90126387D01*
X103647006Y-90035449D01*
X103703744Y-89955688D01*
X103736734Y-89941831D01*
X103803699Y-89931249D01*
X103909504Y-89923664D01*
X104059011Y-89918803D01*
X104257085Y-89916389D01*
X104259464Y-89916383D01*
X104259464Y-89784081D01*
X104079535Y-89783349D01*
X103930536Y-89781533D01*
X103819944Y-89778704D01*
X103755234Y-89774933D01*
X103743668Y-89773121D01*
X103678189Y-89727304D01*
X103644405Y-89647884D01*
X103644826Y-89555612D01*
X103681961Y-89471236D01*
X103704268Y-89447257D01*
X103730780Y-89435606D01*
X103784081Y-89426584D01*
X103869026Y-89420029D01*
X103990469Y-89415779D01*
X104153265Y-89413671D01*
X104362267Y-89413542D01*
X104622330Y-89415230D01*
X104652847Y-89415507D01*
X104879172Y-89417603D01*
X104879172Y-89280514D01*
X104587776Y-89280466D01*
X104347681Y-89279697D01*
X104153743Y-89277677D01*
X104000818Y-89273879D01*
X103883764Y-89267775D01*
X103797436Y-89258837D01*
X103736691Y-89246537D01*
X103696385Y-89230346D01*
X103671375Y-89209737D01*
X103656518Y-89184182D01*
X103646896Y-89154000D01*
X103647309Y-89054540D01*
X103697308Y-88966707D01*
X103719409Y-88946654D01*
X103742464Y-88934535D01*
X103781335Y-88924640D01*
X103841219Y-88916758D01*
X103927312Y-88910681D01*
X104044810Y-88906197D01*
X104198912Y-88903098D01*
X104394813Y-88901174D01*
X104637711Y-88900215D01*
X104874858Y-88900000D01*
X105178281Y-88900855D01*
X105439779Y-88903367D01*
X105656678Y-88907461D01*
X105740012Y-88910212D01*
X105740012Y-88767181D01*
X105447584Y-88766969D01*
X105101537Y-88765432D01*
X105090114Y-88765365D01*
X103697158Y-88757125D01*
X103664317Y-88683008D01*
X103643678Y-88576572D01*
X103677180Y-88482621D01*
X103719409Y-88438654D01*
X103763291Y-88426238D01*
X103856682Y-88415499D01*
X103992664Y-88406430D01*
X104164322Y-88399023D01*
X104364738Y-88393271D01*
X104586996Y-88389169D01*
X104824179Y-88386709D01*
X105069371Y-88385883D01*
X105315656Y-88386686D01*
X105556117Y-88389110D01*
X105783837Y-88393149D01*
X105991900Y-88398795D01*
X106173390Y-88406041D01*
X106321389Y-88414882D01*
X106428982Y-88425309D01*
X106489251Y-88437316D01*
X106497332Y-88441426D01*
X106542349Y-88508359D01*
X106560793Y-88600041D01*
X106550406Y-88688844D01*
X106521563Y-88737665D01*
X106493483Y-88746514D01*
X106428174Y-88753720D01*
X106322903Y-88759338D01*
X106174941Y-88763418D01*
X105981554Y-88766015D01*
X105740012Y-88767181D01*
X105740012Y-88910212D01*
X105826307Y-88913062D01*
X105945993Y-88920095D01*
X106013063Y-88928484D01*
X106025042Y-88932478D01*
X106094025Y-89003844D01*
X106118557Y-89095678D01*
X106097707Y-89188769D01*
X106040776Y-89256702D01*
X106006597Y-89261812D01*
X105922164Y-89266560D01*
X105793668Y-89270818D01*
X105627298Y-89274460D01*
X105429246Y-89277357D01*
X105205701Y-89279385D01*
X104962855Y-89280415D01*
X104879172Y-89280514D01*
X104879172Y-89417603D01*
X105556024Y-89423875D01*
X105599429Y-89511188D01*
X105626893Y-89580257D01*
X105621395Y-89636444D01*
X105599430Y-89685813D01*
X105556026Y-89773125D01*
X104682208Y-89782008D01*
X104462847Y-89783657D01*
X104259464Y-89784081D01*
X104259464Y-89916383D01*
X104404850Y-89916000D01*
X104613698Y-89916170D01*
X104773321Y-89917163D01*
X104890938Y-89919709D01*
X104973770Y-89924533D01*
X105029034Y-89932364D01*
X105063952Y-89943930D01*
X105085741Y-89959957D01*
X105101622Y-89981174D01*
X105105011Y-89986565D01*
X105145078Y-90087488D01*
X105130353Y-90178257D01*
X105092500Y-90233500D01*
X105071174Y-90254060D01*
X105043586Y-90269640D01*
X105002246Y-90280926D01*
X104939664Y-90288605D01*
X104848348Y-90293364D01*
X104720810Y-90295890D01*
X104549558Y-90296868D01*
X104399773Y-90297000D01*
X104399773Y-90426663D01*
X104506158Y-90430929D01*
X104604494Y-90443400D01*
X104668307Y-90465261D01*
X104704898Y-90499052D01*
X104721565Y-90547312D01*
X104725609Y-90612583D01*
X104725612Y-90614968D01*
X104718904Y-90682200D01*
X104694041Y-90731791D01*
X104643912Y-90766288D01*
X104561407Y-90788242D01*
X104439413Y-90800199D01*
X104270822Y-90804709D01*
X104195366Y-90805000D01*
X104195366Y-90909488D01*
X104231541Y-90913196D01*
X104308770Y-90933978D01*
X104312891Y-90935984D01*
X104379442Y-91000389D01*
X104403463Y-91092114D01*
X104380648Y-91191754D01*
X104372873Y-91206264D01*
X104350927Y-91239674D01*
X104324226Y-91261317D01*
X104281592Y-91273304D01*
X104211843Y-91277747D01*
X104211843Y-94424500D01*
X106788399Y-94424500D01*
X106788399Y-88296750D01*
X105289484Y-88296750D01*
X104901737Y-88296117D01*
X104570065Y-88294211D01*
X104294110Y-88291026D01*
X104073514Y-88286553D01*
X103907917Y-88280784D01*
X103796961Y-88273712D01*
X103740289Y-88265329D01*
X103734387Y-88262925D01*
X103667438Y-88191340D01*
X103644660Y-88094702D01*
X103668691Y-87990954D01*
X103689226Y-87955438D01*
X103707284Y-87946467D01*
X103750569Y-87938852D01*
X103822722Y-87932501D01*
X103927379Y-87927323D01*
X104068181Y-87923228D01*
X104248766Y-87920124D01*
X104472774Y-87917920D01*
X104683023Y-87916839D01*
X104683023Y-87783482D01*
X104402634Y-87782458D01*
X104173602Y-87780080D01*
X103994235Y-87776322D01*
X103862841Y-87771158D01*
X103777729Y-87764561D01*
X103737206Y-87756506D01*
X103735652Y-87755687D01*
X103668392Y-87685309D01*
X103643919Y-87593619D01*
X103664257Y-87500877D01*
X103704838Y-87447438D01*
X103726948Y-87438589D01*
X103774617Y-87431052D01*
X103851411Y-87424741D01*
X103960891Y-87419572D01*
X104106621Y-87415460D01*
X104292164Y-87412320D01*
X104521083Y-87410067D01*
X104796941Y-87408616D01*
X105123301Y-87407883D01*
X105370839Y-87407750D01*
X105372397Y-87407750D01*
X105372397Y-87280750D01*
X103741931Y-87280750D01*
X103686168Y-87200998D01*
X103646769Y-87102963D01*
X103657788Y-87006331D01*
X103704497Y-86939438D01*
X103726696Y-86930588D01*
X103774465Y-86923050D01*
X103851369Y-86916739D01*
X103960971Y-86911569D01*
X104106833Y-86907457D01*
X104292517Y-86904317D01*
X104521588Y-86902064D01*
X104797607Y-86900614D01*
X105124137Y-86899882D01*
X105370839Y-86899750D01*
X105453600Y-86899780D01*
X105453600Y-86772755D01*
X105275059Y-86772750D01*
X104934187Y-86772695D01*
X104645365Y-86772273D01*
X104404199Y-86771098D01*
X104206296Y-86768785D01*
X104047262Y-86764949D01*
X103922703Y-86759204D01*
X103828225Y-86751164D01*
X103759434Y-86740444D01*
X103711936Y-86726659D01*
X103681337Y-86709423D01*
X103663244Y-86688351D01*
X103653262Y-86663057D01*
X103646997Y-86633155D01*
X103646402Y-86629875D01*
X103642939Y-86561598D01*
X103667763Y-86499208D01*
X103704167Y-86447313D01*
X103716484Y-86435181D01*
X103736399Y-86424947D01*
X103768436Y-86416451D01*
X103817119Y-86409532D01*
X103886973Y-86404030D01*
X103982523Y-86399786D01*
X104108292Y-86396638D01*
X104268805Y-86394428D01*
X104468587Y-86392994D01*
X104712162Y-86392178D01*
X105004054Y-86391818D01*
X105274039Y-86391750D01*
X105620683Y-86391774D01*
X105915138Y-86392170D01*
X106161661Y-86393431D01*
X106364508Y-86396046D01*
X106515558Y-86400169D01*
X106515558Y-86248875D01*
X103697167Y-86248875D01*
X103664321Y-86174758D01*
X103643678Y-86068326D01*
X103677177Y-85974376D01*
X103719409Y-85930404D01*
X103740676Y-85919281D01*
X103776891Y-85910029D01*
X103832787Y-85902487D01*
X103913098Y-85896498D01*
X104022557Y-85891901D01*
X104165896Y-85888537D01*
X104347848Y-85886246D01*
X104573148Y-85884870D01*
X104846527Y-85884249D01*
X105091725Y-85884184D01*
X105360487Y-85884653D01*
X105516680Y-85885377D01*
X105516680Y-85785530D01*
X105320958Y-85784901D01*
X105078497Y-85783300D01*
X104859238Y-85781593D01*
X103732804Y-85772625D01*
X103678874Y-85697671D01*
X103633151Y-85613007D01*
X103636016Y-85540045D01*
X103688649Y-85460021D01*
X103694218Y-85453682D01*
X103763490Y-85375750D01*
X104875745Y-85375750D01*
X105091811Y-85375826D01*
X105091811Y-85244323D01*
X104888269Y-85243409D01*
X104634258Y-85241352D01*
X104627657Y-85241293D01*
X103697147Y-85232875D01*
X103663483Y-85156889D01*
X103643669Y-85055763D01*
X103678220Y-84956163D01*
X103689226Y-84939188D01*
X103710851Y-84927550D01*
X103741931Y-84921784D01*
X103741931Y-84772500D01*
X103686168Y-84692748D01*
X103646769Y-84594713D01*
X103657788Y-84498081D01*
X103704497Y-84431188D01*
X103737459Y-84417205D01*
X103804590Y-84406558D01*
X103910777Y-84398967D01*
X104060907Y-84394148D01*
X104205162Y-84392461D01*
X104205162Y-84264067D01*
X104022637Y-84262877D01*
X103888356Y-84258545D01*
X103794130Y-84249245D01*
X103731771Y-84233150D01*
X103693089Y-84208432D01*
X103669896Y-84173265D01*
X103658699Y-84142139D01*
X103645881Y-84033672D01*
X103683461Y-83948978D01*
X103707863Y-83924198D01*
X103755317Y-83906487D01*
X103852606Y-83894091D01*
X104001973Y-83886819D01*
X104021076Y-83886567D01*
X104021076Y-83756500D01*
X103870313Y-83752509D01*
X103766299Y-83738416D01*
X103699677Y-83711045D01*
X103661088Y-83667221D01*
X103646896Y-83629500D01*
X103647309Y-83530040D01*
X103697308Y-83442207D01*
X103719409Y-83422154D01*
X103781846Y-83397237D01*
X103882178Y-83381710D01*
X103953026Y-83378200D01*
X103953026Y-83250839D01*
X103845116Y-83249078D01*
X103746999Y-83226361D01*
X103681389Y-83185000D01*
X103633113Y-83107244D01*
X103636519Y-83032168D01*
X103692257Y-82947649D01*
X103694218Y-82945432D01*
X103755617Y-82893484D01*
X103832160Y-82870843D01*
X103846825Y-82870127D01*
X103846825Y-82735763D01*
X103818191Y-82734503D01*
X103731996Y-82718767D01*
X103682477Y-82682556D01*
X103663320Y-82648639D01*
X103643664Y-82547355D01*
X103678388Y-82447637D01*
X103689226Y-82430938D01*
X103736060Y-82404399D01*
X103813872Y-82392850D01*
X103817412Y-82392998D01*
X103817412Y-82264250D01*
X103761752Y-82242846D01*
X103698264Y-82190680D01*
X103692465Y-82184347D01*
X103642259Y-82093637D01*
X103647006Y-82002699D01*
X103703744Y-81922938D01*
X103782555Y-81886754D01*
X103841868Y-81891580D01*
X103841868Y-81750567D01*
X103761556Y-81731246D01*
X103695319Y-81677801D01*
X103652112Y-81602541D01*
X103640889Y-81517776D01*
X103670604Y-81435816D01*
X103696465Y-81406100D01*
X103746335Y-81386611D01*
X103826031Y-81379908D01*
X103855032Y-81381248D01*
X103872809Y-81384492D01*
X103872809Y-81244741D01*
X103777417Y-81239094D01*
X103720117Y-81214330D01*
X103661222Y-81149064D01*
X103642723Y-81062923D01*
X103661738Y-80975795D01*
X103715385Y-80907570D01*
X103768199Y-80882596D01*
X103878961Y-80874751D01*
X103878961Y-80735429D01*
X103833219Y-80734190D01*
X103744429Y-80721845D01*
X103693093Y-80694683D01*
X103661312Y-80645000D01*
X103633121Y-80575533D01*
X103632056Y-80528783D01*
X103661397Y-80474770D01*
X103683438Y-80442907D01*
X103756192Y-80379563D01*
X103845947Y-80356269D01*
X103909147Y-80365074D01*
X103909147Y-80227546D01*
X103829268Y-80226008D01*
X103740914Y-80212902D01*
X103690167Y-80183695D01*
X103663333Y-80140389D01*
X103643664Y-80039117D01*
X103678375Y-79939408D01*
X103689226Y-79922688D01*
X103734126Y-79898371D01*
X103813112Y-79885734D01*
X103904772Y-79884873D01*
X103915048Y-79886237D01*
X103915048Y-79738564D01*
X103807087Y-79738475D01*
X103720736Y-79699690D01*
X103662476Y-79633759D01*
X103638789Y-79552235D01*
X103656157Y-79466669D01*
X103719409Y-79389904D01*
X103814575Y-79344654D01*
X103886827Y-79345149D01*
X103886827Y-79248000D01*
X103769993Y-79226820D01*
X103687668Y-79169932D01*
X103645631Y-79087320D01*
X103649662Y-78988966D01*
X103689226Y-78906688D01*
X103736577Y-78879905D01*
X103817375Y-78867532D01*
X103861488Y-78868272D01*
X103861488Y-78740000D01*
X103772808Y-78730378D01*
X103713437Y-78693482D01*
X103682943Y-78655637D01*
X103641729Y-78556953D01*
X103654733Y-78463439D01*
X103703744Y-78398688D01*
X103770598Y-78369489D01*
X103837297Y-78363010D01*
X103837297Y-78225440D01*
X103747613Y-78214072D01*
X103695741Y-78188978D01*
X103663184Y-78140836D01*
X103661325Y-78136750D01*
X103633125Y-78067286D01*
X103632055Y-78020536D01*
X103661395Y-77966524D01*
X103683438Y-77934657D01*
X103735922Y-77878183D01*
X103802760Y-77854375D01*
X103857972Y-77851374D01*
X103857972Y-77724000D01*
X103741787Y-77703212D01*
X103666152Y-77642249D01*
X103644531Y-77597000D01*
X103630151Y-77534381D01*
X103642442Y-77486703D01*
X103689095Y-77426714D01*
X103694218Y-77420932D01*
X103781232Y-77357444D01*
X103876613Y-77339791D01*
X103940764Y-77356562D01*
X103940764Y-77210133D01*
X103846644Y-77209812D01*
X103753574Y-77198934D01*
X103699727Y-77176375D01*
X103667987Y-77134271D01*
X103664174Y-77126008D01*
X103643669Y-77019461D01*
X103677284Y-76925480D01*
X103719409Y-76881654D01*
X103814575Y-76836404D01*
X103835372Y-76836546D01*
X103835372Y-76739612D01*
X103741573Y-76714920D01*
X103704778Y-76687205D01*
X103667121Y-76615325D01*
X103653980Y-76520220D01*
X103667203Y-76432116D01*
X103687034Y-76396850D01*
X103734501Y-76373483D01*
X103813519Y-76360034D01*
X103847089Y-76358750D01*
X103859412Y-76360772D01*
X103859412Y-76227656D01*
X103769748Y-76211972D01*
X103694590Y-76156962D01*
X103652306Y-76075982D01*
X103645993Y-75987618D01*
X103678753Y-75910458D01*
X103714332Y-75879659D01*
X103811408Y-75852102D01*
X103831604Y-75855236D01*
X103831604Y-75722741D01*
X103741243Y-75699170D01*
X103676923Y-75637116D01*
X103644810Y-75552985D01*
X103651070Y-75463184D01*
X103701865Y-75384122D01*
X103703744Y-75382438D01*
X103777619Y-75349623D01*
X103791760Y-75349132D01*
X103791760Y-75211109D01*
X103712307Y-75185039D01*
X103657714Y-75121618D01*
X103653734Y-75111613D01*
X103632211Y-75043665D01*
X103634720Y-74997922D01*
X103666008Y-74943505D01*
X103683438Y-74918407D01*
X103761351Y-74849123D01*
X103775882Y-74847418D01*
X103775882Y-74700760D01*
X103699763Y-74664792D01*
X103664132Y-74617758D01*
X103643659Y-74511503D01*
X103677191Y-74418252D01*
X103724501Y-74370882D01*
X103784504Y-74347247D01*
X103784504Y-74215538D01*
X103703387Y-74175495D01*
X103653364Y-74094487D01*
X103632370Y-74033209D01*
X103630850Y-73997737D01*
X103649143Y-73954139D01*
X103654883Y-73942143D01*
X103718677Y-73868653D01*
X103807448Y-73838538D01*
X103892625Y-73856057D01*
X103961807Y-73920132D01*
X103989238Y-74007117D01*
X103975518Y-74097941D01*
X103921247Y-74173532D01*
X103881864Y-74198390D01*
X103784504Y-74215538D01*
X103784504Y-74347247D01*
X103807762Y-74338085D01*
X103885236Y-74353627D01*
X103947488Y-74404845D01*
X103985081Y-74479073D01*
X103988579Y-74563648D01*
X103948544Y-74645907D01*
X103938029Y-74657438D01*
X103862706Y-74699381D01*
X103775882Y-74700760D01*
X103775882Y-74847418D01*
X103849887Y-74838729D01*
X103938234Y-74887373D01*
X103963996Y-74914586D01*
X104008234Y-74980705D01*
X104013650Y-75041372D01*
X104003691Y-75080708D01*
X103955009Y-75157392D01*
X103878513Y-75201376D01*
X103791760Y-75211109D01*
X103791760Y-75349132D01*
X103873076Y-75346305D01*
X103961371Y-75373233D01*
X103965467Y-75375618D01*
X104007501Y-75428566D01*
X104020056Y-75522930D01*
X104000730Y-75632606D01*
X103941370Y-75698416D01*
X103839901Y-75722559D01*
X103831604Y-75722741D01*
X103831604Y-75855236D01*
X103916163Y-75868358D01*
X104004554Y-75922883D01*
X104028612Y-75952121D01*
X104064891Y-76014705D01*
X104066958Y-76060311D01*
X104038114Y-76118304D01*
X103961054Y-76197319D01*
X103859412Y-76227656D01*
X103859412Y-76360772D01*
X103963139Y-76377795D01*
X104040513Y-76429150D01*
X104074473Y-76504147D01*
X104060281Y-76594116D01*
X104015137Y-76666267D01*
X103934502Y-76722858D01*
X103835372Y-76739612D01*
X103835372Y-76836546D01*
X103912105Y-76837073D01*
X103997729Y-76877361D01*
X104057174Y-76950969D01*
X104076500Y-77039288D01*
X104064195Y-77132360D01*
X104021725Y-77187249D01*
X103940764Y-77210133D01*
X103940764Y-77356562D01*
X103966460Y-77363280D01*
X104036872Y-77423215D01*
X104073947Y-77514900D01*
X104076500Y-77550059D01*
X104060778Y-77641877D01*
X104009083Y-77697285D01*
X103914625Y-77721691D01*
X103857972Y-77724000D01*
X103857972Y-77851374D01*
X103864834Y-77851000D01*
X103953841Y-77859796D01*
X104012671Y-77893892D01*
X104046724Y-77935364D01*
X104090669Y-78033178D01*
X104083662Y-78118143D01*
X104030978Y-78182950D01*
X103937894Y-78220292D01*
X103837297Y-78225440D01*
X103837297Y-78363010D01*
X103864936Y-78360324D01*
X103960763Y-78370920D01*
X104032080Y-78401006D01*
X104033477Y-78402131D01*
X104074897Y-78470673D01*
X104085672Y-78563739D01*
X104065801Y-78652532D01*
X104033477Y-78696870D01*
X103972432Y-78724365D01*
X103885774Y-78739174D01*
X103861488Y-78740000D01*
X103861488Y-78868272D01*
X103910197Y-78869090D01*
X103993619Y-78884098D01*
X104046217Y-78912077D01*
X104048350Y-78914723D01*
X104085127Y-79006271D01*
X104075986Y-79101163D01*
X104028737Y-79183284D01*
X103951192Y-79236518D01*
X103886827Y-79248000D01*
X103886827Y-79345149D01*
X103912105Y-79345323D01*
X103997729Y-79385611D01*
X104057174Y-79459219D01*
X104076500Y-79547538D01*
X104062713Y-79644355D01*
X104014571Y-79703553D01*
X103921905Y-79737165D01*
X103915048Y-79738564D01*
X103915048Y-79886237D01*
X103987694Y-79895886D01*
X104040466Y-79918867D01*
X104042634Y-79921101D01*
X104066407Y-79977855D01*
X104076498Y-80061516D01*
X104076500Y-80062858D01*
X104059688Y-80152781D01*
X104005686Y-80206501D01*
X103909147Y-80227546D01*
X103909147Y-80365074D01*
X103937604Y-80369039D01*
X104016063Y-80413889D01*
X104066223Y-80486834D01*
X104076500Y-80546630D01*
X104054382Y-80649285D01*
X103988366Y-80712348D01*
X103878961Y-80735429D01*
X103878961Y-80874751D01*
X103887965Y-80874113D01*
X103984063Y-80908886D01*
X104044814Y-80982584D01*
X104046092Y-80985657D01*
X104057709Y-81076057D01*
X104024803Y-81154911D01*
X103959220Y-81213910D01*
X103872809Y-81244741D01*
X103872809Y-81384492D01*
X103941215Y-81396978D01*
X103990732Y-81433180D01*
X104009922Y-81467153D01*
X104027909Y-81569475D01*
X103993000Y-81662207D01*
X103927301Y-81723452D01*
X103841868Y-81750567D01*
X103841868Y-81891580D01*
X103870601Y-81893918D01*
X103950697Y-81936364D01*
X104005662Y-82006023D01*
X104020056Y-82071446D01*
X103996596Y-82136324D01*
X103939453Y-82202429D01*
X103868479Y-82250870D01*
X103817412Y-82264250D01*
X103817412Y-82392998D01*
X103898762Y-82396420D01*
X103966832Y-82415235D01*
X103986189Y-82429351D01*
X104013159Y-82495204D01*
X104018236Y-82585893D01*
X104002146Y-82669892D01*
X103979808Y-82706803D01*
X103927852Y-82728108D01*
X103846825Y-82735763D01*
X103846825Y-82870127D01*
X103900563Y-82867500D01*
X104017849Y-82886737D01*
X104104266Y-82938091D01*
X104153499Y-83012032D01*
X104159237Y-83099031D01*
X104115167Y-83189555D01*
X104114460Y-83190438D01*
X104049788Y-83231380D01*
X103953026Y-83250839D01*
X103953026Y-83378200D01*
X104002455Y-83375751D01*
X104124723Y-83379537D01*
X104231033Y-83393246D01*
X104302278Y-83416392D01*
X104362291Y-83481483D01*
X104383389Y-83572248D01*
X104362176Y-83665008D01*
X104342353Y-83695808D01*
X104311304Y-83724662D01*
X104266236Y-83742794D01*
X104194828Y-83752533D01*
X104084756Y-83756206D01*
X104021076Y-83756500D01*
X104021076Y-83886567D01*
X104176940Y-83884510D01*
X104362872Y-83885705D01*
X104499772Y-83892059D01*
X104595006Y-83906205D01*
X104655940Y-83930779D01*
X104689942Y-83968415D01*
X104704378Y-84021747D01*
X104706797Y-84074000D01*
X104701784Y-84142575D01*
X104681728Y-84192568D01*
X104639100Y-84226832D01*
X104566374Y-84248218D01*
X104456020Y-84259580D01*
X104300513Y-84263769D01*
X104205162Y-84264067D01*
X104205162Y-84392461D01*
X104259869Y-84391821D01*
X104392339Y-84391500D01*
X104599597Y-84391761D01*
X104757883Y-84393012D01*
X104874668Y-84395957D01*
X104957426Y-84401302D01*
X105013627Y-84409752D01*
X105050743Y-84422009D01*
X105076246Y-84438780D01*
X105094946Y-84457752D01*
X105137564Y-84532271D01*
X105135409Y-84606603D01*
X105121850Y-84656785D01*
X105101806Y-84695536D01*
X105068477Y-84724344D01*
X105015066Y-84744698D01*
X104934775Y-84758084D01*
X104820805Y-84765990D01*
X104666359Y-84769904D01*
X104464638Y-84771314D01*
X104381938Y-84771491D01*
X103741931Y-84772500D01*
X103741931Y-84921784D01*
X103761093Y-84918228D01*
X103844539Y-84911025D01*
X103965776Y-84905746D01*
X104129391Y-84902197D01*
X104339969Y-84900181D01*
X104602099Y-84899503D01*
X104621012Y-84899500D01*
X104873973Y-84899797D01*
X105076472Y-84900907D01*
X105234488Y-84903159D01*
X105354003Y-84906880D01*
X105440994Y-84912401D01*
X105501444Y-84920049D01*
X105541332Y-84930154D01*
X105566639Y-84943043D01*
X105577112Y-84952046D01*
X105622102Y-85036241D01*
X105620183Y-85135057D01*
X105593445Y-85195537D01*
X105579860Y-85210354D01*
X105556638Y-85222095D01*
X105517946Y-85231035D01*
X105457951Y-85237452D01*
X105370818Y-85241621D01*
X105250716Y-85243820D01*
X105091811Y-85244323D01*
X105091811Y-85375826D01*
X105155726Y-85375849D01*
X105384811Y-85376350D01*
X105568545Y-85377560D01*
X105712477Y-85379788D01*
X105822153Y-85383341D01*
X105903122Y-85388527D01*
X105960930Y-85395653D01*
X106001125Y-85405027D01*
X106029253Y-85416957D01*
X106050863Y-85431749D01*
X106062361Y-85441555D01*
X106123798Y-85526042D01*
X106130338Y-85616258D01*
X106082018Y-85703334D01*
X106061197Y-85723726D01*
X106040989Y-85740426D01*
X106018128Y-85754031D01*
X105987106Y-85764806D01*
X105942410Y-85773018D01*
X105878530Y-85778931D01*
X105789956Y-85782810D01*
X105671176Y-85784922D01*
X105516680Y-85785530D01*
X105516680Y-85885377D01*
X105613302Y-85885825D01*
X105844287Y-85887620D01*
X106047561Y-85889960D01*
X106217241Y-85892764D01*
X106347447Y-85895953D01*
X106432295Y-85899448D01*
X106464837Y-85902733D01*
X106522728Y-85943343D01*
X106562516Y-86000046D01*
X106585221Y-86068326D01*
X106573002Y-86131327D01*
X106557875Y-86164059D01*
X106515558Y-86248875D01*
X106515558Y-86400169D01*
X106527935Y-86400507D01*
X106656199Y-86407303D01*
X106753556Y-86416925D01*
X106824261Y-86429863D01*
X106872571Y-86446609D01*
X106902742Y-86467652D01*
X106919030Y-86493484D01*
X106925692Y-86524595D01*
X106926983Y-86561474D01*
X106926945Y-86582250D01*
X106926742Y-86622213D01*
X106923294Y-86656157D01*
X106912345Y-86684574D01*
X106889636Y-86707955D01*
X106850911Y-86726790D01*
X106791910Y-86741570D01*
X106708379Y-86752788D01*
X106596057Y-86760933D01*
X106450689Y-86766496D01*
X106268017Y-86769969D01*
X106043783Y-86771842D01*
X105773730Y-86772607D01*
X105453600Y-86772755D01*
X105453600Y-86899780D01*
X105716643Y-86899879D01*
X106010380Y-86900358D01*
X106256425Y-86901323D01*
X106459155Y-86902913D01*
X106622946Y-86905265D01*
X106752175Y-86908515D01*
X106851218Y-86912802D01*
X106924451Y-86918263D01*
X106976251Y-86925035D01*
X107010993Y-86933256D01*
X107033055Y-86943063D01*
X107044667Y-86952296D01*
X107088376Y-87035144D01*
X107089703Y-87134516D01*
X107049571Y-87222688D01*
X107037295Y-87234970D01*
X107018874Y-87245391D01*
X106989909Y-87254103D01*
X106946000Y-87261258D01*
X106882749Y-87267009D01*
X106795758Y-87271508D01*
X106680626Y-87274907D01*
X106532955Y-87277359D01*
X106348347Y-87279015D01*
X106122401Y-87280029D01*
X105850720Y-87280552D01*
X105528904Y-87280737D01*
X105372397Y-87280750D01*
X105372397Y-87407750D01*
X105716643Y-87407879D01*
X106010380Y-87408358D01*
X106256425Y-87409323D01*
X106459155Y-87410913D01*
X106622946Y-87413265D01*
X106752175Y-87416515D01*
X106851218Y-87420802D01*
X106924451Y-87426263D01*
X106976251Y-87433035D01*
X107010993Y-87441256D01*
X107033055Y-87451063D01*
X107044667Y-87460296D01*
X107089871Y-87544628D01*
X107086532Y-87644343D01*
X107056231Y-87711245D01*
X107046002Y-87724342D01*
X107030747Y-87735478D01*
X107006049Y-87744841D01*
X106967490Y-87752618D01*
X106910653Y-87758998D01*
X106831121Y-87764169D01*
X106724477Y-87768319D01*
X106586303Y-87771635D01*
X106412181Y-87774307D01*
X106197696Y-87776523D01*
X105938428Y-87778469D01*
X105629961Y-87780336D01*
X105404641Y-87781575D01*
X105016462Y-87783179D01*
X104683023Y-87783482D01*
X104683023Y-87916839D01*
X104743842Y-87916526D01*
X105065610Y-87915849D01*
X105276155Y-87915750D01*
X106835787Y-87915750D01*
X106881366Y-87994008D01*
X106919241Y-88073914D01*
X106917084Y-88134823D01*
X106872220Y-88202117D01*
X106857672Y-88218819D01*
X106788399Y-88296750D01*
X106788399Y-94424500D01*
X109410500Y-94424500D01*
X109410500Y-73691750D01*
X102270278Y-73691750D01*
X102270278Y-73691750D01*
G37*
X102270278Y-73691750D02*
X102270278Y-94424500D01*
X103808141Y-94424500D01*
X103808141Y-94281625D01*
X103727960Y-94272851D01*
X103681987Y-94239220D01*
X103663494Y-94205639D01*
X103643669Y-94104523D01*
X103678210Y-94004929D01*
X103689226Y-93987938D01*
X103734310Y-93960573D01*
X103806435Y-93948300D01*
X103808389Y-93948280D01*
X103808389Y-93821250D01*
X103753936Y-93798801D01*
X103696026Y-93744667D01*
X103650850Y-93678665D01*
X103634600Y-93620615D01*
X103636518Y-93610867D01*
X103651437Y-93551336D01*
X103653167Y-93533719D01*
X103677661Y-93493037D01*
X103736428Y-93457926D01*
X103807391Y-93437692D01*
X103809242Y-93437811D01*
X103809242Y-93301813D01*
X103735391Y-93283430D01*
X103679001Y-93226950D01*
X103648725Y-93145074D01*
X103653218Y-93050502D01*
X103689226Y-92971938D01*
X103739005Y-92942195D01*
X103810438Y-92934008D01*
X103810438Y-92805250D01*
X103729191Y-92778675D01*
X103672730Y-92711617D01*
X103646994Y-92623074D01*
X103657922Y-92532046D01*
X103703744Y-92463938D01*
X103781901Y-92429370D01*
X103852670Y-92439495D01*
X103852670Y-92292609D01*
X103818989Y-92291297D01*
X103733276Y-92276048D01*
X103683566Y-92240716D01*
X103661299Y-92202000D01*
X103633118Y-92132530D01*
X103632057Y-92085779D01*
X103661399Y-92031767D01*
X103683438Y-91999907D01*
X103757559Y-91934486D01*
X103845759Y-91912808D01*
X103920316Y-91927900D01*
X103920316Y-91784144D01*
X103890044Y-91782849D01*
X103785236Y-91775277D01*
X103722115Y-91761663D01*
X103685928Y-91736442D01*
X103663361Y-91697348D01*
X103645407Y-91594986D01*
X103679332Y-91502997D01*
X103740779Y-91446596D01*
X103819744Y-91420359D01*
X103921006Y-91414359D01*
X104024272Y-91426511D01*
X104109248Y-91454731D01*
X104151285Y-91488763D01*
X104186562Y-91587512D01*
X104172215Y-91684643D01*
X104136270Y-91738241D01*
X104091581Y-91768605D01*
X104024608Y-91782998D01*
X103920316Y-91784144D01*
X103920316Y-91927900D01*
X103932986Y-91930465D01*
X104004186Y-91983049D01*
X104044305Y-92066152D01*
X104048278Y-92106750D01*
X104025212Y-92207356D01*
X103958676Y-92270381D01*
X103852670Y-92292609D01*
X103852670Y-92439495D01*
X103866676Y-92441500D01*
X103940432Y-92491096D01*
X103985536Y-92568926D01*
X103991834Y-92614750D01*
X103967220Y-92696281D01*
X103906625Y-92766137D01*
X103829916Y-92803451D01*
X103810438Y-92805250D01*
X103810438Y-92934008D01*
X103814920Y-92933494D01*
X103889794Y-92946016D01*
X103929745Y-92970350D01*
X103962914Y-93047377D01*
X103960784Y-93143434D01*
X103926792Y-93231366D01*
X103891900Y-93269397D01*
X103809242Y-93301813D01*
X103809242Y-93437811D01*
X103868477Y-93441642D01*
X103870044Y-93442282D01*
X103936294Y-93496195D01*
X103982288Y-93578222D01*
X103991834Y-93630106D01*
X103970578Y-93682110D01*
X103919937Y-93744975D01*
X103859596Y-93798189D01*
X103809242Y-93821238D01*
X103808389Y-93821250D01*
X103808389Y-93948280D01*
X103811194Y-93948250D01*
X103893954Y-93965424D01*
X103951369Y-94026463D01*
X103954227Y-94031284D01*
X103985301Y-94097134D01*
X103981590Y-94151102D01*
X103960851Y-94197972D01*
X103920389Y-94255316D01*
X103861969Y-94278661D01*
X103808141Y-94281625D01*
X103808141Y-94424500D01*
X104211843Y-94424500D01*
X104211843Y-91277747D01*
X104103799Y-91276758D01*
X104012527Y-91274340D01*
X103874743Y-91269650D01*
X103782595Y-91263196D01*
X103725280Y-91252398D01*
X103691994Y-91234681D01*
X103671932Y-91207466D01*
X103664263Y-91191258D01*
X103643674Y-91084780D01*
X103677219Y-90990818D01*
X103719409Y-90946904D01*
X103780092Y-90922891D01*
X103879210Y-90907190D01*
X103999199Y-90900125D01*
X104122496Y-90902019D01*
X104195366Y-90909488D01*
X104195366Y-90805000D01*
X104036357Y-90802652D01*
X103900329Y-90796121D01*
X103797811Y-90786181D01*
X103739333Y-90773605D01*
X103734387Y-90771175D01*
X103667438Y-90699590D01*
X103644660Y-90602952D01*
X103668691Y-90499204D01*
X103689226Y-90463688D01*
X103718744Y-90447451D01*
X103785167Y-90435820D01*
X103893853Y-90428358D01*
X104050156Y-90424629D01*
X104176718Y-90424000D01*
X104365999Y-90425309D01*
X104399773Y-90426663D01*
X104399773Y-90297000D01*
X103763490Y-90297000D01*
X103692465Y-90217097D01*
X103642259Y-90126387D01*
X103647006Y-90035449D01*
X103703744Y-89955688D01*
X103736734Y-89941831D01*
X103803699Y-89931249D01*
X103909504Y-89923664D01*
X104059011Y-89918803D01*
X104257085Y-89916389D01*
X104259464Y-89916383D01*
X104259464Y-89784081D01*
X104079535Y-89783349D01*
X103930536Y-89781533D01*
X103819944Y-89778704D01*
X103755234Y-89774933D01*
X103743668Y-89773121D01*
X103678189Y-89727304D01*
X103644405Y-89647884D01*
X103644826Y-89555612D01*
X103681961Y-89471236D01*
X103704268Y-89447257D01*
X103730780Y-89435606D01*
X103784081Y-89426584D01*
X103869026Y-89420029D01*
X103990469Y-89415779D01*
X104153265Y-89413671D01*
X104362267Y-89413542D01*
X104622330Y-89415230D01*
X104652847Y-89415507D01*
X104879172Y-89417603D01*
X104879172Y-89280514D01*
X104587776Y-89280466D01*
X104347681Y-89279697D01*
X104153743Y-89277677D01*
X104000818Y-89273879D01*
X103883764Y-89267775D01*
X103797436Y-89258837D01*
X103736691Y-89246537D01*
X103696385Y-89230346D01*
X103671375Y-89209737D01*
X103656518Y-89184182D01*
X103646896Y-89154000D01*
X103647309Y-89054540D01*
X103697308Y-88966707D01*
X103719409Y-88946654D01*
X103742464Y-88934535D01*
X103781335Y-88924640D01*
X103841219Y-88916758D01*
X103927312Y-88910681D01*
X104044810Y-88906197D01*
X104198912Y-88903098D01*
X104394813Y-88901174D01*
X104637711Y-88900215D01*
X104874858Y-88900000D01*
X105178281Y-88900855D01*
X105439779Y-88903367D01*
X105656678Y-88907461D01*
X105740012Y-88910212D01*
X105740012Y-88767181D01*
X105447584Y-88766969D01*
X105101537Y-88765432D01*
X105090114Y-88765365D01*
X103697158Y-88757125D01*
X103664317Y-88683008D01*
X103643678Y-88576572D01*
X103677180Y-88482621D01*
X103719409Y-88438654D01*
X103763291Y-88426238D01*
X103856682Y-88415499D01*
X103992664Y-88406430D01*
X104164322Y-88399023D01*
X104364738Y-88393271D01*
X104586996Y-88389169D01*
X104824179Y-88386709D01*
X105069371Y-88385883D01*
X105315656Y-88386686D01*
X105556117Y-88389110D01*
X105783837Y-88393149D01*
X105991900Y-88398795D01*
X106173390Y-88406041D01*
X106321389Y-88414882D01*
X106428982Y-88425309D01*
X106489251Y-88437316D01*
X106497332Y-88441426D01*
X106542349Y-88508359D01*
X106560793Y-88600041D01*
X106550406Y-88688844D01*
X106521563Y-88737665D01*
X106493483Y-88746514D01*
X106428174Y-88753720D01*
X106322903Y-88759338D01*
X106174941Y-88763418D01*
X105981554Y-88766015D01*
X105740012Y-88767181D01*
X105740012Y-88910212D01*
X105826307Y-88913062D01*
X105945993Y-88920095D01*
X106013063Y-88928484D01*
X106025042Y-88932478D01*
X106094025Y-89003844D01*
X106118557Y-89095678D01*
X106097707Y-89188769D01*
X106040776Y-89256702D01*
X106006597Y-89261812D01*
X105922164Y-89266560D01*
X105793668Y-89270818D01*
X105627298Y-89274460D01*
X105429246Y-89277357D01*
X105205701Y-89279385D01*
X104962855Y-89280415D01*
X104879172Y-89280514D01*
X104879172Y-89417603D01*
X105556024Y-89423875D01*
X105599429Y-89511188D01*
X105626893Y-89580257D01*
X105621395Y-89636444D01*
X105599430Y-89685813D01*
X105556026Y-89773125D01*
X104682208Y-89782008D01*
X104462847Y-89783657D01*
X104259464Y-89784081D01*
X104259464Y-89916383D01*
X104404850Y-89916000D01*
X104613698Y-89916170D01*
X104773321Y-89917163D01*
X104890938Y-89919709D01*
X104973770Y-89924533D01*
X105029034Y-89932364D01*
X105063952Y-89943930D01*
X105085741Y-89959957D01*
X105101622Y-89981174D01*
X105105011Y-89986565D01*
X105145078Y-90087488D01*
X105130353Y-90178257D01*
X105092500Y-90233500D01*
X105071174Y-90254060D01*
X105043586Y-90269640D01*
X105002246Y-90280926D01*
X104939664Y-90288605D01*
X104848348Y-90293364D01*
X104720810Y-90295890D01*
X104549558Y-90296868D01*
X104399773Y-90297000D01*
X104399773Y-90426663D01*
X104506158Y-90430929D01*
X104604494Y-90443400D01*
X104668307Y-90465261D01*
X104704898Y-90499052D01*
X104721565Y-90547312D01*
X104725609Y-90612583D01*
X104725612Y-90614968D01*
X104718904Y-90682200D01*
X104694041Y-90731791D01*
X104643912Y-90766288D01*
X104561407Y-90788242D01*
X104439413Y-90800199D01*
X104270822Y-90804709D01*
X104195366Y-90805000D01*
X104195366Y-90909488D01*
X104231541Y-90913196D01*
X104308770Y-90933978D01*
X104312891Y-90935984D01*
X104379442Y-91000389D01*
X104403463Y-91092114D01*
X104380648Y-91191754D01*
X104372873Y-91206264D01*
X104350927Y-91239674D01*
X104324226Y-91261317D01*
X104281592Y-91273304D01*
X104211843Y-91277747D01*
X104211843Y-94424500D01*
X106788399Y-94424500D01*
X106788399Y-88296750D01*
X105289484Y-88296750D01*
X104901737Y-88296117D01*
X104570065Y-88294211D01*
X104294110Y-88291026D01*
X104073514Y-88286553D01*
X103907917Y-88280784D01*
X103796961Y-88273712D01*
X103740289Y-88265329D01*
X103734387Y-88262925D01*
X103667438Y-88191340D01*
X103644660Y-88094702D01*
X103668691Y-87990954D01*
X103689226Y-87955438D01*
X103707284Y-87946467D01*
X103750569Y-87938852D01*
X103822722Y-87932501D01*
X103927379Y-87927323D01*
X104068181Y-87923228D01*
X104248766Y-87920124D01*
X104472774Y-87917920D01*
X104683023Y-87916839D01*
X104683023Y-87783482D01*
X104402634Y-87782458D01*
X104173602Y-87780080D01*
X103994235Y-87776322D01*
X103862841Y-87771158D01*
X103777729Y-87764561D01*
X103737206Y-87756506D01*
X103735652Y-87755687D01*
X103668392Y-87685309D01*
X103643919Y-87593619D01*
X103664257Y-87500877D01*
X103704838Y-87447438D01*
X103726948Y-87438589D01*
X103774617Y-87431052D01*
X103851411Y-87424741D01*
X103960891Y-87419572D01*
X104106621Y-87415460D01*
X104292164Y-87412320D01*
X104521083Y-87410067D01*
X104796941Y-87408616D01*
X105123301Y-87407883D01*
X105370839Y-87407750D01*
X105372397Y-87407750D01*
X105372397Y-87280750D01*
X103741931Y-87280750D01*
X103686168Y-87200998D01*
X103646769Y-87102963D01*
X103657788Y-87006331D01*
X103704497Y-86939438D01*
X103726696Y-86930588D01*
X103774465Y-86923050D01*
X103851369Y-86916739D01*
X103960971Y-86911569D01*
X104106833Y-86907457D01*
X104292517Y-86904317D01*
X104521588Y-86902064D01*
X104797607Y-86900614D01*
X105124137Y-86899882D01*
X105370839Y-86899750D01*
X105453600Y-86899780D01*
X105453600Y-86772755D01*
X105275059Y-86772750D01*
X104934187Y-86772695D01*
X104645365Y-86772273D01*
X104404199Y-86771098D01*
X104206296Y-86768785D01*
X104047262Y-86764949D01*
X103922703Y-86759204D01*
X103828225Y-86751164D01*
X103759434Y-86740444D01*
X103711936Y-86726659D01*
X103681337Y-86709423D01*
X103663244Y-86688351D01*
X103653262Y-86663057D01*
X103646997Y-86633155D01*
X103646402Y-86629875D01*
X103642939Y-86561598D01*
X103667763Y-86499208D01*
X103704167Y-86447313D01*
X103716484Y-86435181D01*
X103736399Y-86424947D01*
X103768436Y-86416451D01*
X103817119Y-86409532D01*
X103886973Y-86404030D01*
X103982523Y-86399786D01*
X104108292Y-86396638D01*
X104268805Y-86394428D01*
X104468587Y-86392994D01*
X104712162Y-86392178D01*
X105004054Y-86391818D01*
X105274039Y-86391750D01*
X105620683Y-86391774D01*
X105915138Y-86392170D01*
X106161661Y-86393431D01*
X106364508Y-86396046D01*
X106515558Y-86400169D01*
X106515558Y-86248875D01*
X103697167Y-86248875D01*
X103664321Y-86174758D01*
X103643678Y-86068326D01*
X103677177Y-85974376D01*
X103719409Y-85930404D01*
X103740676Y-85919281D01*
X103776891Y-85910029D01*
X103832787Y-85902487D01*
X103913098Y-85896498D01*
X104022557Y-85891901D01*
X104165896Y-85888537D01*
X104347848Y-85886246D01*
X104573148Y-85884870D01*
X104846527Y-85884249D01*
X105091725Y-85884184D01*
X105360487Y-85884653D01*
X105516680Y-85885377D01*
X105516680Y-85785530D01*
X105320958Y-85784901D01*
X105078497Y-85783300D01*
X104859238Y-85781593D01*
X103732804Y-85772625D01*
X103678874Y-85697671D01*
X103633151Y-85613007D01*
X103636016Y-85540045D01*
X103688649Y-85460021D01*
X103694218Y-85453682D01*
X103763490Y-85375750D01*
X104875745Y-85375750D01*
X105091811Y-85375826D01*
X105091811Y-85244323D01*
X104888269Y-85243409D01*
X104634258Y-85241352D01*
X104627657Y-85241293D01*
X103697147Y-85232875D01*
X103663483Y-85156889D01*
X103643669Y-85055763D01*
X103678220Y-84956163D01*
X103689226Y-84939188D01*
X103710851Y-84927550D01*
X103741931Y-84921784D01*
X103741931Y-84772500D01*
X103686168Y-84692748D01*
X103646769Y-84594713D01*
X103657788Y-84498081D01*
X103704497Y-84431188D01*
X103737459Y-84417205D01*
X103804590Y-84406558D01*
X103910777Y-84398967D01*
X104060907Y-84394148D01*
X104205162Y-84392461D01*
X104205162Y-84264067D01*
X104022637Y-84262877D01*
X103888356Y-84258545D01*
X103794130Y-84249245D01*
X103731771Y-84233150D01*
X103693089Y-84208432D01*
X103669896Y-84173265D01*
X103658699Y-84142139D01*
X103645881Y-84033672D01*
X103683461Y-83948978D01*
X103707863Y-83924198D01*
X103755317Y-83906487D01*
X103852606Y-83894091D01*
X104001973Y-83886819D01*
X104021076Y-83886567D01*
X104021076Y-83756500D01*
X103870313Y-83752509D01*
X103766299Y-83738416D01*
X103699677Y-83711045D01*
X103661088Y-83667221D01*
X103646896Y-83629500D01*
X103647309Y-83530040D01*
X103697308Y-83442207D01*
X103719409Y-83422154D01*
X103781846Y-83397237D01*
X103882178Y-83381710D01*
X103953026Y-83378200D01*
X103953026Y-83250839D01*
X103845116Y-83249078D01*
X103746999Y-83226361D01*
X103681389Y-83185000D01*
X103633113Y-83107244D01*
X103636519Y-83032168D01*
X103692257Y-82947649D01*
X103694218Y-82945432D01*
X103755617Y-82893484D01*
X103832160Y-82870843D01*
X103846825Y-82870127D01*
X103846825Y-82735763D01*
X103818191Y-82734503D01*
X103731996Y-82718767D01*
X103682477Y-82682556D01*
X103663320Y-82648639D01*
X103643664Y-82547355D01*
X103678388Y-82447637D01*
X103689226Y-82430938D01*
X103736060Y-82404399D01*
X103813872Y-82392850D01*
X103817412Y-82392998D01*
X103817412Y-82264250D01*
X103761752Y-82242846D01*
X103698264Y-82190680D01*
X103692465Y-82184347D01*
X103642259Y-82093637D01*
X103647006Y-82002699D01*
X103703744Y-81922938D01*
X103782555Y-81886754D01*
X103841868Y-81891580D01*
X103841868Y-81750567D01*
X103761556Y-81731246D01*
X103695319Y-81677801D01*
X103652112Y-81602541D01*
X103640889Y-81517776D01*
X103670604Y-81435816D01*
X103696465Y-81406100D01*
X103746335Y-81386611D01*
X103826031Y-81379908D01*
X103855032Y-81381248D01*
X103872809Y-81384492D01*
X103872809Y-81244741D01*
X103777417Y-81239094D01*
X103720117Y-81214330D01*
X103661222Y-81149064D01*
X103642723Y-81062923D01*
X103661738Y-80975795D01*
X103715385Y-80907570D01*
X103768199Y-80882596D01*
X103878961Y-80874751D01*
X103878961Y-80735429D01*
X103833219Y-80734190D01*
X103744429Y-80721845D01*
X103693093Y-80694683D01*
X103661312Y-80645000D01*
X103633121Y-80575533D01*
X103632056Y-80528783D01*
X103661397Y-80474770D01*
X103683438Y-80442907D01*
X103756192Y-80379563D01*
X103845947Y-80356269D01*
X103909147Y-80365074D01*
X103909147Y-80227546D01*
X103829268Y-80226008D01*
X103740914Y-80212902D01*
X103690167Y-80183695D01*
X103663333Y-80140389D01*
X103643664Y-80039117D01*
X103678375Y-79939408D01*
X103689226Y-79922688D01*
X103734126Y-79898371D01*
X103813112Y-79885734D01*
X103904772Y-79884873D01*
X103915048Y-79886237D01*
X103915048Y-79738564D01*
X103807087Y-79738475D01*
X103720736Y-79699690D01*
X103662476Y-79633759D01*
X103638789Y-79552235D01*
X103656157Y-79466669D01*
X103719409Y-79389904D01*
X103814575Y-79344654D01*
X103886827Y-79345149D01*
X103886827Y-79248000D01*
X103769993Y-79226820D01*
X103687668Y-79169932D01*
X103645631Y-79087320D01*
X103649662Y-78988966D01*
X103689226Y-78906688D01*
X103736577Y-78879905D01*
X103817375Y-78867532D01*
X103861488Y-78868272D01*
X103861488Y-78740000D01*
X103772808Y-78730378D01*
X103713437Y-78693482D01*
X103682943Y-78655637D01*
X103641729Y-78556953D01*
X103654733Y-78463439D01*
X103703744Y-78398688D01*
X103770598Y-78369489D01*
X103837297Y-78363010D01*
X103837297Y-78225440D01*
X103747613Y-78214072D01*
X103695741Y-78188978D01*
X103663184Y-78140836D01*
X103661325Y-78136750D01*
X103633125Y-78067286D01*
X103632055Y-78020536D01*
X103661395Y-77966524D01*
X103683438Y-77934657D01*
X103735922Y-77878183D01*
X103802760Y-77854375D01*
X103857972Y-77851374D01*
X103857972Y-77724000D01*
X103741787Y-77703212D01*
X103666152Y-77642249D01*
X103644531Y-77597000D01*
X103630151Y-77534381D01*
X103642442Y-77486703D01*
X103689095Y-77426714D01*
X103694218Y-77420932D01*
X103781232Y-77357444D01*
X103876613Y-77339791D01*
X103940764Y-77356562D01*
X103940764Y-77210133D01*
X103846644Y-77209812D01*
X103753574Y-77198934D01*
X103699727Y-77176375D01*
X103667987Y-77134271D01*
X103664174Y-77126008D01*
X103643669Y-77019461D01*
X103677284Y-76925480D01*
X103719409Y-76881654D01*
X103814575Y-76836404D01*
X103835372Y-76836546D01*
X103835372Y-76739612D01*
X103741573Y-76714920D01*
X103704778Y-76687205D01*
X103667121Y-76615325D01*
X103653980Y-76520220D01*
X103667203Y-76432116D01*
X103687034Y-76396850D01*
X103734501Y-76373483D01*
X103813519Y-76360034D01*
X103847089Y-76358750D01*
X103859412Y-76360772D01*
X103859412Y-76227656D01*
X103769748Y-76211972D01*
X103694590Y-76156962D01*
X103652306Y-76075982D01*
X103645993Y-75987618D01*
X103678753Y-75910458D01*
X103714332Y-75879659D01*
X103811408Y-75852102D01*
X103831604Y-75855236D01*
X103831604Y-75722741D01*
X103741243Y-75699170D01*
X103676923Y-75637116D01*
X103644810Y-75552985D01*
X103651070Y-75463184D01*
X103701865Y-75384122D01*
X103703744Y-75382438D01*
X103777619Y-75349623D01*
X103791760Y-75349132D01*
X103791760Y-75211109D01*
X103712307Y-75185039D01*
X103657714Y-75121618D01*
X103653734Y-75111613D01*
X103632211Y-75043665D01*
X103634720Y-74997922D01*
X103666008Y-74943505D01*
X103683438Y-74918407D01*
X103761351Y-74849123D01*
X103775882Y-74847418D01*
X103775882Y-74700760D01*
X103699763Y-74664792D01*
X103664132Y-74617758D01*
X103643659Y-74511503D01*
X103677191Y-74418252D01*
X103724501Y-74370882D01*
X103784504Y-74347247D01*
X103784504Y-74215538D01*
X103703387Y-74175495D01*
X103653364Y-74094487D01*
X103632370Y-74033209D01*
X103630850Y-73997737D01*
X103649143Y-73954139D01*
X103654883Y-73942143D01*
X103718677Y-73868653D01*
X103807448Y-73838538D01*
X103892625Y-73856057D01*
X103961807Y-73920132D01*
X103989238Y-74007117D01*
X103975518Y-74097941D01*
X103921247Y-74173532D01*
X103881864Y-74198390D01*
X103784504Y-74215538D01*
X103784504Y-74347247D01*
X103807762Y-74338085D01*
X103885236Y-74353627D01*
X103947488Y-74404845D01*
X103985081Y-74479073D01*
X103988579Y-74563648D01*
X103948544Y-74645907D01*
X103938029Y-74657438D01*
X103862706Y-74699381D01*
X103775882Y-74700760D01*
X103775882Y-74847418D01*
X103849887Y-74838729D01*
X103938234Y-74887373D01*
X103963996Y-74914586D01*
X104008234Y-74980705D01*
X104013650Y-75041372D01*
X104003691Y-75080708D01*
X103955009Y-75157392D01*
X103878513Y-75201376D01*
X103791760Y-75211109D01*
X103791760Y-75349132D01*
X103873076Y-75346305D01*
X103961371Y-75373233D01*
X103965467Y-75375618D01*
X104007501Y-75428566D01*
X104020056Y-75522930D01*
X104000730Y-75632606D01*
X103941370Y-75698416D01*
X103839901Y-75722559D01*
X103831604Y-75722741D01*
X103831604Y-75855236D01*
X103916163Y-75868358D01*
X104004554Y-75922883D01*
X104028612Y-75952121D01*
X104064891Y-76014705D01*
X104066958Y-76060311D01*
X104038114Y-76118304D01*
X103961054Y-76197319D01*
X103859412Y-76227656D01*
X103859412Y-76360772D01*
X103963139Y-76377795D01*
X104040513Y-76429150D01*
X104074473Y-76504147D01*
X104060281Y-76594116D01*
X104015137Y-76666267D01*
X103934502Y-76722858D01*
X103835372Y-76739612D01*
X103835372Y-76836546D01*
X103912105Y-76837073D01*
X103997729Y-76877361D01*
X104057174Y-76950969D01*
X104076500Y-77039288D01*
X104064195Y-77132360D01*
X104021725Y-77187249D01*
X103940764Y-77210133D01*
X103940764Y-77356562D01*
X103966460Y-77363280D01*
X104036872Y-77423215D01*
X104073947Y-77514900D01*
X104076500Y-77550059D01*
X104060778Y-77641877D01*
X104009083Y-77697285D01*
X103914625Y-77721691D01*
X103857972Y-77724000D01*
X103857972Y-77851374D01*
X103864834Y-77851000D01*
X103953841Y-77859796D01*
X104012671Y-77893892D01*
X104046724Y-77935364D01*
X104090669Y-78033178D01*
X104083662Y-78118143D01*
X104030978Y-78182950D01*
X103937894Y-78220292D01*
X103837297Y-78225440D01*
X103837297Y-78363010D01*
X103864936Y-78360324D01*
X103960763Y-78370920D01*
X104032080Y-78401006D01*
X104033477Y-78402131D01*
X104074897Y-78470673D01*
X104085672Y-78563739D01*
X104065801Y-78652532D01*
X104033477Y-78696870D01*
X103972432Y-78724365D01*
X103885774Y-78739174D01*
X103861488Y-78740000D01*
X103861488Y-78868272D01*
X103910197Y-78869090D01*
X103993619Y-78884098D01*
X104046217Y-78912077D01*
X104048350Y-78914723D01*
X104085127Y-79006271D01*
X104075986Y-79101163D01*
X104028737Y-79183284D01*
X103951192Y-79236518D01*
X103886827Y-79248000D01*
X103886827Y-79345149D01*
X103912105Y-79345323D01*
X103997729Y-79385611D01*
X104057174Y-79459219D01*
X104076500Y-79547538D01*
X104062713Y-79644355D01*
X104014571Y-79703553D01*
X103921905Y-79737165D01*
X103915048Y-79738564D01*
X103915048Y-79886237D01*
X103987694Y-79895886D01*
X104040466Y-79918867D01*
X104042634Y-79921101D01*
X104066407Y-79977855D01*
X104076498Y-80061516D01*
X104076500Y-80062858D01*
X104059688Y-80152781D01*
X104005686Y-80206501D01*
X103909147Y-80227546D01*
X103909147Y-80365074D01*
X103937604Y-80369039D01*
X104016063Y-80413889D01*
X104066223Y-80486834D01*
X104076500Y-80546630D01*
X104054382Y-80649285D01*
X103988366Y-80712348D01*
X103878961Y-80735429D01*
X103878961Y-80874751D01*
X103887965Y-80874113D01*
X103984063Y-80908886D01*
X104044814Y-80982584D01*
X104046092Y-80985657D01*
X104057709Y-81076057D01*
X104024803Y-81154911D01*
X103959220Y-81213910D01*
X103872809Y-81244741D01*
X103872809Y-81384492D01*
X103941215Y-81396978D01*
X103990732Y-81433180D01*
X104009922Y-81467153D01*
X104027909Y-81569475D01*
X103993000Y-81662207D01*
X103927301Y-81723452D01*
X103841868Y-81750567D01*
X103841868Y-81891580D01*
X103870601Y-81893918D01*
X103950697Y-81936364D01*
X104005662Y-82006023D01*
X104020056Y-82071446D01*
X103996596Y-82136324D01*
X103939453Y-82202429D01*
X103868479Y-82250870D01*
X103817412Y-82264250D01*
X103817412Y-82392998D01*
X103898762Y-82396420D01*
X103966832Y-82415235D01*
X103986189Y-82429351D01*
X104013159Y-82495204D01*
X104018236Y-82585893D01*
X104002146Y-82669892D01*
X103979808Y-82706803D01*
X103927852Y-82728108D01*
X103846825Y-82735763D01*
X103846825Y-82870127D01*
X103900563Y-82867500D01*
X104017849Y-82886737D01*
X104104266Y-82938091D01*
X104153499Y-83012032D01*
X104159237Y-83099031D01*
X104115167Y-83189555D01*
X104114460Y-83190438D01*
X104049788Y-83231380D01*
X103953026Y-83250839D01*
X103953026Y-83378200D01*
X104002455Y-83375751D01*
X104124723Y-83379537D01*
X104231033Y-83393246D01*
X104302278Y-83416392D01*
X104362291Y-83481483D01*
X104383389Y-83572248D01*
X104362176Y-83665008D01*
X104342353Y-83695808D01*
X104311304Y-83724662D01*
X104266236Y-83742794D01*
X104194828Y-83752533D01*
X104084756Y-83756206D01*
X104021076Y-83756500D01*
X104021076Y-83886567D01*
X104176940Y-83884510D01*
X104362872Y-83885705D01*
X104499772Y-83892059D01*
X104595006Y-83906205D01*
X104655940Y-83930779D01*
X104689942Y-83968415D01*
X104704378Y-84021747D01*
X104706797Y-84074000D01*
X104701784Y-84142575D01*
X104681728Y-84192568D01*
X104639100Y-84226832D01*
X104566374Y-84248218D01*
X104456020Y-84259580D01*
X104300513Y-84263769D01*
X104205162Y-84264067D01*
X104205162Y-84392461D01*
X104259869Y-84391821D01*
X104392339Y-84391500D01*
X104599597Y-84391761D01*
X104757883Y-84393012D01*
X104874668Y-84395957D01*
X104957426Y-84401302D01*
X105013627Y-84409752D01*
X105050743Y-84422009D01*
X105076246Y-84438780D01*
X105094946Y-84457752D01*
X105137564Y-84532271D01*
X105135409Y-84606603D01*
X105121850Y-84656785D01*
X105101806Y-84695536D01*
X105068477Y-84724344D01*
X105015066Y-84744698D01*
X104934775Y-84758084D01*
X104820805Y-84765990D01*
X104666359Y-84769904D01*
X104464638Y-84771314D01*
X104381938Y-84771491D01*
X103741931Y-84772500D01*
X103741931Y-84921784D01*
X103761093Y-84918228D01*
X103844539Y-84911025D01*
X103965776Y-84905746D01*
X104129391Y-84902197D01*
X104339969Y-84900181D01*
X104602099Y-84899503D01*
X104621012Y-84899500D01*
X104873973Y-84899797D01*
X105076472Y-84900907D01*
X105234488Y-84903159D01*
X105354003Y-84906880D01*
X105440994Y-84912401D01*
X105501444Y-84920049D01*
X105541332Y-84930154D01*
X105566639Y-84943043D01*
X105577112Y-84952046D01*
X105622102Y-85036241D01*
X105620183Y-85135057D01*
X105593445Y-85195537D01*
X105579860Y-85210354D01*
X105556638Y-85222095D01*
X105517946Y-85231035D01*
X105457951Y-85237452D01*
X105370818Y-85241621D01*
X105250716Y-85243820D01*
X105091811Y-85244323D01*
X105091811Y-85375826D01*
X105155726Y-85375849D01*
X105384811Y-85376350D01*
X105568545Y-85377560D01*
X105712477Y-85379788D01*
X105822153Y-85383341D01*
X105903122Y-85388527D01*
X105960930Y-85395653D01*
X106001125Y-85405027D01*
X106029253Y-85416957D01*
X106050863Y-85431749D01*
X106062361Y-85441555D01*
X106123798Y-85526042D01*
X106130338Y-85616258D01*
X106082018Y-85703334D01*
X106061197Y-85723726D01*
X106040989Y-85740426D01*
X106018128Y-85754031D01*
X105987106Y-85764806D01*
X105942410Y-85773018D01*
X105878530Y-85778931D01*
X105789956Y-85782810D01*
X105671176Y-85784922D01*
X105516680Y-85785530D01*
X105516680Y-85885377D01*
X105613302Y-85885825D01*
X105844287Y-85887620D01*
X106047561Y-85889960D01*
X106217241Y-85892764D01*
X106347447Y-85895953D01*
X106432295Y-85899448D01*
X106464837Y-85902733D01*
X106522728Y-85943343D01*
X106562516Y-86000046D01*
X106585221Y-86068326D01*
X106573002Y-86131327D01*
X106557875Y-86164059D01*
X106515558Y-86248875D01*
X106515558Y-86400169D01*
X106527935Y-86400507D01*
X106656199Y-86407303D01*
X106753556Y-86416925D01*
X106824261Y-86429863D01*
X106872571Y-86446609D01*
X106902742Y-86467652D01*
X106919030Y-86493484D01*
X106925692Y-86524595D01*
X106926983Y-86561474D01*
X106926945Y-86582250D01*
X106926742Y-86622213D01*
X106923294Y-86656157D01*
X106912345Y-86684574D01*
X106889636Y-86707955D01*
X106850911Y-86726790D01*
X106791910Y-86741570D01*
X106708379Y-86752788D01*
X106596057Y-86760933D01*
X106450689Y-86766496D01*
X106268017Y-86769969D01*
X106043783Y-86771842D01*
X105773730Y-86772607D01*
X105453600Y-86772755D01*
X105453600Y-86899780D01*
X105716643Y-86899879D01*
X106010380Y-86900358D01*
X106256425Y-86901323D01*
X106459155Y-86902913D01*
X106622946Y-86905265D01*
X106752175Y-86908515D01*
X106851218Y-86912802D01*
X106924451Y-86918263D01*
X106976251Y-86925035D01*
X107010993Y-86933256D01*
X107033055Y-86943063D01*
X107044667Y-86952296D01*
X107088376Y-87035144D01*
X107089703Y-87134516D01*
X107049571Y-87222688D01*
X107037295Y-87234970D01*
X107018874Y-87245391D01*
X106989909Y-87254103D01*
X106946000Y-87261258D01*
X106882749Y-87267009D01*
X106795758Y-87271508D01*
X106680626Y-87274907D01*
X106532955Y-87277359D01*
X106348347Y-87279015D01*
X106122401Y-87280029D01*
X105850720Y-87280552D01*
X105528904Y-87280737D01*
X105372397Y-87280750D01*
X105372397Y-87407750D01*
X105716643Y-87407879D01*
X106010380Y-87408358D01*
X106256425Y-87409323D01*
X106459155Y-87410913D01*
X106622946Y-87413265D01*
X106752175Y-87416515D01*
X106851218Y-87420802D01*
X106924451Y-87426263D01*
X106976251Y-87433035D01*
X107010993Y-87441256D01*
X107033055Y-87451063D01*
X107044667Y-87460296D01*
X107089871Y-87544628D01*
X107086532Y-87644343D01*
X107056231Y-87711245D01*
X107046002Y-87724342D01*
X107030747Y-87735478D01*
X107006049Y-87744841D01*
X106967490Y-87752618D01*
X106910653Y-87758998D01*
X106831121Y-87764169D01*
X106724477Y-87768319D01*
X106586303Y-87771635D01*
X106412181Y-87774307D01*
X106197696Y-87776523D01*
X105938428Y-87778469D01*
X105629961Y-87780336D01*
X105404641Y-87781575D01*
X105016462Y-87783179D01*
X104683023Y-87783482D01*
X104683023Y-87916839D01*
X104743842Y-87916526D01*
X105065610Y-87915849D01*
X105276155Y-87915750D01*
X106835787Y-87915750D01*
X106881366Y-87994008D01*
X106919241Y-88073914D01*
X106917084Y-88134823D01*
X106872220Y-88202117D01*
X106857672Y-88218819D01*
X106788399Y-88296750D01*
X106788399Y-94424500D01*
X109410500Y-94424500D01*
X109410500Y-73691750D01*
X102270278Y-73691750D01*
M02*
